<svg width="120" height="119" viewBox="0 0 120 119" fill="none" xmlns="http://www.w3.org/2000/svg">
<path d="M102.573 17.244C92.1668 6.84286 78.0557 1 63.3424 1H57.3189C42.6044 1 28.4926 6.84532 18.0879 17.25C7.68318 27.6547 1.83789 41.7665 1.83789 56.481V62.5191C1.83789 77.2335 7.68319 91.3453 18.0879 101.75C28.4926 112.155 42.6044 118 57.3188 118H63.3424C78.0557 118 92.1668 112.157 102.573 101.756C112.987 91.3478 118.838 77.2279 118.838 62.5046V56.4955C118.838 41.7722 112.987 27.6523 102.573 17.244Z" fill="#192268" stroke="#25308A" stroke-width="2" stroke-miterlimit="10"/>
<path d="M45.6759 44.3821C45.6759 44.8589 45.4865 45.3161 45.1494 45.6533C44.8122 45.9904 44.3549 46.1798 43.8782 46.1798H40.5423C40.0654 46.1798 39.6083 45.9904 39.2711 45.6533C38.934 45.3161 38.7446 44.8589 38.7446 44.3821C38.7446 43.9053 38.934 43.448 39.2711 43.1109C39.6083 42.7738 40.0654 42.5844 40.5423 42.5844H43.8782C44.3549 42.5844 44.8122 42.7738 45.1494 43.1109C45.4865 43.448 45.6759 43.9053 45.6759 44.3821Z" fill="white"/>
<path d="M58.1592 49.7849C58.3672 49.7851 58.5723 49.7366 58.7583 49.6434C58.9441 49.5501 59.1057 49.4147 59.23 49.2478C59.3542 49.081 59.4377 48.8875 59.4738 48.6826C59.51 48.4778 59.4976 48.2673 59.4378 48.0681C59.3554 47.793 59.1865 47.5519 58.9561 47.3804C58.7258 47.209 58.4463 47.1164 58.1592 47.1164H48.9268C48.3829 47.1167 47.8616 47.3329 47.4773 47.7175C47.287 47.9078 47.0609 48.0587 46.8123 48.1617C46.5635 48.2646 46.297 48.3176 46.0279 48.3175H39.7359C39.447 48.3184 39.1661 48.412 38.9345 48.5846C38.703 48.7571 38.5329 48.9994 38.4494 49.2759C38.3904 49.4753 38.3784 49.6857 38.4142 49.8905C38.4501 50.0953 38.5328 50.2891 38.656 50.4567C38.7792 50.6242 38.9394 50.761 39.1242 50.8563C39.309 50.9517 39.5134 51.003 39.7213 51.0062L48.8605 51.1085C49.1614 51.1119 49.4599 51.0552 49.7385 50.9415C50.0172 50.8279 50.2702 50.6596 50.4829 50.4467C50.9067 50.023 51.4814 49.785 52.0806 49.7849H58.1592Z" fill="white"/>
<path d="M76.4921 56.1058C76.3223 55.9843 76.1189 55.9191 75.9101 55.9193H60.4779C60.2269 55.9198 59.9813 55.846 59.7724 55.7069C59.5634 55.5678 59.4006 55.3698 59.3043 55.138C59.208 54.9062 59.1827 54.6511 59.2316 54.4049C59.2805 54.1587 59.4014 53.9327 59.579 53.7552C59.697 53.6371 59.8371 53.5435 59.9913 53.4797C60.1455 53.4159 60.3109 53.3831 60.4779 53.3833H69.8394C70.0095 53.3835 70.1751 53.3296 70.3123 53.2292C70.4496 53.129 70.5514 52.9875 70.6029 52.8255C70.6544 52.6635 70.6528 52.4893 70.5986 52.3281C70.5443 52.167 70.4402 52.0273 70.3012 51.9294C70.1663 51.8336 70.0049 51.7822 69.8394 51.7822H52.8846C52.2846 51.7828 51.7093 52.0212 51.2847 52.4451C51.0718 52.6579 50.8188 52.8261 50.5402 52.9399C50.2616 53.0538 49.9632 53.1109 49.6622 53.108L36.7468 52.9878C36.5757 52.9866 36.4063 53.0218 36.2499 53.0912C36.0937 53.1605 35.9539 53.2624 35.84 53.3901C35.6862 53.563 35.5858 53.7767 35.5509 54.0053C35.5158 54.2341 35.5478 54.468 35.6428 54.679C35.7378 54.8901 35.8919 55.069 36.0864 55.1943C36.2808 55.3197 36.5075 55.3861 36.7388 55.3856H51.1599C51.4969 55.3852 51.8202 55.5186 52.0588 55.7563C52.2362 55.9339 52.357 56.16 52.4058 56.4062C52.4546 56.6524 52.4292 56.9075 52.3331 57.1393C52.2368 57.3711 52.074 57.5691 51.8652 57.7083C51.6563 57.8476 51.4109 57.9218 51.1599 57.9215H34.531C34.3471 57.9214 34.1649 57.9574 33.9949 58.0276C33.8249 58.098 33.6705 58.2011 33.5403 58.3311C33.4102 58.4611 33.3071 58.6155 33.2366 58.7854C33.1662 58.9554 33.1299 59.1375 33.1299 59.3214C33.1299 59.693 33.2775 60.0494 33.5403 60.3121C33.8031 60.5749 34.1594 60.7225 34.531 60.7225H59.1935C60.0401 60.7225 60.8729 60.5076 61.6137 60.0978L64.653 58.4125C65.2439 58.0867 65.9075 57.9158 66.5822 57.9158H75.9079C76.12 57.9158 76.3266 57.8485 76.498 57.7235C76.6693 57.5984 76.7966 57.4223 76.8613 57.2204C76.926 57.0183 76.9249 56.801 76.8582 56.5997C76.7914 56.3983 76.6625 56.2234 76.4899 56.1001L76.4921 56.1058Z" fill="white"/>
<path d="M79.4334 69.6678C79.6177 69.6678 79.8986 69.8217 80.0581 69.7296L92.2613 62.6848C93.3163 62.0758 92.8838 60.4623 91.6658 60.4612H66.5325C66.3309 60.461 66.1325 60.5121 65.9561 60.6095L61.4236 63.1151C61.2472 63.2127 61.0488 63.2638 60.8472 63.2634H31.0858C30.8943 63.2635 30.7056 63.3098 30.5356 63.3982C30.3657 63.4866 30.2196 63.6145 30.1094 63.7713L27.4286 67.6027C27.2463 67.8696 27.1749 68.1968 27.2291 68.5154C27.2834 68.834 27.4593 69.1191 27.7196 69.3105L28.1297 69.6172C28.1746 69.651 28.2162 69.688 28.2589 69.7296C28.3554 69.8417 28.476 69.9307 28.6116 69.9899C28.7472 70.049 28.8945 70.0769 29.0424 70.0714C29.1902 70.0659 29.335 70.0272 29.4657 69.9581C29.5966 69.889 29.7102 69.7913 29.7982 69.6723C31.533 68.3375 33.4015 67.5375 35.4026 67.5375C37.4037 67.5375 39.2711 68.3375 41.007 69.6723C41.2733 69.9397 41.5396 70.0723 41.807 70.0723C42.1088 70.0256 42.3885 69.8857 42.607 69.6723C44.3418 68.3375 46.2103 67.5375 48.2114 67.5375C50.2125 67.5375 52.081 68.3375 53.8158 69.6723C54.0821 69.9397 54.3495 70.0723 54.6158 70.0723C54.918 70.0261 55.1984 69.8862 55.4169 69.6723C57.1517 68.3375 59.0191 67.5375 61.0202 67.5375C63.0213 67.5375 64.8898 68.3375 66.6246 69.6723C66.7583 69.806 67.1583 70.0723 67.4257 70.0723C67.6931 70.0723 68.092 69.806 68.2257 69.6723C69.9605 68.3375 71.829 67.5375 73.8301 67.5375C75.8312 67.5375 77.6986 68.3375 79.4334 69.6723V69.6678Z" fill="white"/>
</svg>
