<svg width="120" height="119" viewBox="0 0 120 119" fill="none" xmlns="http://www.w3.org/2000/svg">
<path d="M102.681 17.244C92.2747 6.84286 78.1636 1 63.4503 1H57.4268C42.7123 1 28.6005 6.84532 18.1958 17.25C7.79109 27.6547 1.9458 41.7665 1.9458 56.481V62.5191C1.9458 77.2335 7.7911 91.3453 18.1958 101.75C28.6005 112.155 42.7123 118 57.4268 118H63.4504C78.1636 118 92.2747 112.157 102.681 101.756C113.095 91.3478 118.946 77.2279 118.946 62.5046V56.4955C118.946 41.7722 113.095 27.6523 102.681 17.244Z" fill="#192268" stroke="#25308A" stroke-width="2" stroke-miterlimit="10"/>
<path d="M78.38 52.5402L77.2934 55.2577H76.2358L75.5097 52.0621L78.38 52.5402ZM56.3459 54.5113L56.574 54.4656L57.3341 54.9724C55.7174 55.7826 53.8986 56.1015 52.1029 55.8896C50.3068 55.6774 48.6124 54.9437 47.2291 53.7791L48.7198 54.2055C51.2018 54.9102 53.8153 55.015 56.3459 54.5113L56.3459 54.5113ZM44.7271 57.3691L51.4505 60.4855C52.3516 60.8995 53.0766 61.62 53.497 62.5184C53.917 63.4165 54.0052 64.4347 53.7458 65.392H49.9454C49.775 63.8938 49.1635 62.4795 48.1885 61.3292C47.2135 60.1789 45.9188 59.3442 44.4688 58.9305L44.7271 57.3691ZM46.5318 65.3921C46.2385 63.9835 45.2492 62.8208 43.9063 62.3055L44.189 60.6055C45.2444 60.9444 46.1831 61.5729 46.8987 62.4194C47.6143 63.2654 48.0784 64.2955 48.2379 65.3922L46.5318 65.3921ZM44.7726 67.0812C44.5739 67.6429 44.1833 68.1168 43.6694 68.4184C43.1555 68.7204 42.5515 68.8313 41.9637 68.731C41.3763 68.6311 40.8433 68.3264 40.4583 67.8714C40.0732 67.4163 39.8614 66.8402 39.8599 66.2442C39.8588 65.6481 40.068 65.0709 40.4507 64.6143C40.8338 64.1573 41.3658 63.8504 41.9527 63.7479L41.3962 67.0811L44.7726 67.0812ZM43.3919 65.3921L43.6181 64.0326C44.1546 64.3308 44.5648 64.8141 44.7718 65.3921H43.3919ZM42.3935 72.1484C40.2814 72.1484 38.3299 71.0214 37.2739 69.1925C36.2179 67.3636 36.2179 65.1097 37.2739 63.2808C38.3299 61.4519 40.2814 60.3249 42.3935 60.3249C42.4365 60.3249 42.478 60.3309 42.5217 60.3317L42.2378 62.0302H42.2382C41.1787 62.0709 40.1736 62.509 39.423 63.2578C38.6723 64.0062 38.2312 65.0102 38.1878 66.0697C38.1441 67.1288 38.5011 68.1656 39.1877 68.9735C39.8742 69.7811 40.8401 70.3007 41.8924 70.4281C42.945 70.5559 44.0067 70.2822 44.8667 69.662C45.7263 69.0417 46.3208 68.1203 46.5316 67.0813H48.2377C48.0337 68.4868 47.3313 69.7717 46.2583 70.7022C45.1853 71.6323 43.8137 72.1458 42.3934 72.1485L42.3935 72.1484ZM69.4832 59.1551L66.1247 67.2102C65.9332 67.6721 65.6089 68.0668 65.1931 68.3447C64.7769 68.6222 64.2879 68.7704 63.7879 68.77H53.9633L54.8406 67.1891C55.6384 65.753 55.8028 64.0497 55.2942 62.4876C54.7856 60.9256 53.6496 59.6456 52.1593 58.9549L44.3153 55.3234L38.5725 53.0024L39.8924 52.7389L44.359 53.2972L44.3311 53.3251L45.429 54.423H45.4294C47.1727 56.1743 49.4575 57.2835 51.9119 57.5708C54.3664 57.8577 56.8456 57.3057 58.946 56.0039L60.093 55.2989C60.8557 54.831 61.7364 54.5912 62.6311 54.6074C63.5258 54.6236 64.3971 54.8951 65.1425 55.3901C66.6122 56.3693 68.2058 57.1482 69.8813 57.7065L70.8948 58.0443L69.7969 58.7758C69.657 58.8681 69.5481 59.0001 69.4832 59.1551L69.4832 59.1551ZM72.6713 56.862L70.4156 56.1103C68.8812 55.5983 67.4216 54.8846 66.0757 53.9872C65.0615 53.3139 63.8757 52.944 62.6584 52.9222C61.441 52.9003 60.2428 53.2268 59.2045 53.8632L58.9511 54.0212L57.7586 53.2264L58.0964 52.213H58.0968C58.1915 51.9321 58.4252 51.7206 58.714 51.6546L64.4677 50.3769C64.916 50.277 65.3831 50.3011 65.819 50.4463L67.4074 50.9756L71.333 52.9384C71.7435 53.1439 72.2024 53.2336 72.6605 53.1982C73.1182 53.1624 73.5578 53.0029 73.9318 52.7367L74.5803 55.5919L72.6713 56.862ZM77.8637 72.1486C76.0117 72.1433 74.2696 71.2705 73.1565 69.7906C72.0432 68.3104 71.688 66.3944 72.1963 64.6137C72.7049 62.8334 74.018 61.3936 75.7448 60.7247L76.1256 62.3995V62.3991C74.8581 62.9827 73.963 64.1572 73.736 65.534C73.509 66.9108 73.9803 68.3104 74.9938 69.2695C76.0068 70.2291 77.4301 70.6227 78.7926 70.3211C80.1548 70.0191 81.2787 69.0611 81.7918 67.7634C82.3049 66.4661 82.1409 64.9983 81.3537 63.8461C80.5665 62.6939 79.259 62.0077 77.8636 62.0142C77.8323 62.0142 77.8037 62.0225 77.7724 62.0236L77.3916 60.3488C77.5477 60.3371 77.7041 60.3251 77.8636 60.3251C79.9757 60.3251 81.9272 61.452 82.9832 63.2809C84.0392 65.1099 84.0392 67.3637 82.9832 69.1927C81.9272 71.0216 79.9757 72.1485 77.8636 72.1485L77.8637 72.1486ZM77.0403 66.4242L78.6871 66.049L78.1608 63.7334V63.7338C78.9555 63.8303 79.6568 64.2982 80.0519 64.9942C80.4467 65.6905 80.4882 66.5325 80.1635 67.2643C79.8393 67.9957 79.1871 68.5303 78.4058 68.7049C77.6246 68.8791 76.8073 68.6733 76.2021 68.1492C75.5974 67.6251 75.2766 66.8454 75.3376 66.0473C75.3987 65.2495 75.8345 64.5275 76.5125 64.1019L77.0403 66.4242Z" fill="white"/>
<path d="M77.8645 63.7037C77.964 63.7079 78.0636 63.7181 78.1616 63.7343L77.7733 62.0241C77.2043 62.0358 76.6441 62.1636 76.1265 62.3996L76.5133 64.1023C76.9163 63.8432 77.3854 63.7049 77.8645 63.7038L77.8645 63.7037Z" fill="white"/>
<path d="M77.0153 58.6865L76.6191 56.947L76.2356 55.2579H75.3312C75.1645 55.2583 75.0013 55.3077 74.8625 55.3997L74.5786 55.5889L74.979 57.3523L75.3692 59.0659L75.7459 60.7245V60.7248C76.2737 60.5205 76.8283 60.3942 77.3927 60.349L77.0153 58.6865Z" fill="white"/>
<path d="M75.1054 50.2827L74.4659 47.4704C74.3785 47.0859 74.0365 46.8133 73.6425 46.8133H70.2644V48.5024H72.9669L73.4955 50.8309L73.9287 52.7345C74.0448 52.6523 74.1538 52.561 74.2548 52.4615L74.7751 51.9405L75.5081 52.063L75.1054 50.2827Z" fill="white"/>
</svg>
