<svg width="119" height="119" viewBox="0 0 119 119" fill="none" xmlns="http://www.w3.org/2000/svg">
<path d="M101.736 17.244C91.3289 6.84286 77.2178 1 62.5045 1H56.481C41.7665 1 27.6547 6.84532 17.25 17.25C6.84529 27.6547 1 41.7665 1 56.481V62.5191C1 77.2335 6.8453 91.3453 17.25 101.75C27.6547 112.155 41.7665 118 56.4809 118H62.5046C77.2178 118 91.3289 112.157 101.736 101.756C112.149 91.3478 118 77.2279 118 62.5046V56.4955C118 41.7722 112.149 27.6523 101.736 17.244Z" fill="#192268" stroke="#25308A" stroke-width="2" stroke-miterlimit="10"/>
<path d="M49.9593 68.6961C49.9593 68.6961 48.1533 67.1912 44.2421 65.8374C40.3334 64.6328 37.17 64.3326 37.9225 62.2263C37.9225 62.2263 37.1701 63.43 40.9312 64.1807C44.5423 65.0841 47.2508 65.3844 50.2587 67.4915H68.4641C71.6239 65.3844 74.1814 65.0841 77.9435 64.1807C81.7047 63.4283 80.9532 62.2263 80.9532 62.2263C81.5546 64.3326 78.2446 64.7839 74.3324 65.9875C70.4202 67.1912 68.9136 68.6961 68.9136 68.6961H49.9593Z" fill="white"/>
<path d="M60.0399 58.4639H58.8353C57.0302 58.4639 53.5693 58.6149 51.4622 58.9151C51.4622 58.9151 49.2058 59.0662 51.312 62.2259C51.312 62.2259 50.4095 60.5701 51.0109 59.8186C51.0109 59.8186 51.1619 59.3673 52.2146 59.2163C52.2146 59.2163 55.9767 58.916 58.8353 58.916H59.888C62.7475 58.916 66.5087 59.2163 66.5087 59.2163C67.7124 59.3673 67.7124 59.8186 67.7124 59.8186C68.3138 60.571 67.4112 62.2259 67.4112 62.2259C69.5175 59.0662 67.2611 58.9151 67.2611 58.9151C65.154 58.6149 61.6939 58.4639 60.0381 58.4639H60.0399Z" fill="white"/>
<path d="M81.2556 65.836L72.3776 67.7904V70.3479C72.3776 70.3479 72.2274 72.0037 72.9798 71.8527H80.6532C80.6532 71.8527 81.2556 71.8527 81.2556 70.4989V65.836Z" fill="white"/>
<path d="M37.772 65.836L46.6499 67.7904V70.3479C46.6499 70.3479 46.8001 72.0037 46.0477 71.8527H38.3743C38.3743 71.8527 37.772 71.8527 37.772 70.4989V65.836Z" fill="white"/>
<path d="M71.1743 48.5334C73.5112 49.5708 75.4232 51.3759 76.5931 53.6493H77.4904V51.9944C78.8451 51.9944 81.399 51.9944 82.004 52.4456C82.6063 52.7459 82.4561 53.9496 82.4561 53.9496L76.889 54.4017L77.039 54.702C78.3136 54.9754 79.57 55.3273 80.8012 55.7556C80.5001 56.2068 79.4465 56.8082 79.2964 56.9592C78.5167 57.278 77.7113 57.5297 76.889 57.7117C75.083 58.0128 73.1269 58.3131 72.2244 59.5176C72.2244 59.5176 76.7379 61.3227 79.8986 59.5176C79.8986 59.5176 80.5 58.3131 80.0487 56.9592C80.3498 56.6581 80.651 56.508 80.9512 56.2068C81.7037 58.6142 80.9512 59.9689 80.9512 59.9689C80.1988 61.3227 78.6949 61.3227 74.3314 62.5264C69.9679 63.7301 67.8617 66.2885 67.8617 66.2885H66.0557C67.1093 65.0839 69.6668 61.774 69.9644 59.3666C69.9644 59.3666 70.5667 58.1629 67.407 57.8618C62.0447 57.5606 56.6699 57.5606 51.3077 57.8618C48.1479 58.1629 48.7494 59.3666 48.7494 59.3666C49.0505 61.774 51.759 65.0839 52.658 66.2885H50.8529C50.8529 66.2885 48.8986 63.7301 44.5333 62.5264C40.0188 61.3227 38.514 61.3227 37.7616 59.9689C37.7616 59.9689 37.1602 58.6142 37.9126 56.2068C38.0627 56.508 38.3639 56.6581 38.665 56.9592C38.2137 58.3131 38.8151 59.5176 38.8151 59.5176C41.9749 61.3227 46.6396 59.5176 46.6396 59.5176C45.586 58.3131 43.6307 58.0128 41.8248 57.7117C41.045 57.5519 40.2872 57.2993 39.5675 56.9592C39.2673 56.8082 38.2137 56.2068 38.0627 55.7556C39.2467 55.3392 40.4525 54.9875 41.6747 54.702L41.8248 54.4017L36.2576 53.9496C36.2576 53.9496 36.1075 52.7459 36.7089 52.4456C37.3112 51.9944 39.8687 51.9944 41.2225 51.9944V53.6493H42.276C43.4237 51.4133 45.2738 49.6159 47.5421 48.5334C55.3584 47.1796 63.3492 47.1796 71.1654 48.5334H71.1743ZM59.4386 57.1103L59.8899 53.6458C63.1998 53.7968 69.3692 54.097 72.8292 54.2481C70.723 56.0531 69.8205 58.0092 69.8205 58.0092C70.7231 56.6554 73.4316 55.1506 74.9364 54.3982C74.3342 51.3894 70.8741 49.4333 70.8741 49.4333C63.9522 47.9285 54.774 47.9285 48.0032 49.4333C48.0032 49.4333 44.5386 51.3876 43.7898 54.3982C45.4456 55.1506 48.0031 56.6554 49.0566 58.0092C49.0566 58.0092 48.0032 56.0549 45.8969 54.2481C49.357 54.097 55.5263 53.7968 58.8363 53.6458L59.4386 57.1103Z" fill="white"/>
</svg>
