<svg width="59" height="59" viewBox="0 0 59 59" fill="none" xmlns="http://www.w3.org/2000/svg">
<path fill-rule="evenodd" clip-rule="evenodd" d="M28.1573 51.1827C27.2622 51.4989 26.5079 52.1214 26.0276 52.9402C25.5471 53.759 25.3718 54.7211 25.5322 55.6567C25.6927 56.5922 26.1788 57.4408 26.9044 58.0527C27.6303 58.6645 28.549 59 29.4982 59C30.4474 59 31.3661 58.6645 32.0918 58.0527C32.8174 57.4408 33.3035 56.5922 33.4642 55.6567C33.6246 54.7211 33.4491 53.759 32.9686 52.9402C32.4883 52.1214 31.734 51.4989 30.8391 51.1827V41.569C30.8257 41.2224 30.6785 40.8943 30.4285 40.6537C30.1786 40.4132 29.8451 40.279 29.4982 40.279C29.1513 40.279 28.8178 40.4132 28.5676 40.6537C28.3177 40.8943 28.1705 41.2224 28.1573 41.569V51.1827ZM29.4992 56.318C29.2336 56.3184 28.974 56.2399 28.7531 56.0927C28.5322 55.9455 28.3597 55.7362 28.2578 55.491C28.156 55.2457 28.1292 54.9759 28.1807 54.7155C28.2324 54.4549 28.3599 54.2158 28.5476 54.0279C28.7351 53.8401 28.9742 53.7121 29.2346 53.66C29.495 53.6081 29.765 53.6346 30.0101 53.7361C30.2555 53.8377 30.4652 54.0095 30.6128 54.2302C30.7602 54.4509 30.8391 54.7105 30.8391 54.9761C30.8391 55.3316 30.6979 55.6727 30.4468 55.9242C30.1954 56.1758 29.8547 56.3174 29.4992 56.318ZM6.7021 40.4555C5.80712 40.7717 5.05281 41.3942 4.57245 42.213C4.0921 43.0317 3.91662 43.9939 4.07712 44.9294C4.23759 45.8649 4.72367 46.7136 5.44941 47.3254C6.17514 47.9373 7.09377 48.2728 8.04301 48.2728C8.99225 48.2728 9.9109 47.9373 10.6366 47.3254C11.3624 46.7136 11.8485 45.8649 12.0089 44.9294C12.1694 43.9939 11.9939 43.0317 11.5136 42.213C11.0332 41.3942 10.2789 40.7717 9.38393 40.4555V37.5453H18.7716C19.1182 37.5319 19.4462 37.3847 19.6868 37.1347C19.9273 36.8848 20.0617 36.5513 20.0617 36.2044C20.0617 35.8575 19.9273 35.5241 19.6868 35.2741C19.4462 35.0239 19.1182 34.8769 18.7716 34.8635H9.38393C9.03166 34.8633 8.68284 34.9324 8.35735 35.067C8.03183 35.2018 7.73612 35.3993 7.48704 35.6484C7.23794 35.8974 7.04041 36.1932 6.90572 36.5187C6.77104 36.8441 6.70184 37.193 6.7021 37.5453V40.4555ZM49.6124 40.4555C48.7173 40.7717 47.963 41.3942 47.4827 42.213C47.0024 43.0317 46.8267 43.9939 46.9874 44.9294C47.1478 45.8649 47.6339 46.7136 48.3596 47.3254C49.0854 47.9373 50.0041 48.2728 50.9533 48.2728C51.9025 48.2728 52.8212 47.9373 53.5469 47.3254C54.2727 46.7136 54.7588 45.8649 54.9193 44.9294C55.0797 43.9939 54.9043 43.0317 54.424 42.213C53.9435 41.3942 53.1892 40.7717 52.2943 40.4555V37.5453C52.2945 37.193 52.2254 36.8441 52.0906 36.5187C51.956 36.1932 51.7583 35.8974 51.5093 35.6484C51.2602 35.3993 50.9645 35.2018 50.6391 35.067C50.3134 34.9324 49.9645 34.8633 49.6124 34.8635H40.2268C40.0463 34.8565 39.8662 34.886 39.6974 34.9502C39.5288 35.0145 39.3745 35.1121 39.2445 35.2375C39.1143 35.3626 39.0108 35.5126 38.9401 35.6789C38.8694 35.8451 38.8329 36.0238 38.8329 36.2044C38.8329 36.3849 38.8694 36.5637 38.9401 36.7298C39.0108 36.896 39.1143 37.0462 39.2445 37.1714C39.3745 37.2966 39.5288 37.3943 39.6974 37.4584C39.8662 37.5227 40.0463 37.5523 40.2268 37.5453H49.6124V40.4575V40.4555ZM8.04205 45.5908C7.77662 45.5908 7.51711 45.512 7.29643 45.3644C7.07575 45.217 6.90382 45.0075 6.80225 44.7624C6.70068 44.517 6.67408 44.2472 6.72588 43.9871C6.77765 43.7267 6.90544 43.4876 7.09311 43.2999C7.28078 43.1122 7.51993 42.9845 7.78023 42.9326C8.04055 42.8809 8.31038 42.9075 8.55557 43.0091C8.80079 43.1106 9.01037 43.2827 9.15783 43.5034C9.30528 43.7239 9.38393 43.9835 9.38393 44.2488C9.3842 44.4251 9.34966 44.5997 9.28231 44.7626C9.21497 44.9256 9.11613 45.0736 8.99147 45.1982C8.8668 45.323 8.71881 45.4217 8.55587 45.489C8.39294 45.5565 8.21834 45.591 8.04205 45.5908ZM50.9523 45.5908C50.6867 45.5908 50.4274 45.512 50.2066 45.3644C49.9861 45.217 49.8141 45.0075 49.7125 44.7624C49.611 44.517 49.5843 44.2472 49.636 43.9871C49.6879 43.7267 49.8157 43.4876 50.0033 43.2999C50.191 43.1122 50.4302 42.9845 50.6903 42.9326C50.9507 42.8809 51.2205 42.9075 51.4659 43.0091C51.711 43.1106 51.9205 43.2827 52.0679 43.5034C52.2156 43.7239 52.2943 43.9835 52.2943 44.2488C52.2943 44.6048 52.1529 44.946 51.9011 45.1976C51.6495 45.4494 51.3082 45.5908 50.9523 45.5908ZM30.1862 20.3048C29.9783 20.1789 29.7401 20.1124 29.4972 20.1124C29.2542 20.1124 29.0159 20.1789 28.8082 20.3048L22.1045 24.3266C21.9054 24.4451 21.7405 24.6136 21.626 24.815C21.5116 25.0165 21.4513 25.2445 21.4515 25.4762V33.5216C21.4509 33.7533 21.511 33.9815 21.6256 34.183C21.7399 34.3846 21.905 34.5529 22.1045 34.6712L28.8082 38.695C29.0159 38.8207 29.2542 38.8872 29.4972 38.8872C29.7401 38.8872 29.9783 38.8207 30.1862 38.695L36.8919 34.6712C37.0908 34.5525 37.2555 34.3842 37.3696 34.1826C37.4838 33.9811 37.5435 33.7531 37.5429 33.5216V25.4762C37.5429 25.2447 37.483 25.0169 37.3688 24.8154C37.2549 24.614 37.0904 24.4455 36.8919 24.3266L30.1862 20.3048ZM7.81768 30.8398H18.7756C18.956 30.8468 19.1361 30.8172 19.3049 30.7529C19.4736 30.6888 19.6276 30.5911 19.7578 30.4659C19.8879 30.3407 19.9915 30.1905 20.0623 30.0242C20.133 29.8582 20.1695 29.6794 20.1695 29.4989C20.1695 29.3182 20.133 29.1396 20.0623 28.9734C19.9915 28.8071 19.8879 28.6571 19.7578 28.5319C19.6276 28.4065 19.4736 28.309 19.3049 28.2447C19.1361 28.1804 18.956 28.151 18.7756 28.158H7.81768C7.50136 27.2629 6.87878 26.5087 6.06005 26.0284C5.24134 25.5481 4.27919 25.3726 3.34361 25.5331C2.40805 25.6935 1.55932 26.1796 0.947469 26.9052C0.335619 27.631 0 28.5496 0 29.4989C0 30.448 0.335619 31.3668 0.947469 32.0924C1.55932 32.8182 2.40805 33.3041 3.34361 33.4645C4.27919 33.6252 5.24134 33.4497 6.06005 32.9694C6.87878 32.4889 7.50136 31.7347 7.81768 30.8398ZM51.1887 28.158H40.2248C39.8688 28.158 39.5275 28.2994 39.2758 28.551C39.0242 28.8025 38.8828 29.144 38.8828 29.4999C38.8828 29.8558 39.0242 30.1971 39.2758 30.4486C39.5275 30.7004 39.8688 30.8418 40.2248 30.8418H51.1827C51.4991 31.7365 52.1218 32.4905 52.9406 32.9708C53.7594 33.4509 54.7214 33.6262 55.6568 33.4655C56.5923 33.3049 57.4409 32.8188 58.0526 32.0932C58.6645 31.3676 59 30.449 59 29.4999C59 28.5508 58.6645 27.6322 58.0526 26.9064C57.4409 26.1808 56.5923 25.6947 55.6568 25.5341C54.7214 25.3734 53.7594 25.5489 52.9406 26.029C52.1218 26.5091 51.4991 27.2631 51.1827 28.158H51.1887ZM4.0242 28.158C4.2896 28.158 4.54904 28.2367 4.76972 28.3841C4.9904 28.5315 5.16241 28.7412 5.26398 28.9864C5.36554 29.2315 5.39214 29.5013 5.34037 29.7617C5.28859 30.022 5.16081 30.261 4.97314 30.4486C4.78546 30.6363 4.54632 30.7643 4.286 30.816C4.0257 30.8678 3.75587 30.8412 3.51065 30.7397C3.26546 30.6381 3.05587 30.4661 2.90842 30.2454C2.76097 30.0246 2.68221 29.7653 2.68221 29.4999C2.68219 29.146 2.82199 28.8065 3.07106 28.5552C3.32014 28.3038 3.65835 28.1612 4.01216 28.158H4.0242ZM54.9802 28.158C55.2458 28.1576 55.5051 28.2359 55.7262 28.3831C55.9472 28.5303 56.1194 28.7398 56.2214 28.985C56.3231 29.2301 56.35 29.4999 56.2985 29.7605C56.247 30.0208 56.1194 30.2602 55.9317 30.448C55.7441 30.6359 55.5051 30.7639 55.2448 30.8158C54.9844 30.8678 54.7144 30.8414 54.469 30.7399C54.2237 30.6383 54.014 30.4663 53.8664 30.2456C53.7189 30.0248 53.6402 29.7653 53.6402 29.4999C53.64 29.1454 53.7804 28.8053 54.0304 28.5538C54.2804 28.3024 54.6196 28.16 54.9742 28.158H54.9802ZM49.6164 18.5443V21.4565H40.2248C40.0443 21.4495 39.8642 21.4789 39.6954 21.5432C39.5267 21.6075 39.3725 21.705 39.2425 21.8304C39.1123 21.9556 39.0088 22.1058 38.9381 22.2718C38.8674 22.4381 38.8309 22.6167 38.8309 22.7974C38.8309 22.9778 38.8674 23.1567 38.9381 23.3227C39.0088 23.489 39.1123 23.6392 39.2425 23.7644C39.3725 23.8895 39.5267 23.9873 39.6954 24.0514C39.8642 24.1157 40.0443 24.1453 40.2248 24.1383H49.6104C49.9627 24.1385 50.3114 24.0694 50.6369 23.9346C50.9625 23.8 51.2582 23.6023 51.5073 23.3534C51.7563 23.1042 51.9538 22.8086 52.0886 22.4829C52.2232 22.1575 52.2925 21.8086 52.2923 21.4565V18.5463C53.1872 18.23 53.9415 17.6074 54.4218 16.7887C54.9023 15.97 55.0777 15.0079 54.9173 14.0723C54.7566 13.1368 54.2705 12.2881 53.5449 11.6762C52.8192 11.0644 51.9005 10.7289 50.9513 10.7289C50.0019 10.7289 49.0834 11.0644 48.3578 11.6762C47.6319 12.2881 47.1458 13.1368 46.9854 14.0723C46.8249 15.0079 47.0004 15.97 47.4807 16.7887C47.961 17.6074 48.7155 18.23 49.6104 18.5463L49.6164 18.5443ZM6.70611 18.5443V21.4565C6.70585 21.8086 6.77505 22.1575 6.90973 22.4829C7.04442 22.8086 7.24195 23.1042 7.49105 23.3534C7.74013 23.6023 8.03586 23.8 8.36135 23.9346C8.68684 24.0694 9.03567 24.1385 9.38794 24.1383H18.7756C19.1222 24.1249 19.4502 23.9777 19.6908 23.7277C19.9313 23.4777 20.0657 23.1443 20.0657 22.7974C20.0657 22.4505 19.9313 22.117 19.6908 21.8669C19.4502 21.6169 19.1222 21.4699 18.7756 21.4565H9.38794V18.5443C10.2829 18.228 11.0372 17.6054 11.5176 16.7867C11.9979 15.968 12.1734 15.0059 12.0129 14.0703C11.8525 13.1348 11.3664 12.2861 10.6406 11.6742C9.9149 11.0624 8.99627 10.7269 8.04703 10.7269C7.0978 10.7269 6.17915 11.0624 5.45341 11.6742C4.72768 12.2861 4.24159 13.1348 4.08112 14.0703C3.92065 15.0059 4.09612 15.968 4.57646 16.7867C5.05682 17.6054 5.81113 18.228 6.70611 18.5443ZM28.1613 7.81706V17.4307C28.1613 17.7866 28.3025 18.1279 28.5542 18.3796C28.8058 18.6312 29.1473 18.7726 29.5032 18.7726C29.8591 18.7726 30.2004 18.6312 30.4522 18.3796C30.7037 18.1279 30.8452 17.7866 30.8452 17.4307V7.81706C31.7398 7.50053 32.4939 6.87787 32.974 6.05915C33.4543 5.24042 33.6296 4.27836 33.469 3.34293C33.3083 2.4075 32.8222 1.55892 32.0966 0.947195C31.3709 0.33547 30.4524 0 29.5032 0C28.554 0 27.6355 0.33547 26.9098 0.947195C26.184 1.55892 25.6979 2.4075 25.5373 3.34293C25.3768 4.27836 25.5519 5.24042 26.0322 6.05915C26.5123 6.87787 27.2664 7.50053 28.1613 7.81706ZM8.048 13.411C8.3135 13.411 8.57308 13.4898 8.79382 13.6373C9.01454 13.7848 9.18647 13.9945 9.288 14.2398C9.3895 14.4852 9.41602 14.7551 9.36407 15.0154C9.31213 15.2758 9.18412 15.5149 8.99625 15.7025C8.80838 15.8901 8.56907 16.0177 8.30863 16.0693C8.0482 16.1208 7.77827 16.094 7.53309 15.9921C7.28793 15.8902 7.07847 15.7179 6.93126 15.497C6.78404 15.276 6.70573 15.0164 6.70611 14.7509C6.70611 14.396 6.84665 14.0556 7.09702 13.8041C7.34738 13.5526 7.68717 13.4106 8.04205 13.409L8.048 13.411ZM50.9583 13.411C51.2237 13.411 51.4833 13.4898 51.704 13.6373C51.9247 13.7848 52.0968 13.9945 52.1983 14.2398C52.2999 14.4852 52.3263 14.7551 52.2742 15.0154C52.2224 15.2758 52.0944 15.5149 51.9065 15.7025C51.7186 15.8901 51.4793 16.0177 51.2189 16.0693C50.9583 16.1208 50.6885 16.094 50.4434 15.9921C50.198 15.8902 49.9887 15.7179 49.8415 15.497C49.6943 15.276 49.616 15.0164 49.6164 14.7509C49.6164 14.396 49.7568 14.0556 50.0072 13.8041C50.2575 13.5526 50.5974 13.4106 50.9523 13.409L50.9583 13.411ZM29.5032 2.68375C29.7686 2.68375 30.0282 2.7625 30.2489 2.91003C30.4696 3.05758 30.6417 3.26728 30.7432 3.51261C30.8445 3.75792 30.871 4.02786 30.8191 4.28821C30.7672 4.54858 30.6393 4.78764 30.4514 4.97523C30.2635 5.16281 30.0242 5.29045 29.7638 5.34201C29.5032 5.39356 29.2334 5.36672 28.9883 5.26486C28.7431 5.16297 28.5336 4.99065 28.3864 4.76971C28.2392 4.54878 28.1609 4.28917 28.1613 4.02368C28.1613 3.66883 28.3019 3.32841 28.5522 3.07693C28.8026 2.82545 29.1423 2.68333 29.4972 2.68173L29.5032 2.68375Z" fill="white"/>
</svg>
