<svg width="120" height="119" viewBox="0 0 120 119" fill="none" xmlns="http://www.w3.org/2000/svg">
<path d="M102.627 17.244C92.2205 6.84286 78.1094 1 63.3961 1H57.3726C42.6581 1 28.5463 6.84532 18.1416 17.25C7.73689 27.6547 1.8916 41.7665 1.8916 56.481V62.5191C1.8916 77.2335 7.7369 91.3453 18.1416 101.75C28.5463 112.155 42.6581 118 57.3726 118H63.3962C78.1094 118 92.2205 112.157 102.627 101.756C113.041 91.3478 118.892 77.2279 118.892 62.5046V56.4955C118.892 41.7722 113.041 27.6523 102.627 17.244Z" fill="#192268" stroke="#25308A" stroke-width="2" stroke-miterlimit="10"/>
<path fill-rule="evenodd" clip-rule="evenodd" d="M93.437 37.9463C93.1831 38.2483 78.2058 51.2508 77.7827 51.6379C77.3596 52.0251 77.6937 51.9821 77.7774 52.3692C77.8611 52.7564 77.0105 53.5342 76.8404 53.7869C76.8073 53.8484 76.7919 53.9179 76.7958 53.9877C77.446 54.9224 79.5187 58.2086 79.0021 61.4545C80.4103 59.7518 81.3678 56.9217 81.4489 53.683C81.4578 53.9026 81.4667 54.1221 81.4667 54.3453C81.4667 60.2107 78.905 64.9648 75.7448 64.9648C73.9491 64.9648 72.3476 63.427 71.2992 61.0217L66.9927 64.4934C67.4727 65.4496 67.5485 66.3682 67.1396 66.5985C66.705 66.845 65.8926 66.215 65.3208 65.1915C64.9467 64.5176 64.7766 63.8473 64.8247 63.3938L64.6367 62.9242C55.9968 67.3441 34.4612 79.2963 33.3728 79.7587C32.0527 80.317 28.0917 81.3494 27.283 81.3494C26.4742 81.3494 53.3354 65.1772 53.9731 64.6619C54.2404 64.4477 54.0569 64.3787 53.6676 64.3787C53.1207 64.3787 52.1641 64.514 51.4685 64.5723C51.0053 64.6099 49.7565 64.7049 47.7551 64.9621C47.0276 65.0359 46.2967 65.0676 45.5657 65.0571C44.8416 65.0571 44.0515 65.0392 43.2971 65.0123C43.3616 65.1053 43.4188 65.2033 43.4681 65.3054C43.7602 65.9085 43.7531 66.5161 43.4547 66.663C43.1563 66.81 42.6771 66.4399 42.3859 65.8377C42.2486 65.5679 42.1758 65.2697 42.173 64.9666C40.8619 64.9039 39.8126 64.8268 39.622 64.7919C39.3022 64.7327 39.28 64.5947 39.1624 64.5947C39.0656 64.6089 38.9737 64.647 38.8952 64.7058C38.4694 64.9639 35.1907 67.328 34.1254 67.5861C33.2525 67.7967 31.749 68.2134 31.3072 68.2134C31.2093 68.2134 31.1629 68.1928 31.1861 68.1462C31.3143 67.889 37.927 63.0228 38.2993 62.4726C38.6449 61.9618 36.15 53.0763 36.468 52.371C36.655 51.9552 38.8489 51.206 39.3779 51.206C39.4501 51.206 39.4911 51.2203 39.4911 51.2517C39.4911 51.5089 43.0263 58.8601 43.5794 59.0322C43.5951 59.0342 43.611 59.0342 43.6266 59.0322C44.3971 59.0322 49.81 55.6268 50.3506 55.3301C50.8075 55.0819 53.3844 54.1598 53.8858 54.1651C53.9918 54.1651 54.0195 54.227 53.8858 54.304C52.7653 54.9573 50.2517 56.6341 51.2734 56.4772C51.2939 56.4772 51.912 56.4853 51.9583 56.4683C52.4117 56.307 55.6726 53.9716 59.1856 52.2205C61.2939 51.1701 63.6284 50.3385 64.0649 50.2632C64.4029 50.2045 64.7453 50.1746 65.0883 50.1736C66.9535 50.1736 68.5683 50.9927 69.2177 51.4211C69.2877 51.4391 69.3603 51.4454 69.4323 51.4399C69.6194 51.4399 69.9133 51.4247 70.2536 51.3996C70.9412 46.968 73.1377 43.7221 75.7475 43.7221C75.7956 43.7221 75.8365 43.7329 75.8864 43.7347C73.3924 43.9569 71.3438 47.1822 70.7835 51.3521C71.7633 51.2625 72.8856 51.1146 73.1359 50.9873C73.2036 50.9533 73.5679 50.6943 74.1353 50.2838C73.5376 49.1475 73.0789 47.78 73.2285 46.3703C74.3179 44.0214 76.346 43.3018 76.55 43.8413C75.2638 44.9517 75.1836 47.2907 75.4241 49.3447C79.7076 46.2018 88.5559 39.5998 89.3076 38.9733C90.0354 38.3675 92.3361 37.6506 93.1894 37.6506C93.4869 37.6506 93.6124 37.733 93.4397 37.9401L93.437 37.9463ZM64.9877 62.9789C65.0129 62.9464 65.043 62.918 65.0767 62.8947C65.482 62.6653 66.2151 63.2047 66.7744 64.1063L67.9484 61.3461C67.495 61.5002 66.4057 62.0236 64.8808 62.8006L64.9877 62.9789ZM57.6536 57.575C57.5894 57.4299 57.2973 55.763 57.2697 55.5605C57.2251 55.2298 56.8243 55.2513 56.7726 55.2549C56.5277 55.2898 54.781 56.1761 54.8255 56.5597C54.9101 57.1711 55.0435 57.7747 55.2246 58.3646C55.2538 58.4478 55.3062 58.5209 55.3755 58.5752C55.4448 58.6293 55.5281 58.6623 55.6156 58.6702C55.646 58.6703 55.6761 58.6652 55.7047 58.6549C55.8828 58.5904 57.1743 58.2068 57.5253 58.0903C57.8762 57.9738 57.7168 57.7202 57.6536 57.575ZM60.7229 54.08C60.2892 54.08 57.8424 54.5084 57.9796 55.2549C58.0686 55.7487 58.4017 57.4361 58.514 57.6145C58.5282 57.636 58.5879 57.6458 58.6841 57.6458C59.37 57.6458 61.766 56.8966 61.9343 56.6556C62.1258 56.3813 60.9367 54.2055 60.796 54.0925C60.7734 54.082 60.7477 54.0776 60.7229 54.08ZM66.933 50.8538C66.5767 50.7588 65.6949 50.6629 64.9841 50.6629C64.6091 50.6629 64.2822 50.6898 64.105 50.7525C63.5946 50.9452 63.2846 51.085 63.0513 51.3001C62.3993 51.9014 61.7099 52.7832 61.6929 53.3478C61.676 53.9124 62.8117 56.0713 63.0513 56.1681C63.1729 56.2182 63.3028 56.2453 63.4343 56.2478C63.5377 56.252 63.6402 56.2273 63.7305 56.1763C63.8207 56.1254 63.8952 56.0502 63.9455 55.9593C64.17 55.5721 68.2895 51.9946 68.6253 51.8978C68.9611 51.801 67.4763 50.9945 66.933 50.8493V50.8538ZM71.0347 60.3648C70.237 60.6733 69.4239 60.9398 68.5986 61.1633L67.3142 63.7505L71.1532 60.6561C71.114 60.5584 71.0721 60.4643 71.0347 60.3648ZM71.9735 59.9651L71.9842 59.9866L72.0546 59.9302C72.0296 59.9409 71.9993 59.9535 71.9708 59.9651H71.9735ZM72.1588 60.3316C73.1172 62.0675 74.4488 63.1447 75.9354 63.1447C76.0406 63.1409 76.1455 63.1315 76.2498 63.1169C77.3926 61.0799 77.1254 57.3752 76.8493 55.2764C76.8448 55.3418 76.8493 55.3947 76.8404 55.4646C76.7887 55.832 76.3184 56.4351 75.7109 57.0678C76.0904 57.8681 76.1563 58.6621 75.8624 58.8601C75.6183 59.017 75.2041 58.7176 74.8443 58.1719L72.1588 60.3316Z" fill="white"/>
</svg>
