<svg width="349" height="433" viewBox="0 0 349 433" fill="none" xmlns="http://www.w3.org/2000/svg">
<rect x="45.5" y="155.5" width="259" height="107" rx="11.5" fill="#192268" stroke="#25308A"/>
<path d="M312.5 248H332C340.284 248 347 254.716 347 263V293.75V333C347 353.987 329.987 371 309 371H264" stroke="#7579FF" stroke-width="3" stroke-linecap="round"/>
<path d="M36.5 248H17.5C9.21573 248 2.5 254.716 2.5 263V290.371V373C2.5 393.987 19.5132 411 40.5 411H48.5" stroke="#7579FF" stroke-width="3" stroke-linecap="round"/>
<path d="M117.551 212.808H110.879L109.775 216H106.247L112.271 199.224H116.183L122.207 216H118.655L117.551 212.808ZM116.639 210.12L114.215 203.112L111.791 210.12H116.639ZM129.066 216.216C127.978 216.216 127.002 216.024 126.138 215.64C125.274 215.24 124.586 214.704 124.074 214.032C123.578 213.36 123.306 212.616 123.258 211.8H126.642C126.706 212.312 126.954 212.736 127.386 213.072C127.834 213.408 128.386 213.576 129.042 213.576C129.682 213.576 130.178 213.448 130.53 213.192C130.898 212.936 131.082 212.608 131.082 212.208C131.082 211.776 130.858 211.456 130.41 211.248C129.978 211.024 129.282 210.784 128.322 210.528C127.33 210.288 126.514 210.04 125.874 209.784C125.25 209.528 124.706 209.136 124.242 208.608C123.794 208.08 123.57 207.368 123.57 206.472C123.57 205.736 123.778 205.064 124.194 204.456C124.626 203.848 125.234 203.368 126.018 203.016C126.818 202.664 127.754 202.488 128.826 202.488C130.41 202.488 131.674 202.888 132.618 203.688C133.562 204.472 134.082 205.536 134.178 206.88H130.962C130.914 206.352 130.69 205.936 130.29 205.632C129.906 205.312 129.386 205.152 128.73 205.152C128.122 205.152 127.65 205.264 127.314 205.488C126.994 205.712 126.834 206.024 126.834 206.424C126.834 206.872 127.058 207.216 127.506 207.456C127.954 207.68 128.65 207.912 129.594 208.152C130.554 208.392 131.346 208.64 131.97 208.896C132.594 209.152 133.13 209.552 133.578 210.096C134.042 210.624 134.282 211.328 134.298 212.208C134.298 212.976 134.082 213.664 133.65 214.272C133.234 214.88 132.626 215.36 131.826 215.712C131.042 216.048 130.122 216.216 129.066 216.216ZM141.664 216.216C140.576 216.216 139.6 216.024 138.736 215.64C137.872 215.24 137.184 214.704 136.672 214.032C136.176 213.36 135.904 212.616 135.856 211.8H139.24C139.304 212.312 139.552 212.736 139.984 213.072C140.432 213.408 140.984 213.576 141.64 213.576C142.28 213.576 142.776 213.448 143.128 213.192C143.496 212.936 143.68 212.608 143.68 212.208C143.68 211.776 143.456 211.456 143.008 211.248C142.576 211.024 141.88 210.784 140.92 210.528C139.928 210.288 139.112 210.04 138.472 209.784C137.848 209.528 137.304 209.136 136.84 208.608C136.392 208.08 136.168 207.368 136.168 206.472C136.168 205.736 136.376 205.064 136.792 204.456C137.224 203.848 137.832 203.368 138.616 203.016C139.416 202.664 140.352 202.488 141.424 202.488C143.008 202.488 144.272 202.888 145.216 203.688C146.16 204.472 146.68 205.536 146.776 206.88H143.56C143.512 206.352 143.288 205.936 142.888 205.632C142.504 205.312 141.984 205.152 141.328 205.152C140.72 205.152 140.248 205.264 139.912 205.488C139.592 205.712 139.432 206.024 139.432 206.424C139.432 206.872 139.656 207.216 140.104 207.456C140.552 207.68 141.248 207.912 142.192 208.152C143.152 208.392 143.944 208.64 144.568 208.896C145.192 209.152 145.728 209.552 146.176 210.096C146.64 210.624 146.88 211.328 146.896 212.208C146.896 212.976 146.68 213.664 146.248 214.272C145.832 214.88 145.224 215.36 144.424 215.712C143.64 216.048 142.72 216.216 141.664 216.216ZM161.535 209.064C161.535 209.544 161.503 209.976 161.439 210.36H151.719C151.799 211.32 152.135 212.072 152.727 212.616C153.319 213.16 154.047 213.432 154.911 213.432C156.159 213.432 157.047 212.896 157.575 211.824H161.199C160.815 213.104 160.079 214.16 158.991 214.992C157.903 215.808 156.567 216.216 154.983 216.216C153.703 216.216 152.551 215.936 151.527 215.376C150.519 214.8 149.727 213.992 149.151 212.952C148.591 211.912 148.311 210.712 148.311 209.352C148.311 207.976 148.591 206.768 149.151 205.728C149.711 204.688 150.495 203.888 151.503 203.328C152.511 202.768 153.671 202.488 154.983 202.488C156.247 202.488 157.375 202.76 158.367 203.304C159.375 203.848 160.151 204.624 160.695 205.632C161.255 206.624 161.535 207.768 161.535 209.064ZM158.055 208.104C158.039 207.24 157.727 206.552 157.119 206.04C156.511 205.512 155.767 205.248 154.887 205.248C154.055 205.248 153.351 205.504 152.775 206.016C152.215 206.512 151.871 207.208 151.743 208.104H158.055ZM167.419 205.464V211.896C167.419 212.344 167.523 212.672 167.731 212.88C167.955 213.072 168.323 213.168 168.835 213.168H170.395V216H168.283C165.451 216 164.035 214.624 164.035 211.872V205.464H162.451V202.704H164.035V199.416H167.419V202.704H170.395V205.464H167.419ZM177.42 216.216C176.332 216.216 175.356 216.024 174.492 215.64C173.628 215.24 172.94 214.704 172.428 214.032C171.932 213.36 171.66 212.616 171.612 211.8H174.996C175.06 212.312 175.308 212.736 175.74 213.072C176.188 213.408 176.74 213.576 177.396 213.576C178.036 213.576 178.532 213.448 178.884 213.192C179.252 212.936 179.436 212.608 179.436 212.208C179.436 211.776 179.212 211.456 178.764 211.248C178.332 211.024 177.636 210.784 176.676 210.528C175.684 210.288 174.868 210.04 174.228 209.784C173.604 209.528 173.06 209.136 172.596 208.608C172.148 208.08 171.924 207.368 171.924 206.472C171.924 205.736 172.132 205.064 172.548 204.456C172.98 203.848 173.588 203.368 174.372 203.016C175.172 202.664 176.108 202.488 177.18 202.488C178.764 202.488 180.028 202.888 180.972 203.688C181.916 204.472 182.436 205.536 182.532 206.88H179.316C179.268 206.352 179.044 205.936 178.644 205.632C178.26 205.312 177.74 205.152 177.084 205.152C176.476 205.152 176.004 205.264 175.668 205.488C175.348 205.712 175.188 206.024 175.188 206.424C175.188 206.872 175.412 207.216 175.86 207.456C176.308 207.68 177.004 207.912 177.948 208.152C178.908 208.392 179.7 208.64 180.324 208.896C180.948 209.152 181.484 209.552 181.932 210.096C182.396 210.624 182.636 211.328 182.652 212.208C182.652 212.976 182.436 213.664 182.004 214.272C181.588 214.88 180.98 215.36 180.18 215.712C179.396 216.048 178.476 216.216 177.42 216.216ZM204.497 216H201.137L193.529 204.504V216H190.169V199.224H193.529L201.137 210.744V199.224H204.497V216ZM217.681 199.248V201.96H210.697V206.256H216.049V208.92H210.697V216H207.337V199.248H217.681ZM230.984 199.248V201.96H226.52V216H223.16V201.96H218.696V199.248H230.984ZM238.043 216.216C236.955 216.216 235.979 216.024 235.115 215.64C234.251 215.24 233.563 214.704 233.051 214.032C232.555 213.36 232.283 212.616 232.235 211.8H235.619C235.683 212.312 235.931 212.736 236.363 213.072C236.811 213.408 237.363 213.576 238.019 213.576C238.659 213.576 239.155 213.448 239.507 213.192C239.875 212.936 240.059 212.608 240.059 212.208C240.059 211.776 239.835 211.456 239.387 211.248C238.955 211.024 238.259 210.784 237.299 210.528C236.307 210.288 235.491 210.04 234.851 209.784C234.227 209.528 233.683 209.136 233.219 208.608C232.771 208.08 232.547 207.368 232.547 206.472C232.547 205.736 232.755 205.064 233.171 204.456C233.603 203.848 234.211 203.368 234.995 203.016C235.795 202.664 236.731 202.488 237.803 202.488C239.387 202.488 240.651 202.888 241.595 203.688C242.539 204.472 243.059 205.536 243.155 206.88H239.939C239.891 206.352 239.667 205.936 239.267 205.632C238.883 205.312 238.363 205.152 237.707 205.152C237.099 205.152 236.627 205.264 236.291 205.488C235.971 205.712 235.811 206.024 235.811 206.424C235.811 206.872 236.035 207.216 236.483 207.456C236.931 207.68 237.627 207.912 238.571 208.152C239.531 208.392 240.323 208.64 240.947 208.896C241.571 209.152 242.107 209.552 242.555 210.096C243.019 210.624 243.259 211.328 243.275 212.208C243.275 212.976 243.059 213.664 242.627 214.272C242.211 214.88 241.603 215.36 240.803 215.712C240.019 216.048 239.099 216.216 238.043 216.216Z" fill="white"/>
<path d="M174 270L175 316" stroke="white" stroke-width="3" stroke-linecap="round" stroke-dasharray="6 6"/>
<path d="M118.546 327.252C118.546 327.775 118.42 328.265 118.168 328.722C117.926 329.179 117.538 329.548 117.006 329.828C116.484 330.108 115.821 330.248 115.018 330.248H113.38V334H111.42V324.228H115.018C115.774 324.228 116.418 324.359 116.95 324.62C117.482 324.881 117.879 325.241 118.14 325.698C118.411 326.155 118.546 326.673 118.546 327.252ZM114.934 328.666C115.476 328.666 115.877 328.545 116.138 328.302C116.4 328.05 116.53 327.7 116.53 327.252C116.53 326.3 115.998 325.824 114.934 325.824H113.38V328.666H114.934ZM121.618 327.448C121.87 327.037 122.196 326.715 122.598 326.482C123.008 326.249 123.475 326.132 123.998 326.132V328.19H123.48C122.864 328.19 122.397 328.335 122.08 328.624C121.772 328.913 121.618 329.417 121.618 330.136V334H119.658V326.244H121.618V327.448ZM128.482 334.126C127.735 334.126 127.063 333.963 126.466 333.636C125.869 333.3 125.397 332.829 125.052 332.222C124.716 331.615 124.548 330.915 124.548 330.122C124.548 329.329 124.721 328.629 125.066 328.022C125.421 327.415 125.901 326.949 126.508 326.622C127.115 326.286 127.791 326.118 128.538 326.118C129.285 326.118 129.961 326.286 130.568 326.622C131.175 326.949 131.651 327.415 131.996 328.022C132.351 328.629 132.528 329.329 132.528 330.122C132.528 330.915 132.346 331.615 131.982 332.222C131.627 332.829 131.142 333.3 130.526 333.636C129.919 333.963 129.238 334.126 128.482 334.126ZM128.482 332.418C128.837 332.418 129.168 332.334 129.476 332.166C129.793 331.989 130.045 331.727 130.232 331.382C130.419 331.037 130.512 330.617 130.512 330.122C130.512 329.385 130.316 328.82 129.924 328.428C129.541 328.027 129.07 327.826 128.51 327.826C127.95 327.826 127.479 328.027 127.096 328.428C126.723 328.82 126.536 329.385 126.536 330.122C126.536 330.859 126.718 331.429 127.082 331.83C127.455 332.222 127.922 332.418 128.482 332.418ZM137.13 334.126C136.383 334.126 135.711 333.963 135.114 333.636C134.516 333.3 134.045 332.829 133.7 332.222C133.364 331.615 133.196 330.915 133.196 330.122C133.196 329.329 133.368 328.629 133.714 328.022C134.068 327.415 134.549 326.949 135.156 326.622C135.762 326.286 136.439 326.118 137.186 326.118C137.932 326.118 138.609 326.286 139.216 326.622C139.822 326.949 140.298 327.415 140.644 328.022C140.998 328.629 141.176 329.329 141.176 330.122C141.176 330.915 140.994 331.615 140.63 332.222C140.275 332.829 139.79 333.3 139.174 333.636C138.567 333.963 137.886 334.126 137.13 334.126ZM137.13 332.418C137.484 332.418 137.816 332.334 138.124 332.166C138.441 331.989 138.693 331.727 138.88 331.382C139.066 331.037 139.16 330.617 139.16 330.122C139.16 329.385 138.964 328.82 138.572 328.428C138.189 328.027 137.718 327.826 137.158 327.826C136.598 327.826 136.126 328.027 135.744 328.428C135.37 328.82 135.184 329.385 135.184 330.122C135.184 330.859 135.366 331.429 135.73 331.83C136.103 332.222 136.57 332.418 137.13 332.418ZM145.889 327.854H144.531V334H142.543V327.854H141.661V326.244H142.543V325.852C142.543 324.9 142.814 324.2 143.355 323.752C143.897 323.304 144.713 323.094 145.805 323.122V324.774C145.329 324.765 144.998 324.844 144.811 325.012C144.625 325.18 144.531 325.483 144.531 325.922V326.244H145.889V327.854ZM153.38 334.126C152.633 334.126 151.961 333.963 151.364 333.636C150.766 333.3 150.295 332.829 149.95 332.222C149.614 331.615 149.446 330.915 149.446 330.122C149.446 329.329 149.618 328.629 149.964 328.022C150.318 327.415 150.799 326.949 151.406 326.622C152.012 326.286 152.689 326.118 153.436 326.118C154.182 326.118 154.859 326.286 155.466 326.622C156.072 326.949 156.548 327.415 156.894 328.022C157.248 328.629 157.426 329.329 157.426 330.122C157.426 330.915 157.244 331.615 156.88 332.222C156.525 332.829 156.04 333.3 155.424 333.636C154.817 333.963 154.136 334.126 153.38 334.126ZM153.38 332.418C153.734 332.418 154.066 332.334 154.374 332.166C154.691 331.989 154.943 331.727 155.13 331.382C155.316 331.037 155.41 330.617 155.41 330.122C155.41 329.385 155.214 328.82 154.822 328.428C154.439 328.027 153.968 327.826 153.408 327.826C152.848 327.826 152.376 328.027 151.994 328.428C151.62 328.82 151.434 329.385 151.434 330.122C151.434 330.859 151.616 331.429 151.98 331.83C152.353 332.222 152.82 332.418 153.38 332.418ZM162.139 327.854H160.781V334H158.793V327.854H157.911V326.244H158.793V325.852C158.793 324.9 159.064 324.2 159.605 323.752C160.147 323.304 160.963 323.094 162.055 323.122V324.774C161.579 324.765 161.248 324.844 161.061 325.012C160.875 325.18 160.781 325.483 160.781 325.922V326.244H162.139V327.854ZM169.629 334.126C168.883 334.126 168.211 333.963 167.613 333.636C167.016 333.3 166.545 332.829 166.199 332.222C165.863 331.615 165.695 330.915 165.695 330.122C165.695 329.329 165.868 328.629 166.213 328.022C166.568 327.415 167.049 326.949 167.655 326.622C168.262 326.286 168.939 326.118 169.685 326.118C170.432 326.118 171.109 326.286 171.715 326.622C172.322 326.949 172.798 327.415 173.143 328.022C173.498 328.629 173.675 329.329 173.675 330.122C173.675 330.915 173.493 331.615 173.129 332.222C172.775 332.829 172.289 333.3 171.673 333.636C171.067 333.963 170.385 334.126 169.629 334.126ZM169.629 332.418C169.984 332.418 170.315 332.334 170.623 332.166C170.941 331.989 171.193 331.727 171.379 331.382C171.566 331.037 171.659 330.617 171.659 330.122C171.659 329.385 171.463 328.82 171.071 328.428C170.689 328.027 170.217 327.826 169.657 327.826C169.097 327.826 168.626 328.027 168.243 328.428C167.87 328.82 167.683 329.385 167.683 330.122C167.683 330.859 167.865 331.429 168.229 331.83C168.603 332.222 169.069 332.418 169.629 332.418ZM185.585 326.244L183.317 334H181.203L179.789 328.582L178.375 334H176.247L173.965 326.244H175.953L177.325 332.152L178.809 326.244H180.881L182.337 332.138L183.709 326.244H185.585ZM190.664 326.132C191.588 326.132 192.334 326.426 192.904 327.014C193.473 327.593 193.758 328.405 193.758 329.45V334H191.798V329.716C191.798 329.1 191.644 328.629 191.336 328.302C191.028 327.966 190.608 327.798 190.076 327.798C189.534 327.798 189.105 327.966 188.788 328.302C188.48 328.629 188.326 329.1 188.326 329.716V334H186.366V326.244H188.326V327.21C188.587 326.874 188.918 326.613 189.32 326.426C189.73 326.23 190.178 326.132 190.664 326.132ZM202.551 329.954C202.551 330.234 202.533 330.486 202.495 330.71H196.825C196.872 331.27 197.068 331.709 197.413 332.026C197.759 332.343 198.183 332.502 198.687 332.502C199.415 332.502 199.933 332.189 200.241 331.564H202.355C202.131 332.311 201.702 332.927 201.067 333.412C200.433 333.888 199.653 334.126 198.729 334.126C197.983 334.126 197.311 333.963 196.713 333.636C196.125 333.3 195.663 332.829 195.327 332.222C195.001 331.615 194.837 330.915 194.837 330.122C194.837 329.319 195.001 328.615 195.327 328.008C195.654 327.401 196.111 326.935 196.699 326.608C197.287 326.281 197.964 326.118 198.729 326.118C199.467 326.118 200.125 326.277 200.703 326.594C201.291 326.911 201.744 327.364 202.061 327.952C202.388 328.531 202.551 329.198 202.551 329.954ZM200.521 329.394C200.512 328.89 200.33 328.489 199.975 328.19C199.621 327.882 199.187 327.728 198.673 327.728C198.188 327.728 197.777 327.877 197.441 328.176C197.115 328.465 196.914 328.871 196.839 329.394H200.521ZM205.662 327.448C205.914 327.037 206.241 326.715 206.642 326.482C207.053 326.249 207.519 326.132 208.042 326.132V328.19H207.524C206.908 328.19 206.441 328.335 206.124 328.624C205.816 328.913 205.662 329.417 205.662 330.136V334H203.702V326.244H205.662V327.448ZM212.05 334.126C211.416 334.126 210.846 334.014 210.342 333.79C209.838 333.557 209.437 333.244 209.138 332.852C208.849 332.46 208.69 332.026 208.662 331.55H210.636C210.674 331.849 210.818 332.096 211.07 332.292C211.332 332.488 211.654 332.586 212.036 332.586C212.41 332.586 212.699 332.511 212.904 332.362C213.119 332.213 213.226 332.021 213.226 331.788C213.226 331.536 213.096 331.349 212.834 331.228C212.582 331.097 212.176 330.957 211.616 330.808C211.038 330.668 210.562 330.523 210.188 330.374C209.824 330.225 209.507 329.996 209.236 329.688C208.975 329.38 208.844 328.965 208.844 328.442C208.844 328.013 208.966 327.621 209.208 327.266C209.46 326.911 209.815 326.631 210.272 326.426C210.739 326.221 211.285 326.118 211.91 326.118C212.834 326.118 213.572 326.351 214.122 326.818C214.673 327.275 214.976 327.896 215.032 328.68H213.156C213.128 328.372 212.998 328.129 212.764 327.952C212.54 327.765 212.237 327.672 211.854 327.672C211.5 327.672 211.224 327.737 211.028 327.868C210.842 327.999 210.748 328.181 210.748 328.414C210.748 328.675 210.879 328.876 211.14 329.016C211.402 329.147 211.808 329.282 212.358 329.422C212.918 329.562 213.38 329.707 213.744 329.856C214.108 330.005 214.421 330.239 214.682 330.556C214.953 330.864 215.093 331.275 215.102 331.788C215.102 332.236 214.976 332.637 214.724 332.992C214.482 333.347 214.127 333.627 213.66 333.832C213.203 334.028 212.666 334.126 212.05 334.126ZM220.799 326.132C221.387 326.132 221.91 326.263 222.367 326.524C222.824 326.776 223.179 327.154 223.431 327.658C223.692 328.153 223.823 328.75 223.823 329.45V334H221.863V329.716C221.863 329.1 221.709 328.629 221.401 328.302C221.093 327.966 220.673 327.798 220.141 327.798C219.6 327.798 219.17 327.966 218.853 328.302C218.545 328.629 218.391 329.1 218.391 329.716V334H216.431V323.64H218.391V327.21C218.643 326.874 218.979 326.613 219.399 326.426C219.819 326.23 220.286 326.132 220.799 326.132ZM226.401 325.32C226.056 325.32 225.766 325.213 225.533 324.998C225.309 324.774 225.197 324.499 225.197 324.172C225.197 323.845 225.309 323.575 225.533 323.36C225.766 323.136 226.056 323.024 226.401 323.024C226.746 323.024 227.031 323.136 227.255 323.36C227.488 323.575 227.605 323.845 227.605 324.172C227.605 324.499 227.488 324.774 227.255 324.998C227.031 325.213 226.746 325.32 226.401 325.32ZM227.367 326.244V334H225.407V326.244H227.367ZM230.983 327.364C231.235 327.009 231.581 326.715 232.019 326.482C232.467 326.239 232.976 326.118 233.545 326.118C234.208 326.118 234.805 326.281 235.337 326.608C235.879 326.935 236.303 327.401 236.611 328.008C236.929 328.605 237.087 329.301 237.087 330.094C237.087 330.887 236.929 331.592 236.611 332.208C236.303 332.815 235.879 333.286 235.337 333.622C234.805 333.958 234.208 334.126 233.545 334.126C232.976 334.126 232.472 334.009 232.033 333.776C231.604 333.543 231.254 333.249 230.983 332.894V337.696H229.023V326.244H230.983V327.364ZM235.085 330.094C235.085 329.627 234.987 329.226 234.791 328.89C234.605 328.545 234.353 328.283 234.035 328.106C233.727 327.929 233.391 327.84 233.027 327.84C232.673 327.84 232.337 327.933 232.019 328.12C231.711 328.297 231.459 328.559 231.263 328.904C231.077 329.249 230.983 329.655 230.983 330.122C230.983 330.589 231.077 330.995 231.263 331.34C231.459 331.685 231.711 331.951 232.019 332.138C232.337 332.315 232.673 332.404 233.027 332.404C233.391 332.404 233.727 332.311 234.035 332.124C234.353 331.937 234.605 331.671 234.791 331.326C234.987 330.981 235.085 330.57 235.085 330.094Z" fill="white"/>
<path d="M109.462 376.098C108.781 376.098 108.165 375.981 107.614 375.748C107.073 375.515 106.644 375.179 106.326 374.74C106.009 374.301 105.846 373.783 105.836 373.186H107.936C107.964 373.587 108.104 373.905 108.356 374.138C108.618 374.371 108.972 374.488 109.42 374.488C109.878 374.488 110.237 374.381 110.498 374.166C110.76 373.942 110.89 373.653 110.89 373.298C110.89 373.009 110.802 372.771 110.624 372.584C110.447 372.397 110.223 372.253 109.952 372.15C109.691 372.038 109.327 371.917 108.86 371.786C108.226 371.599 107.708 371.417 107.306 371.24C106.914 371.053 106.574 370.778 106.284 370.414C106.004 370.041 105.864 369.546 105.864 368.93C105.864 368.351 106.009 367.847 106.298 367.418C106.588 366.989 106.994 366.662 107.516 366.438C108.039 366.205 108.636 366.088 109.308 366.088C110.316 366.088 111.133 366.335 111.758 366.83C112.393 367.315 112.743 367.997 112.808 368.874H110.652C110.634 368.538 110.489 368.263 110.218 368.048C109.957 367.824 109.607 367.712 109.168 367.712C108.786 367.712 108.478 367.81 108.244 368.006C108.02 368.202 107.908 368.487 107.908 368.86C107.908 369.121 107.992 369.341 108.16 369.518C108.338 369.686 108.552 369.826 108.804 369.938C109.066 370.041 109.43 370.162 109.896 370.302C110.531 370.489 111.049 370.675 111.45 370.862C111.852 371.049 112.197 371.329 112.486 371.702C112.776 372.075 112.92 372.565 112.92 373.172C112.92 373.695 112.785 374.18 112.514 374.628C112.244 375.076 111.847 375.435 111.324 375.706C110.802 375.967 110.181 376.098 109.462 376.098ZM116.299 369.364C116.551 369.009 116.897 368.715 117.335 368.482C117.783 368.239 118.292 368.118 118.861 368.118C119.524 368.118 120.121 368.281 120.653 368.608C121.195 368.935 121.619 369.401 121.927 370.008C122.245 370.605 122.403 371.301 122.403 372.094C122.403 372.887 122.245 373.592 121.927 374.208C121.619 374.815 121.195 375.286 120.653 375.622C120.121 375.958 119.524 376.126 118.861 376.126C118.292 376.126 117.788 376.009 117.349 375.776C116.92 375.543 116.57 375.249 116.299 374.894V379.696H114.339V368.244H116.299V369.364ZM120.401 372.094C120.401 371.627 120.303 371.226 120.107 370.89C119.921 370.545 119.669 370.283 119.351 370.106C119.043 369.929 118.707 369.84 118.343 369.84C117.989 369.84 117.653 369.933 117.335 370.12C117.027 370.297 116.775 370.559 116.579 370.904C116.393 371.249 116.299 371.655 116.299 372.122C116.299 372.589 116.393 372.995 116.579 373.34C116.775 373.685 117.027 373.951 117.335 374.138C117.653 374.315 117.989 374.404 118.343 374.404C118.707 374.404 119.043 374.311 119.351 374.124C119.669 373.937 119.921 373.671 120.107 373.326C120.303 372.981 120.401 372.57 120.401 372.094ZM130.758 371.954C130.758 372.234 130.739 372.486 130.702 372.71H125.032C125.078 373.27 125.274 373.709 125.62 374.026C125.965 374.343 126.39 374.502 126.894 374.502C127.622 374.502 128.14 374.189 128.448 373.564H130.562C130.338 374.311 129.908 374.927 129.274 375.412C128.639 375.888 127.86 376.126 126.936 376.126C126.189 376.126 125.517 375.963 124.92 375.636C124.332 375.3 123.87 374.829 123.534 374.222C123.207 373.615 123.044 372.915 123.044 372.122C123.044 371.319 123.207 370.615 123.534 370.008C123.86 369.401 124.318 368.935 124.906 368.608C125.494 368.281 126.17 368.118 126.936 368.118C127.673 368.118 128.331 368.277 128.91 368.594C129.498 368.911 129.95 369.364 130.268 369.952C130.594 370.531 130.758 371.198 130.758 371.954ZM128.728 371.394C128.718 370.89 128.536 370.489 128.182 370.19C127.827 369.882 127.393 369.728 126.88 369.728C126.394 369.728 125.984 369.877 125.648 370.176C125.321 370.465 125.12 370.871 125.046 371.394H128.728ZM131.404 372.122C131.404 371.319 131.568 370.619 131.894 370.022C132.221 369.415 132.674 368.949 133.252 368.622C133.831 368.286 134.494 368.118 135.24 368.118C136.202 368.118 136.995 368.361 137.62 368.846C138.255 369.322 138.68 369.994 138.894 370.862H136.78C136.668 370.526 136.477 370.265 136.206 370.078C135.945 369.882 135.618 369.784 135.226 369.784C134.666 369.784 134.223 369.989 133.896 370.4C133.57 370.801 133.406 371.375 133.406 372.122C133.406 372.859 133.57 373.433 133.896 373.844C134.223 374.245 134.666 374.446 135.226 374.446C136.02 374.446 136.538 374.091 136.78 373.382H138.894C138.68 374.222 138.255 374.889 137.62 375.384C136.986 375.879 136.192 376.126 135.24 376.126C134.494 376.126 133.831 375.963 133.252 375.636C132.674 375.3 132.221 374.833 131.894 374.236C131.568 373.629 131.404 372.925 131.404 372.122ZM143.018 376.126C142.384 376.126 141.814 376.014 141.31 375.79C140.806 375.557 140.405 375.244 140.106 374.852C139.817 374.46 139.658 374.026 139.63 373.55H141.604C141.642 373.849 141.786 374.096 142.038 374.292C142.3 374.488 142.622 374.586 143.004 374.586C143.378 374.586 143.667 374.511 143.872 374.362C144.087 374.213 144.194 374.021 144.194 373.788C144.194 373.536 144.064 373.349 143.802 373.228C143.55 373.097 143.144 372.957 142.584 372.808C142.006 372.668 141.53 372.523 141.156 372.374C140.792 372.225 140.475 371.996 140.204 371.688C139.943 371.38 139.812 370.965 139.812 370.442C139.812 370.013 139.934 369.621 140.176 369.266C140.428 368.911 140.783 368.631 141.24 368.426C141.707 368.221 142.253 368.118 142.878 368.118C143.802 368.118 144.54 368.351 145.09 368.818C145.641 369.275 145.944 369.896 146 370.68H144.124C144.096 370.372 143.966 370.129 143.732 369.952C143.508 369.765 143.205 369.672 142.822 369.672C142.468 369.672 142.192 369.737 141.996 369.868C141.81 369.999 141.716 370.181 141.716 370.414C141.716 370.675 141.847 370.876 142.108 371.016C142.37 371.147 142.776 371.282 143.326 371.422C143.886 371.562 144.348 371.707 144.712 371.856C145.076 372.005 145.389 372.239 145.65 372.556C145.921 372.864 146.061 373.275 146.07 373.788C146.07 374.236 145.944 374.637 145.692 374.992C145.45 375.347 145.095 375.627 144.628 375.832C144.171 376.028 143.634 376.126 143.018 376.126ZM157.973 376L156.909 374.95C156.004 375.762 154.898 376.168 153.591 376.168C152.872 376.168 152.238 376.047 151.687 375.804C151.146 375.552 150.726 375.202 150.427 374.754C150.128 374.297 149.979 373.769 149.979 373.172C149.979 372.528 150.161 371.949 150.525 371.436C150.889 370.923 151.426 370.507 152.135 370.19C151.883 369.882 151.701 369.588 151.589 369.308C151.477 369.019 151.421 368.711 151.421 368.384C151.421 367.936 151.538 367.535 151.771 367.18C152.004 366.816 152.336 366.531 152.765 366.326C153.204 366.121 153.712 366.018 154.291 366.018C154.879 366.018 155.383 366.13 155.803 366.354C156.223 366.578 156.536 366.877 156.741 367.25C156.946 367.623 157.035 368.039 157.007 368.496H155.103C155.112 368.188 155.038 367.955 154.879 367.796C154.72 367.628 154.506 367.544 154.235 367.544C153.974 367.544 153.754 367.623 153.577 367.782C153.409 367.931 153.325 368.127 153.325 368.37C153.325 368.603 153.395 368.837 153.535 369.07C153.675 369.294 153.904 369.574 154.221 369.91L156.685 372.346C156.704 372.327 156.718 372.309 156.727 372.29C156.736 372.271 156.746 372.253 156.755 372.234L157.553 370.904H159.597L158.617 372.626C158.43 372.99 158.23 373.335 158.015 373.662L160.381 376H157.973ZM153.647 374.544C154.412 374.544 155.089 374.273 155.677 373.732L153.269 371.352C152.364 371.753 151.911 372.323 151.911 373.06C151.911 373.48 152.07 373.835 152.387 374.124C152.704 374.404 153.124 374.544 153.647 374.544ZM166.059 366.228V372.276C166.059 372.939 166.232 373.447 166.577 373.802C166.923 374.147 167.408 374.32 168.033 374.32C168.668 374.32 169.158 374.147 169.503 373.802C169.849 373.447 170.021 372.939 170.021 372.276V366.228H171.995V372.262C171.995 373.093 171.813 373.797 171.449 374.376C171.095 374.945 170.614 375.375 170.007 375.664C169.41 375.953 168.743 376.098 168.005 376.098C167.277 376.098 166.615 375.953 166.017 375.664C165.429 375.375 164.963 374.945 164.617 374.376C164.272 373.797 164.099 373.093 164.099 372.262V366.228H166.059ZM176.577 376.126C175.943 376.126 175.373 376.014 174.869 375.79C174.365 375.557 173.964 375.244 173.665 374.852C173.376 374.46 173.217 374.026 173.189 373.55H175.163C175.201 373.849 175.345 374.096 175.597 374.292C175.859 374.488 176.181 374.586 176.563 374.586C176.937 374.586 177.226 374.511 177.431 374.362C177.646 374.213 177.753 374.021 177.753 373.788C177.753 373.536 177.623 373.349 177.361 373.228C177.109 373.097 176.703 372.957 176.143 372.808C175.565 372.668 175.089 372.523 174.715 372.374C174.351 372.225 174.034 371.996 173.763 371.688C173.502 371.38 173.371 370.965 173.371 370.442C173.371 370.013 173.493 369.621 173.735 369.266C173.987 368.911 174.342 368.631 174.799 368.426C175.266 368.221 175.812 368.118 176.437 368.118C177.361 368.118 178.099 368.351 178.649 368.818C179.2 369.275 179.503 369.896 179.559 370.68H177.683C177.655 370.372 177.525 370.129 177.291 369.952C177.067 369.765 176.764 369.672 176.381 369.672C176.027 369.672 175.751 369.737 175.555 369.868C175.369 369.999 175.275 370.181 175.275 370.414C175.275 370.675 175.406 370.876 175.667 371.016C175.929 371.147 176.335 371.282 176.885 371.422C177.445 371.562 177.907 371.707 178.271 371.856C178.635 372.005 178.948 372.239 179.209 372.556C179.48 372.864 179.62 373.275 179.629 373.788C179.629 374.236 179.503 374.637 179.251 374.992C179.009 375.347 178.654 375.627 178.187 375.832C177.73 376.028 177.193 376.126 176.577 376.126ZM180.454 372.094C180.454 371.31 180.608 370.615 180.916 370.008C181.233 369.401 181.658 368.935 182.19 368.608C182.731 368.281 183.333 368.118 183.996 368.118C184.575 368.118 185.079 368.235 185.508 368.468C185.947 368.701 186.297 368.995 186.558 369.35V368.244H188.532V376H186.558V374.866C186.306 375.23 185.956 375.533 185.508 375.776C185.069 376.009 184.561 376.126 183.982 376.126C183.329 376.126 182.731 375.958 182.19 375.622C181.658 375.286 181.233 374.815 180.916 374.208C180.608 373.592 180.454 372.887 180.454 372.094ZM186.558 372.122C186.558 371.646 186.465 371.24 186.278 370.904C186.091 370.559 185.839 370.297 185.522 370.12C185.205 369.933 184.864 369.84 184.5 369.84C184.136 369.84 183.8 369.929 183.492 370.106C183.184 370.283 182.932 370.545 182.736 370.89C182.549 371.226 182.456 371.627 182.456 372.094C182.456 372.561 182.549 372.971 182.736 373.326C182.932 373.671 183.184 373.937 183.492 374.124C183.809 374.311 184.145 374.404 184.5 374.404C184.864 374.404 185.205 374.315 185.522 374.138C185.839 373.951 186.091 373.69 186.278 373.354C186.465 373.009 186.558 372.598 186.558 372.122ZM193.204 368.118C193.783 368.118 194.292 368.235 194.73 368.468C195.169 368.692 195.514 368.986 195.766 369.35V368.244H197.74V376.056C197.74 376.775 197.596 377.414 197.306 377.974C197.017 378.543 196.583 378.991 196.004 379.318C195.426 379.654 194.726 379.822 193.904 379.822C192.803 379.822 191.898 379.565 191.188 379.052C190.488 378.539 190.092 377.839 189.998 376.952H191.944C192.047 377.307 192.266 377.587 192.602 377.792C192.948 378.007 193.363 378.114 193.848 378.114C194.418 378.114 194.88 377.941 195.234 377.596C195.589 377.26 195.766 376.747 195.766 376.056V374.852C195.514 375.216 195.164 375.519 194.716 375.762C194.278 376.005 193.774 376.126 193.204 376.126C192.551 376.126 191.954 375.958 191.412 375.622C190.871 375.286 190.442 374.815 190.124 374.208C189.816 373.592 189.662 372.887 189.662 372.094C189.662 371.31 189.816 370.615 190.124 370.008C190.442 369.401 190.866 368.935 191.398 368.608C191.94 368.281 192.542 368.118 193.204 368.118ZM195.766 372.122C195.766 371.646 195.673 371.24 195.486 370.904C195.3 370.559 195.048 370.297 194.73 370.12C194.413 369.933 194.072 369.84 193.708 369.84C193.344 369.84 193.008 369.929 192.7 370.106C192.392 370.283 192.14 370.545 191.944 370.89C191.758 371.226 191.664 371.627 191.664 372.094C191.664 372.561 191.758 372.971 191.944 373.326C192.14 373.671 192.392 373.937 192.7 374.124C193.018 374.311 193.354 374.404 193.708 374.404C194.072 374.404 194.413 374.315 194.73 374.138C195.048 373.951 195.3 373.69 195.486 373.354C195.673 373.009 195.766 372.598 195.766 372.122ZM206.585 371.954C206.585 372.234 206.566 372.486 206.529 372.71H200.859C200.905 373.27 201.101 373.709 201.447 374.026C201.792 374.343 202.217 374.502 202.721 374.502C203.449 374.502 203.967 374.189 204.275 373.564H206.389C206.165 374.311 205.735 374.927 205.101 375.412C204.466 375.888 203.687 376.126 202.763 376.126C202.016 376.126 201.344 375.963 200.747 375.636C200.159 375.3 199.697 374.829 199.361 374.222C199.034 373.615 198.871 372.915 198.871 372.122C198.871 371.319 199.034 370.615 199.361 370.008C199.687 369.401 200.145 368.935 200.733 368.608C201.321 368.281 201.997 368.118 202.763 368.118C203.5 368.118 204.158 368.277 204.737 368.594C205.325 368.911 205.777 369.364 206.095 369.952C206.421 370.531 206.585 371.198 206.585 371.954ZM204.555 371.394C204.545 370.89 204.363 370.489 204.009 370.19C203.654 369.882 203.22 369.728 202.707 369.728C202.221 369.728 201.811 369.877 201.475 370.176C201.148 370.465 200.947 370.871 200.873 371.394H204.555ZM210.287 372.094C210.287 371.31 210.441 370.615 210.749 370.008C211.067 369.401 211.496 368.935 212.037 368.608C212.579 368.281 213.181 368.118 213.843 368.118C214.347 368.118 214.828 368.23 215.285 368.454C215.743 368.669 216.107 368.958 216.377 369.322V365.64H218.365V376H216.377V374.852C216.135 375.235 215.794 375.543 215.355 375.776C214.917 376.009 214.408 376.126 213.829 376.126C213.176 376.126 212.579 375.958 212.037 375.622C211.496 375.286 211.067 374.815 210.749 374.208C210.441 373.592 210.287 372.887 210.287 372.094ZM216.391 372.122C216.391 371.646 216.298 371.24 216.111 370.904C215.925 370.559 215.673 370.297 215.355 370.12C215.038 369.933 214.697 369.84 214.333 369.84C213.969 369.84 213.633 369.929 213.325 370.106C213.017 370.283 212.765 370.545 212.569 370.89C212.383 371.226 212.289 371.627 212.289 372.094C212.289 372.561 212.383 372.971 212.569 373.326C212.765 373.671 213.017 373.937 213.325 374.124C213.643 374.311 213.979 374.404 214.333 374.404C214.697 374.404 215.038 374.315 215.355 374.138C215.673 373.951 215.925 373.69 216.111 373.354C216.298 373.009 216.391 372.598 216.391 372.122ZM219.496 372.094C219.496 371.31 219.65 370.615 219.958 370.008C220.275 369.401 220.7 368.935 221.232 368.608C221.773 368.281 222.375 368.118 223.038 368.118C223.616 368.118 224.12 368.235 224.55 368.468C224.988 368.701 225.338 368.995 225.6 369.35V368.244H227.574V376H225.6V374.866C225.348 375.23 224.998 375.533 224.55 375.776C224.111 376.009 223.602 376.126 223.024 376.126C222.37 376.126 221.773 375.958 221.232 375.622C220.7 375.286 220.275 374.815 219.958 374.208C219.65 373.592 219.496 372.887 219.496 372.094ZM225.6 372.122C225.6 371.646 225.506 371.24 225.32 370.904C225.133 370.559 224.881 370.297 224.564 370.12C224.246 369.933 223.906 369.84 223.542 369.84C223.178 369.84 222.842 369.929 222.534 370.106C222.226 370.283 221.974 370.545 221.778 370.89C221.591 371.226 221.498 371.627 221.498 372.094C221.498 372.561 221.591 372.971 221.778 373.326C221.974 373.671 222.226 373.937 222.534 374.124C222.851 374.311 223.187 374.404 223.542 374.404C223.906 374.404 224.246 374.315 224.564 374.138C224.881 373.951 225.133 373.69 225.32 373.354C225.506 373.009 225.6 372.598 225.6 372.122ZM231.49 369.854V373.606C231.49 373.867 231.55 374.059 231.672 374.18C231.802 374.292 232.017 374.348 232.316 374.348H233.226V376H231.994C230.342 376 229.516 375.197 229.516 373.592V369.854H228.592V368.244H229.516V366.326H231.49V368.244H233.226V369.854H231.49ZM233.852 372.094C233.852 371.31 234.006 370.615 234.314 370.008C234.631 369.401 235.056 368.935 235.588 368.608C236.129 368.281 236.731 368.118 237.394 368.118C237.972 368.118 238.476 368.235 238.906 368.468C239.344 368.701 239.694 368.995 239.956 369.35V368.244H241.93V376H239.956V374.866C239.704 375.23 239.354 375.533 238.906 375.776C238.467 376.009 237.958 376.126 237.38 376.126C236.726 376.126 236.129 375.958 235.588 375.622C235.056 375.286 234.631 374.815 234.314 374.208C234.006 373.592 233.852 372.887 233.852 372.094ZM239.956 372.122C239.956 371.646 239.862 371.24 239.676 370.904C239.489 370.559 239.237 370.297 238.92 370.12C238.602 369.933 238.262 369.84 237.898 369.84C237.534 369.84 237.198 369.929 236.89 370.106C236.582 370.283 236.33 370.545 236.134 370.89C235.947 371.226 235.854 371.627 235.854 372.094C235.854 372.561 235.947 372.971 236.134 373.326C236.33 373.671 236.582 373.937 236.89 374.124C237.207 374.311 237.543 374.404 237.898 374.404C238.262 374.404 238.602 374.315 238.92 374.138C239.237 373.951 239.489 373.69 239.676 373.354C239.862 373.009 239.956 372.598 239.956 372.122Z" fill="white"/>
<path d="M81.9205 405.228V415H79.9605V408.644L77.3425 415H75.8585L73.2265 408.644V415H71.2665V405.228H73.4925L76.6005 412.494L79.7085 405.228H81.9205ZM83.0743 411.094C83.0743 410.31 83.2283 409.615 83.5363 409.008C83.8536 408.401 84.2783 407.935 84.8103 407.608C85.3516 407.281 85.9536 407.118 86.6163 407.118C87.195 407.118 87.699 407.235 88.1283 407.468C88.567 407.701 88.917 407.995 89.1783 408.35V407.244H91.1523V415H89.1783V413.866C88.9263 414.23 88.5763 414.533 88.1283 414.776C87.6896 415.009 87.181 415.126 86.6023 415.126C85.949 415.126 85.3516 414.958 84.8103 414.622C84.2783 414.286 83.8536 413.815 83.5363 413.208C83.2283 412.592 83.0743 411.887 83.0743 411.094ZM89.1783 411.122C89.1783 410.646 89.085 410.24 88.8983 409.904C88.7116 409.559 88.4596 409.297 88.1423 409.12C87.825 408.933 87.4843 408.84 87.1203 408.84C86.7563 408.84 86.4203 408.929 86.1123 409.106C85.8043 409.283 85.5523 409.545 85.3563 409.89C85.1696 410.226 85.0763 410.627 85.0763 411.094C85.0763 411.561 85.1696 411.971 85.3563 412.326C85.5523 412.671 85.8043 412.937 86.1123 413.124C86.4296 413.311 86.7656 413.404 87.1203 413.404C87.4843 413.404 87.825 413.315 88.1423 413.138C88.4596 412.951 88.7116 412.69 88.8983 412.354C89.085 412.009 89.1783 411.598 89.1783 411.122ZM93.7806 406.32C93.4353 406.32 93.1459 406.213 92.9126 405.998C92.6886 405.774 92.5766 405.499 92.5766 405.172C92.5766 404.845 92.6886 404.575 92.9126 404.36C93.1459 404.136 93.4353 404.024 93.7806 404.024C94.1259 404.024 94.4106 404.136 94.6346 404.36C94.8679 404.575 94.9846 404.845 94.9846 405.172C94.9846 405.499 94.8679 405.774 94.6346 405.998C94.4106 406.213 94.1259 406.32 93.7806 406.32ZM94.7466 407.244V415H92.7866V407.244H94.7466ZM100.701 407.132C101.625 407.132 102.372 407.426 102.941 408.014C103.51 408.593 103.795 409.405 103.795 410.45V415H101.835V410.716C101.835 410.1 101.681 409.629 101.373 409.302C101.065 408.966 100.645 408.798 100.113 408.798C99.5717 408.798 99.1424 408.966 98.8251 409.302C98.5171 409.629 98.3631 410.1 98.3631 410.716V415H96.4031V407.244H98.3631V408.21C98.6244 407.874 98.9557 407.613 99.3571 407.426C99.7677 407.23 100.216 407.132 100.701 407.132ZM107.661 408.854V412.606C107.661 412.867 107.722 413.059 107.843 413.18C107.974 413.292 108.188 413.348 108.487 413.348H109.397V415H108.165C106.513 415 105.687 414.197 105.687 412.592V408.854H104.763V407.244H105.687V405.326H107.661V407.244H109.397V408.854H107.661ZM117.737 410.954C117.737 411.234 117.718 411.486 117.681 411.71H112.011C112.057 412.27 112.253 412.709 112.599 413.026C112.944 413.343 113.369 413.502 113.873 413.502C114.601 413.502 115.119 413.189 115.427 412.564H117.541C117.317 413.311 116.887 413.927 116.253 414.412C115.618 414.888 114.839 415.126 113.915 415.126C113.168 415.126 112.496 414.963 111.899 414.636C111.311 414.3 110.849 413.829 110.513 413.222C110.186 412.615 110.023 411.915 110.023 411.122C110.023 410.319 110.186 409.615 110.513 409.008C110.839 408.401 111.297 407.935 111.885 407.608C112.473 407.281 113.149 407.118 113.915 407.118C114.652 407.118 115.31 407.277 115.889 407.594C116.477 407.911 116.929 408.364 117.247 408.952C117.573 409.531 117.737 410.198 117.737 410.954ZM115.707 410.394C115.697 409.89 115.515 409.489 115.161 409.19C114.806 408.882 114.372 408.728 113.859 408.728C113.373 408.728 112.963 408.877 112.627 409.176C112.3 409.465 112.099 409.871 112.025 410.394H115.707ZM123.185 407.132C124.109 407.132 124.856 407.426 125.425 408.014C125.995 408.593 126.279 409.405 126.279 410.45V415H124.319V410.716C124.319 410.1 124.165 409.629 123.857 409.302C123.549 408.966 123.129 408.798 122.597 408.798C122.056 408.798 121.627 408.966 121.309 409.302C121.001 409.629 120.847 410.1 120.847 410.716V415H118.887V407.244H120.847V408.21C121.109 407.874 121.44 407.613 121.841 407.426C122.252 407.23 122.7 407.132 123.185 407.132ZM127.359 411.094C127.359 410.31 127.513 409.615 127.821 409.008C128.138 408.401 128.563 407.935 129.095 407.608C129.636 407.281 130.238 407.118 130.901 407.118C131.48 407.118 131.984 407.235 132.413 407.468C132.852 407.701 133.202 407.995 133.463 408.35V407.244H135.437V415H133.463V413.866C133.211 414.23 132.861 414.533 132.413 414.776C131.974 415.009 131.466 415.126 130.887 415.126C130.234 415.126 129.636 414.958 129.095 414.622C128.563 414.286 128.138 413.815 127.821 413.208C127.513 412.592 127.359 411.887 127.359 411.094ZM133.463 411.122C133.463 410.646 133.37 410.24 133.183 409.904C132.996 409.559 132.744 409.297 132.427 409.12C132.11 408.933 131.769 408.84 131.405 408.84C131.041 408.84 130.705 408.929 130.397 409.106C130.089 409.283 129.837 409.545 129.641 409.89C129.454 410.226 129.361 410.627 129.361 411.094C129.361 411.561 129.454 411.971 129.641 412.326C129.837 412.671 130.089 412.937 130.397 413.124C130.714 413.311 131.05 413.404 131.405 413.404C131.769 413.404 132.11 413.315 132.427 413.138C132.744 412.951 132.996 412.69 133.183 412.354C133.37 412.009 133.463 411.598 133.463 411.122ZM141.369 407.132C142.293 407.132 143.04 407.426 143.609 408.014C144.179 408.593 144.463 409.405 144.463 410.45V415H142.503V410.716C142.503 410.1 142.349 409.629 142.041 409.302C141.733 408.966 141.313 408.798 140.781 408.798C140.24 408.798 139.811 408.966 139.493 409.302C139.185 409.629 139.031 410.1 139.031 410.716V415H137.071V407.244H139.031V408.21C139.293 407.874 139.624 407.613 140.025 407.426C140.436 407.23 140.884 407.132 141.369 407.132ZM145.543 411.122C145.543 410.319 145.707 409.619 146.033 409.022C146.36 408.415 146.813 407.949 147.391 407.622C147.97 407.286 148.633 407.118 149.379 407.118C150.341 407.118 151.134 407.361 151.759 407.846C152.394 408.322 152.819 408.994 153.033 409.862H150.919C150.807 409.526 150.616 409.265 150.345 409.078C150.084 408.882 149.757 408.784 149.365 408.784C148.805 408.784 148.362 408.989 148.035 409.4C147.709 409.801 147.545 410.375 147.545 411.122C147.545 411.859 147.709 412.433 148.035 412.844C148.362 413.245 148.805 413.446 149.365 413.446C150.159 413.446 150.677 413.091 150.919 412.382H153.033C152.819 413.222 152.394 413.889 151.759 414.384C151.125 414.879 150.331 415.126 149.379 415.126C148.633 415.126 147.97 414.963 147.391 414.636C146.813 414.3 146.36 413.833 146.033 413.236C145.707 412.629 145.543 411.925 145.543 411.122ZM161.399 410.954C161.399 411.234 161.38 411.486 161.343 411.71H155.673C155.72 412.27 155.916 412.709 156.261 413.026C156.606 413.343 157.031 413.502 157.535 413.502C158.263 413.502 158.781 413.189 159.089 412.564H161.203C160.979 413.311 160.55 413.927 159.915 414.412C159.28 414.888 158.501 415.126 157.577 415.126C156.83 415.126 156.158 414.963 155.561 414.636C154.973 414.3 154.511 413.829 154.175 413.222C153.848 412.615 153.685 411.915 153.685 411.122C153.685 410.319 153.848 409.615 154.175 409.008C154.502 408.401 154.959 407.935 155.547 407.608C156.135 407.281 156.812 407.118 157.577 407.118C158.314 407.118 158.972 407.277 159.551 407.594C160.139 407.911 160.592 408.364 160.909 408.952C161.236 409.531 161.399 410.198 161.399 410.954ZM159.369 410.394C159.36 409.89 159.178 409.489 158.823 409.19C158.468 408.882 158.034 408.728 157.521 408.728C157.036 408.728 156.625 408.877 156.289 409.176C155.962 409.465 155.762 409.871 155.687 410.394H159.369ZM165.102 411.094C165.102 410.31 165.256 409.615 165.564 409.008C165.881 408.401 166.306 407.935 166.838 407.608C167.379 407.281 167.981 407.118 168.644 407.118C169.222 407.118 169.726 407.235 170.156 407.468C170.594 407.701 170.944 407.995 171.206 408.35V407.244H173.18V415H171.206V413.866C170.954 414.23 170.604 414.533 170.156 414.776C169.717 415.009 169.208 415.126 168.63 415.126C167.976 415.126 167.379 414.958 166.838 414.622C166.306 414.286 165.881 413.815 165.564 413.208C165.256 412.592 165.102 411.887 165.102 411.094ZM171.206 411.122C171.206 410.646 171.112 410.24 170.926 409.904C170.739 409.559 170.487 409.297 170.17 409.12C169.852 408.933 169.512 408.84 169.148 408.84C168.784 408.84 168.448 408.929 168.14 409.106C167.832 409.283 167.58 409.545 167.384 409.89C167.197 410.226 167.104 410.627 167.104 411.094C167.104 411.561 167.197 411.971 167.384 412.326C167.58 412.671 167.832 412.937 168.14 413.124C168.457 413.311 168.793 413.404 169.148 413.404C169.512 413.404 169.852 413.315 170.17 413.138C170.487 412.951 170.739 412.69 170.926 412.354C171.112 412.009 171.206 411.598 171.206 411.122ZM179.112 407.132C180.036 407.132 180.783 407.426 181.352 408.014C181.921 408.593 182.206 409.405 182.206 410.45V415H180.246V410.716C180.246 410.1 180.092 409.629 179.784 409.302C179.476 408.966 179.056 408.798 178.524 408.798C177.983 408.798 177.553 408.966 177.236 409.302C176.928 409.629 176.774 410.1 176.774 410.716V415H174.814V407.244H176.774V408.21C177.035 407.874 177.367 407.613 177.768 407.426C178.179 407.23 178.627 407.132 179.112 407.132ZM183.286 411.094C183.286 410.31 183.44 409.615 183.748 409.008C184.065 408.401 184.495 407.935 185.036 407.608C185.577 407.281 186.179 407.118 186.842 407.118C187.346 407.118 187.827 407.23 188.284 407.454C188.741 407.669 189.105 407.958 189.376 408.322V404.64H191.364V415H189.376V413.852C189.133 414.235 188.793 414.543 188.354 414.776C187.915 415.009 187.407 415.126 186.828 415.126C186.175 415.126 185.577 414.958 185.036 414.622C184.495 414.286 184.065 413.815 183.748 413.208C183.44 412.592 183.286 411.887 183.286 411.094ZM189.39 411.122C189.39 410.646 189.297 410.24 189.11 409.904C188.923 409.559 188.671 409.297 188.354 409.12C188.037 408.933 187.696 408.84 187.332 408.84C186.968 408.84 186.632 408.929 186.324 409.106C186.016 409.283 185.764 409.545 185.568 409.89C185.381 410.226 185.288 410.627 185.288 411.094C185.288 411.561 185.381 411.971 185.568 412.326C185.764 412.671 186.016 412.937 186.324 413.124C186.641 413.311 186.977 413.404 187.332 413.404C187.696 413.404 188.037 413.315 188.354 413.138C188.671 412.951 188.923 412.69 189.11 412.354C189.297 412.009 189.39 411.598 189.39 411.122ZM198.014 408.448C198.266 408.037 198.593 407.715 198.994 407.482C199.405 407.249 199.871 407.132 200.394 407.132V409.19H199.876C199.26 409.19 198.793 409.335 198.476 409.624C198.168 409.913 198.014 410.417 198.014 411.136V415H196.054V407.244H198.014V408.448ZM208.644 410.954C208.644 411.234 208.626 411.486 208.588 411.71H202.918C202.965 412.27 203.161 412.709 203.506 413.026C203.852 413.343 204.276 413.502 204.78 413.502C205.508 413.502 206.026 413.189 206.334 412.564H208.448C208.224 413.311 207.795 413.927 207.16 414.412C206.526 414.888 205.746 415.126 204.822 415.126C204.076 415.126 203.404 414.963 202.806 414.636C202.218 414.3 201.756 413.829 201.42 413.222C201.094 412.615 200.93 411.915 200.93 411.122C200.93 410.319 201.094 409.615 201.42 409.008C201.747 408.401 202.204 407.935 202.792 407.608C203.38 407.281 204.057 407.118 204.822 407.118C205.56 407.118 206.218 407.277 206.796 407.594C207.384 407.911 207.837 408.364 208.154 408.952C208.481 409.531 208.644 410.198 208.644 410.954ZM206.614 410.394C206.605 409.89 206.423 409.489 206.068 409.19C205.714 408.882 205.28 408.728 204.766 408.728C204.281 408.728 203.87 408.877 203.534 409.176C203.208 409.465 203.007 409.871 202.932 410.394H206.614ZM211.755 408.364C212.007 408.009 212.352 407.715 212.791 407.482C213.239 407.239 213.748 407.118 214.317 407.118C214.98 407.118 215.577 407.281 216.109 407.608C216.65 407.935 217.075 408.401 217.383 409.008C217.7 409.605 217.859 410.301 217.859 411.094C217.859 411.887 217.7 412.592 217.383 413.208C217.075 413.815 216.65 414.286 216.109 414.622C215.577 414.958 214.98 415.126 214.317 415.126C213.748 415.126 213.244 415.009 212.805 414.776C212.376 414.543 212.026 414.249 211.755 413.894V418.696H209.795V407.244H211.755V408.364ZM215.857 411.094C215.857 410.627 215.759 410.226 215.563 409.89C215.376 409.545 215.124 409.283 214.807 409.106C214.499 408.929 214.163 408.84 213.799 408.84C213.444 408.84 213.108 408.933 212.791 409.12C212.483 409.297 212.231 409.559 212.035 409.904C211.848 410.249 211.755 410.655 211.755 411.122C211.755 411.589 211.848 411.995 212.035 412.34C212.231 412.685 212.483 412.951 212.791 413.138C213.108 413.315 213.444 413.404 213.799 413.404C214.163 413.404 214.499 413.311 214.807 413.124C215.124 412.937 215.376 412.671 215.563 412.326C215.759 411.981 215.857 411.57 215.857 411.094ZM218.499 411.094C218.499 410.31 218.653 409.615 218.961 409.008C219.278 408.401 219.703 407.935 220.235 407.608C220.776 407.281 221.378 407.118 222.041 407.118C222.62 407.118 223.124 407.235 223.553 407.468C223.992 407.701 224.342 407.995 224.603 408.35V407.244H226.577V415H224.603V413.866C224.351 414.23 224.001 414.533 223.553 414.776C223.114 415.009 222.606 415.126 222.027 415.126C221.374 415.126 220.776 414.958 220.235 414.622C219.703 414.286 219.278 413.815 218.961 413.208C218.653 412.592 218.499 411.887 218.499 411.094ZM224.603 411.122C224.603 410.646 224.51 410.24 224.323 409.904C224.136 409.559 223.884 409.297 223.567 409.12C223.25 408.933 222.909 408.84 222.545 408.84C222.181 408.84 221.845 408.929 221.537 409.106C221.229 409.283 220.977 409.545 220.781 409.89C220.594 410.226 220.501 410.627 220.501 411.094C220.501 411.561 220.594 411.971 220.781 412.326C220.977 412.671 221.229 412.937 221.537 413.124C221.854 413.311 222.19 413.404 222.545 413.404C222.909 413.404 223.25 413.315 223.567 413.138C223.884 412.951 224.136 412.69 224.323 412.354C224.51 412.009 224.603 411.598 224.603 411.122ZM229.205 406.32C228.86 406.32 228.571 406.213 228.337 405.998C228.113 405.774 228.001 405.499 228.001 405.172C228.001 404.845 228.113 404.575 228.337 404.36C228.571 404.136 228.86 404.024 229.205 404.024C229.551 404.024 229.835 404.136 230.059 404.36C230.293 404.575 230.409 404.845 230.409 405.172C230.409 405.499 230.293 405.774 230.059 405.998C229.835 406.213 229.551 406.32 229.205 406.32ZM230.171 407.244V415H228.211V407.244H230.171ZM233.788 408.448C234.04 408.037 234.367 407.715 234.768 407.482C235.179 407.249 235.645 407.132 236.168 407.132V409.19H235.65C235.034 409.19 234.567 409.335 234.25 409.624C233.942 409.913 233.788 410.417 233.788 411.136V415H231.828V407.244H233.788V408.448ZM240.176 415.126C239.541 415.126 238.972 415.014 238.468 414.79C237.964 414.557 237.563 414.244 237.264 413.852C236.975 413.46 236.816 413.026 236.788 412.55H238.762C238.799 412.849 238.944 413.096 239.196 413.292C239.457 413.488 239.779 413.586 240.162 413.586C240.535 413.586 240.825 413.511 241.03 413.362C241.245 413.213 241.352 413.021 241.352 412.788C241.352 412.536 241.221 412.349 240.96 412.228C240.708 412.097 240.302 411.957 239.742 411.808C239.163 411.668 238.687 411.523 238.314 411.374C237.95 411.225 237.633 410.996 237.362 410.688C237.101 410.38 236.97 409.965 236.97 409.442C236.97 409.013 237.091 408.621 237.334 408.266C237.586 407.911 237.941 407.631 238.398 407.426C238.865 407.221 239.411 407.118 240.036 407.118C240.96 407.118 241.697 407.351 242.248 407.818C242.799 408.275 243.102 408.896 243.158 409.68H241.282C241.254 409.372 241.123 409.129 240.89 408.952C240.666 408.765 240.363 408.672 239.98 408.672C239.625 408.672 239.35 408.737 239.154 408.868C238.967 408.999 238.874 409.181 238.874 409.414C238.874 409.675 239.005 409.876 239.266 410.016C239.527 410.147 239.933 410.282 240.484 410.422C241.044 410.562 241.506 410.707 241.87 410.856C242.234 411.005 242.547 411.239 242.808 411.556C243.079 411.864 243.219 412.275 243.228 412.788C243.228 413.236 243.102 413.637 242.85 413.992C242.607 414.347 242.253 414.627 241.786 414.832C241.329 415.028 240.792 415.126 240.176 415.126ZM247.109 411.094C247.109 410.31 247.263 409.615 247.571 409.008C247.888 408.401 248.318 407.935 248.859 407.608C249.4 407.281 250.002 407.118 250.665 407.118C251.169 407.118 251.65 407.23 252.107 407.454C252.564 407.669 252.928 407.958 253.199 408.322V404.64H255.187V415H253.199V413.852C252.956 414.235 252.616 414.543 252.177 414.776C251.738 415.009 251.23 415.126 250.651 415.126C249.998 415.126 249.4 414.958 248.859 414.622C248.318 414.286 247.888 413.815 247.571 413.208C247.263 412.592 247.109 411.887 247.109 411.094ZM253.213 411.122C253.213 410.646 253.12 410.24 252.933 409.904C252.746 409.559 252.494 409.297 252.177 409.12C251.86 408.933 251.519 408.84 251.155 408.84C250.791 408.84 250.455 408.929 250.147 409.106C249.839 409.283 249.587 409.545 249.391 409.89C249.204 410.226 249.111 410.627 249.111 411.094C249.111 411.561 249.204 411.971 249.391 412.326C249.587 412.671 249.839 412.937 250.147 413.124C250.464 413.311 250.8 413.404 251.155 413.404C251.519 413.404 251.86 413.315 252.177 413.138C252.494 412.951 252.746 412.69 252.933 412.354C253.12 412.009 253.213 411.598 253.213 411.122ZM256.317 411.094C256.317 410.31 256.471 409.615 256.779 409.008C257.097 408.401 257.521 407.935 258.053 407.608C258.595 407.281 259.197 407.118 259.859 407.118C260.438 407.118 260.942 407.235 261.371 407.468C261.81 407.701 262.16 407.995 262.421 408.35V407.244H264.395V415H262.421V413.866C262.169 414.23 261.819 414.533 261.371 414.776C260.933 415.009 260.424 415.126 259.845 415.126C259.192 415.126 258.595 414.958 258.053 414.622C257.521 414.286 257.097 413.815 256.779 413.208C256.471 412.592 256.317 411.887 256.317 411.094ZM262.421 411.122C262.421 410.646 262.328 410.24 262.141 409.904C261.955 409.559 261.703 409.297 261.385 409.12C261.068 408.933 260.727 408.84 260.363 408.84C259.999 408.84 259.663 408.929 259.355 409.106C259.047 409.283 258.795 409.545 258.599 409.89C258.413 410.226 258.319 410.627 258.319 411.094C258.319 411.561 258.413 411.971 258.599 412.326C258.795 412.671 259.047 412.937 259.355 413.124C259.673 413.311 260.009 413.404 260.363 413.404C260.727 413.404 261.068 413.315 261.385 413.138C261.703 412.951 261.955 412.69 262.141 412.354C262.328 412.009 262.421 411.598 262.421 411.122ZM268.311 408.854V412.606C268.311 412.867 268.372 413.059 268.493 413.18C268.624 413.292 268.839 413.348 269.137 413.348H270.047V415H268.815C267.163 415 266.337 414.197 266.337 412.592V408.854H265.413V407.244H266.337V405.326H268.311V407.244H270.047V408.854H268.311ZM270.673 411.094C270.673 410.31 270.827 409.615 271.135 409.008C271.453 408.401 271.877 407.935 272.409 407.608C272.951 407.281 273.553 407.118 274.215 407.118C274.794 407.118 275.298 407.235 275.727 407.468C276.166 407.701 276.516 407.995 276.777 408.35V407.244H278.751V415H276.777V413.866C276.525 414.23 276.175 414.533 275.727 414.776C275.289 415.009 274.78 415.126 274.201 415.126C273.548 415.126 272.951 414.958 272.409 414.622C271.877 414.286 271.453 413.815 271.135 413.208C270.827 412.592 270.673 411.887 270.673 411.094ZM276.777 411.122C276.777 410.646 276.684 410.24 276.497 409.904C276.311 409.559 276.059 409.297 275.741 409.12C275.424 408.933 275.083 408.84 274.719 408.84C274.355 408.84 274.019 408.929 273.711 409.106C273.403 409.283 273.151 409.545 272.955 409.89C272.769 410.226 272.675 410.627 272.675 411.094C272.675 411.561 272.769 411.971 272.955 412.326C273.151 412.671 273.403 412.937 273.711 413.124C274.029 413.311 274.365 413.404 274.719 413.404C275.083 413.404 275.424 413.315 275.741 413.138C276.059 412.951 276.311 412.69 276.497 412.354C276.684 412.009 276.777 411.598 276.777 411.122Z" fill="white"/>
<path d="M101.595 4.228V14H99.6348V4.228H101.595ZM112.883 6.132C113.835 6.132 114.601 6.426 115.179 7.014C115.767 7.59267 116.061 8.40467 116.061 9.45V14H114.101V9.716C114.101 9.10933 113.947 8.64733 113.639 8.33C113.331 8.00333 112.911 7.84 112.379 7.84C111.847 7.84 111.423 8.00333 111.105 8.33C110.797 8.64733 110.643 9.10933 110.643 9.716V14H108.683V9.716C108.683 9.10933 108.529 8.64733 108.221 8.33C107.913 8.00333 107.493 7.84 106.961 7.84C106.42 7.84 105.991 8.00333 105.673 8.33C105.365 8.64733 105.211 9.10933 105.211 9.716V14H103.251V6.244H105.211V7.182C105.463 6.85533 105.785 6.59867 106.177 6.412C106.579 6.22533 107.017 6.132 107.493 6.132C108.1 6.132 108.641 6.26267 109.117 6.524C109.593 6.776 109.962 7.14 110.223 7.616C110.475 7.168 110.839 6.80867 111.315 6.538C111.801 6.26733 112.323 6.132 112.883 6.132ZM127.273 6.132C128.225 6.132 128.991 6.426 129.569 7.014C130.157 7.59267 130.451 8.40467 130.451 9.45V14H128.491V9.716C128.491 9.10933 128.337 8.64733 128.029 8.33C127.721 8.00333 127.301 7.84 126.769 7.84C126.237 7.84 125.813 8.00333 125.495 8.33C125.187 8.64733 125.033 9.10933 125.033 9.716V14H123.073V9.716C123.073 9.10933 122.919 8.64733 122.611 8.33C122.303 8.00333 121.883 7.84 121.351 7.84C120.81 7.84 120.381 8.00333 120.063 8.33C119.755 8.64733 119.601 9.10933 119.601 9.716V14H117.641V6.244H119.601V7.182C119.853 6.85533 120.175 6.59867 120.567 6.412C120.969 6.22533 121.407 6.132 121.883 6.132C122.49 6.132 123.031 6.26267 123.507 6.524C123.983 6.776 124.352 7.14 124.613 7.616C124.865 7.168 125.229 6.80867 125.705 6.538C126.191 6.26733 126.713 6.132 127.273 6.132ZM139.353 6.244V14H137.379V13.02C137.127 13.356 136.796 13.622 136.385 13.818C135.984 14.0047 135.545 14.098 135.069 14.098C134.462 14.098 133.926 13.972 133.459 13.72C132.992 13.4587 132.624 13.0807 132.353 12.586C132.092 12.082 131.961 11.4847 131.961 10.794V6.244H133.921V10.514C133.921 11.13 134.075 11.606 134.383 11.942C134.691 12.2687 135.111 12.432 135.643 12.432C136.184 12.432 136.609 12.2687 136.917 11.942C137.225 11.606 137.379 11.13 137.379 10.514V6.244H139.353ZM143.289 7.854V11.606C143.289 11.8673 143.35 12.0587 143.471 12.18C143.602 12.292 143.816 12.348 144.115 12.348H145.025V14H143.793C142.141 14 141.315 13.1973 141.315 11.592V7.854H140.391V6.244H141.315V4.326H143.289V6.244H145.025V7.854H143.289ZM145.651 10.094C145.651 9.31 145.805 8.61467 146.113 8.008C146.43 7.40133 146.855 6.93467 147.387 6.608C147.928 6.28133 148.53 6.118 149.193 6.118C149.771 6.118 150.275 6.23467 150.705 6.468C151.143 6.70133 151.493 6.99533 151.755 7.35V6.244H153.729V14H151.755V12.866C151.503 13.23 151.153 13.5333 150.705 13.776C150.266 14.0093 149.757 14.126 149.179 14.126C148.525 14.126 147.928 13.958 147.387 13.622C146.855 13.286 146.43 12.8147 146.113 12.208C145.805 11.592 145.651 10.8873 145.651 10.094ZM151.755 10.122C151.755 9.646 151.661 9.24 151.475 8.904C151.288 8.55867 151.036 8.29733 150.719 8.12C150.401 7.93333 150.061 7.84 149.697 7.84C149.333 7.84 148.997 7.92867 148.689 8.106C148.381 8.28333 148.129 8.54467 147.933 8.89C147.746 9.226 147.653 9.62733 147.653 10.094C147.653 10.5607 147.746 10.9713 147.933 11.326C148.129 11.6713 148.381 11.9373 148.689 12.124C149.006 12.3107 149.342 12.404 149.697 12.404C150.061 12.404 150.401 12.3153 150.719 12.138C151.036 11.9513 151.288 11.69 151.475 11.354C151.661 11.0087 151.755 10.598 151.755 10.122ZM157.323 7.378C157.575 7.00467 157.92 6.70133 158.359 6.468C158.807 6.23467 159.316 6.118 159.885 6.118C160.548 6.118 161.145 6.28133 161.677 6.608C162.218 6.93467 162.643 7.40133 162.951 8.008C163.268 8.60533 163.427 9.30067 163.427 10.094C163.427 10.8873 163.268 11.592 162.951 12.208C162.643 12.8147 162.218 13.286 161.677 13.622C161.145 13.958 160.548 14.126 159.885 14.126C159.306 14.126 158.798 14.014 158.359 13.79C157.93 13.5567 157.584 13.258 157.323 12.894V14H155.363V3.64H157.323V7.378ZM161.425 10.094C161.425 9.62733 161.327 9.226 161.131 8.89C160.944 8.54467 160.692 8.28333 160.375 8.106C160.067 7.92867 159.731 7.84 159.367 7.84C159.012 7.84 158.676 7.93333 158.359 8.12C158.051 8.29733 157.799 8.55867 157.603 8.904C157.416 9.24933 157.323 9.65533 157.323 10.122C157.323 10.5887 157.416 10.9947 157.603 11.34C157.799 11.6853 158.051 11.9513 158.359 12.138C158.676 12.3153 159.012 12.404 159.367 12.404C159.731 12.404 160.067 12.3107 160.375 12.124C160.692 11.9373 160.944 11.6713 161.131 11.326C161.327 10.9807 161.425 10.57 161.425 10.094ZM166.531 3.64V14H164.571V3.64H166.531ZM175.398 9.954C175.398 10.234 175.379 10.486 175.342 10.71H169.672C169.718 11.27 169.914 11.7087 170.26 12.026C170.605 12.3433 171.03 12.502 171.534 12.502C172.262 12.502 172.78 12.1893 173.088 11.564H175.202C174.978 12.3107 174.548 12.9267 173.914 13.412C173.279 13.888 172.5 14.126 171.576 14.126C170.829 14.126 170.157 13.9627 169.56 13.636C168.972 13.3 168.51 12.8287 168.174 12.222C167.847 11.6153 167.684 10.9153 167.684 10.122C167.684 9.31933 167.847 8.61467 168.174 8.008C168.5 7.40133 168.958 6.93467 169.546 6.608C170.134 6.28133 170.81 6.118 171.576 6.118C172.313 6.118 172.971 6.27667 173.55 6.594C174.138 6.91133 174.59 7.364 174.908 7.952C175.234 8.53067 175.398 9.198 175.398 9.954ZM173.368 9.394C173.358 8.89 173.176 8.48867 172.822 8.19C172.467 7.882 172.033 7.728 171.52 7.728C171.034 7.728 170.624 7.87733 170.288 8.176C169.961 8.46533 169.76 8.87133 169.686 9.394H173.368ZM181.564 3.64V14H179.604V3.64H181.564ZM190.431 9.954C190.431 10.234 190.412 10.486 190.375 10.71H184.705C184.751 11.27 184.947 11.7087 185.293 12.026C185.638 12.3433 186.063 12.502 186.567 12.502C187.295 12.502 187.813 12.1893 188.121 11.564H190.235C190.011 12.3107 189.581 12.9267 188.947 13.412C188.312 13.888 187.533 14.126 186.609 14.126C185.862 14.126 185.19 13.9627 184.593 13.636C184.005 13.3 183.543 12.8287 183.207 12.222C182.88 11.6153 182.717 10.9153 182.717 10.122C182.717 9.31933 182.88 8.61467 183.207 8.008C183.533 7.40133 183.991 6.93467 184.579 6.608C185.167 6.28133 185.843 6.118 186.609 6.118C187.346 6.118 188.004 6.27667 188.583 6.594C189.171 6.91133 189.623 7.364 189.941 7.952C190.267 8.53067 190.431 9.198 190.431 9.954ZM188.401 9.394C188.391 8.89 188.209 8.48867 187.855 8.19C187.5 7.882 187.066 7.728 186.553 7.728C186.067 7.728 185.657 7.87733 185.321 8.176C184.994 8.46533 184.793 8.87133 184.719 9.394H188.401ZM194.619 6.118C195.198 6.118 195.707 6.23467 196.145 6.468C196.584 6.692 196.929 6.986 197.181 7.35V6.244H199.155V14.056C199.155 14.7747 199.011 15.414 198.721 15.974C198.432 16.5433 197.998 16.9913 197.419 17.318C196.841 17.654 196.141 17.822 195.319 17.822C194.218 17.822 193.313 17.5653 192.603 17.052C191.903 16.5387 191.507 15.8387 191.413 14.952H193.359C193.462 15.3067 193.681 15.5867 194.017 15.792C194.363 16.0067 194.778 16.114 195.263 16.114C195.833 16.114 196.295 15.9413 196.649 15.596C197.004 15.26 197.181 14.7467 197.181 14.056V12.852C196.929 13.216 196.579 13.5193 196.131 13.762C195.693 14.0047 195.189 14.126 194.619 14.126C193.966 14.126 193.369 13.958 192.827 13.622C192.286 13.286 191.857 12.8147 191.539 12.208C191.231 11.592 191.077 10.8873 191.077 10.094C191.077 9.31 191.231 8.61467 191.539 8.008C191.857 7.40133 192.281 6.93467 192.813 6.608C193.355 6.28133 193.957 6.118 194.619 6.118ZM197.181 10.122C197.181 9.646 197.088 9.24 196.901 8.904C196.715 8.55867 196.463 8.29733 196.145 8.12C195.828 7.93333 195.487 7.84 195.123 7.84C194.759 7.84 194.423 7.92867 194.115 8.106C193.807 8.28333 193.555 8.54467 193.359 8.89C193.173 9.226 193.079 9.62733 193.079 10.094C193.079 10.5607 193.173 10.9713 193.359 11.326C193.555 11.6713 193.807 11.9373 194.115 12.124C194.433 12.3107 194.769 12.404 195.123 12.404C195.487 12.404 195.828 12.3153 196.145 12.138C196.463 11.9513 196.715 11.69 196.901 11.354C197.088 11.0087 197.181 10.598 197.181 10.122ZM200.286 10.094C200.286 9.31 200.44 8.61467 200.748 8.008C201.065 7.40133 201.49 6.93467 202.022 6.608C202.563 6.28133 203.165 6.118 203.828 6.118C204.406 6.118 204.91 6.23467 205.34 6.468C205.778 6.70133 206.128 6.99533 206.39 7.35V6.244H208.364V14H206.39V12.866C206.138 13.23 205.788 13.5333 205.34 13.776C204.901 14.0093 204.392 14.126 203.814 14.126C203.16 14.126 202.563 13.958 202.022 13.622C201.49 13.286 201.065 12.8147 200.748 12.208C200.44 11.592 200.286 10.8873 200.286 10.094ZM206.39 10.122C206.39 9.646 206.296 9.24 206.11 8.904C205.923 8.55867 205.671 8.29733 205.354 8.12C205.036 7.93333 204.696 7.84 204.332 7.84C203.968 7.84 203.632 7.92867 203.324 8.106C203.016 8.28333 202.764 8.54467 202.568 8.89C202.381 9.226 202.288 9.62733 202.288 10.094C202.288 10.5607 202.381 10.9713 202.568 11.326C202.764 11.6713 203.016 11.9373 203.324 12.124C203.641 12.3107 203.977 12.404 204.332 12.404C204.696 12.404 205.036 12.3153 205.354 12.138C205.671 11.9513 205.923 11.69 206.11 11.354C206.296 11.0087 206.39 10.598 206.39 10.122ZM211.958 3.64V14H209.998V3.64H211.958ZM216.166 10.094C216.166 9.31 216.32 8.61467 216.628 8.008C216.946 7.40133 217.375 6.93467 217.916 6.608C218.458 6.28133 219.06 6.118 219.722 6.118C220.226 6.118 220.707 6.23 221.164 6.454C221.622 6.66867 221.986 6.958 222.256 7.322V3.64H224.244V14H222.256V12.852C222.014 13.2347 221.673 13.5427 221.234 13.776C220.796 14.0093 220.287 14.126 219.708 14.126C219.055 14.126 218.458 13.958 217.916 13.622C217.375 13.286 216.946 12.8147 216.628 12.208C216.32 11.592 216.166 10.8873 216.166 10.094ZM222.27 10.122C222.27 9.646 222.177 9.24 221.99 8.904C221.804 8.55867 221.552 8.29733 221.234 8.12C220.917 7.93333 220.576 7.84 220.212 7.84C219.848 7.84 219.512 7.92867 219.204 8.106C218.896 8.28333 218.644 8.54467 218.448 8.89C218.262 9.226 218.168 9.62733 218.168 10.094C218.168 10.5607 218.262 10.9713 218.448 11.326C218.644 11.6713 218.896 11.9373 219.204 12.124C219.522 12.3107 219.858 12.404 220.212 12.404C220.576 12.404 220.917 12.3153 221.234 12.138C221.552 11.9513 221.804 11.69 221.99 11.354C222.177 11.0087 222.27 10.598 222.27 10.122ZM229.323 14.126C228.576 14.126 227.904 13.9627 227.307 13.636C226.709 13.3 226.238 12.8287 225.893 12.222C225.557 11.6153 225.389 10.9153 225.389 10.122C225.389 9.32867 225.561 8.62867 225.907 8.022C226.261 7.41533 226.742 6.94867 227.349 6.622C227.955 6.286 228.632 6.118 229.379 6.118C230.125 6.118 230.802 6.286 231.409 6.622C232.015 6.94867 232.491 7.41533 232.837 8.022C233.191 8.62867 233.369 9.32867 233.369 10.122C233.369 10.9153 233.187 11.6153 232.823 12.222C232.468 12.8287 231.983 13.3 231.367 13.636C230.76 13.9627 230.079 14.126 229.323 14.126ZM229.323 12.418C229.677 12.418 230.009 12.334 230.317 12.166C230.634 11.9887 230.886 11.7273 231.073 11.382C231.259 11.0367 231.353 10.6167 231.353 10.122C231.353 9.38467 231.157 8.82 230.765 8.428C230.382 8.02667 229.911 7.826 229.351 7.826C228.791 7.826 228.319 8.02667 227.937 8.428C227.563 8.82 227.377 9.38467 227.377 10.122C227.377 10.8593 227.559 11.4287 227.923 11.83C228.296 12.222 228.763 12.418 229.323 12.418ZM234.022 10.122C234.022 9.31933 234.186 8.61933 234.512 8.022C234.839 7.41533 235.292 6.94867 235.87 6.622C236.449 6.286 237.112 6.118 237.858 6.118C238.82 6.118 239.613 6.36067 240.238 6.846C240.873 7.322 241.298 7.994 241.512 8.862H239.398C239.286 8.526 239.095 8.26467 238.824 8.078C238.563 7.882 238.236 7.784 237.844 7.784C237.284 7.784 236.841 7.98933 236.514 8.4C236.188 8.80133 236.024 9.37533 236.024 10.122C236.024 10.8593 236.188 11.4333 236.514 11.844C236.841 12.2453 237.284 12.446 237.844 12.446C238.638 12.446 239.156 12.0913 239.398 11.382H241.512C241.298 12.222 240.873 12.8893 240.238 13.384C239.604 13.8787 238.81 14.126 237.858 14.126C237.112 14.126 236.449 13.9627 235.87 13.636C235.292 13.3 234.839 12.8333 234.512 12.236C234.186 11.6293 234.022 10.9247 234.022 10.122ZM245.636 14.126C245.002 14.126 244.432 14.014 243.928 13.79C243.424 13.5567 243.023 13.244 242.724 12.852C242.435 12.46 242.276 12.026 242.248 11.55H244.222C244.26 11.8487 244.404 12.096 244.656 12.292C244.918 12.488 245.24 12.586 245.622 12.586C245.996 12.586 246.285 12.5113 246.49 12.362C246.705 12.2127 246.812 12.0213 246.812 11.788C246.812 11.536 246.682 11.3493 246.42 11.228C246.168 11.0973 245.762 10.9573 245.202 10.808C244.624 10.668 244.148 10.5233 243.774 10.374C243.41 10.2247 243.093 9.996 242.822 9.688C242.561 9.38 242.43 8.96467 242.43 8.442C242.43 8.01267 242.552 7.62067 242.794 7.266C243.046 6.91133 243.401 6.63133 243.858 6.426C244.325 6.22067 244.871 6.118 245.496 6.118C246.42 6.118 247.158 6.35133 247.708 6.818C248.259 7.27533 248.562 7.896 248.618 8.68H246.742C246.714 8.372 246.584 8.12933 246.35 7.952C246.126 7.76533 245.823 7.672 245.44 7.672C245.086 7.672 244.81 7.73733 244.614 7.868C244.428 7.99867 244.334 8.18067 244.334 8.414C244.334 8.67533 244.465 8.876 244.726 9.016C244.988 9.14667 245.394 9.282 245.944 9.422C246.504 9.562 246.966 9.70667 247.33 9.856C247.694 10.0053 248.007 10.2387 248.268 10.556C248.539 10.864 248.679 11.2747 248.688 11.788C248.688 12.236 248.562 12.6373 248.31 12.992C248.068 13.3467 247.713 13.6267 247.246 13.832C246.789 14.028 246.252 14.126 245.636 14.126Z" fill="white"/>
<path d="M87.4731 53.098C86.5584 53.098 85.7184 52.8833 84.9531 52.454C84.1877 52.0247 83.5811 51.432 83.1331 50.676C82.6851 49.9107 82.4611 49.0473 82.4611 48.086C82.4611 47.134 82.6851 46.28 83.1331 45.524C83.5811 44.7587 84.1877 44.1613 84.9531 43.732C85.7184 43.3027 86.5584 43.088 87.4731 43.088C88.3971 43.088 89.2371 43.3027 89.9931 43.732C90.7584 44.1613 91.3604 44.7587 91.7991 45.524C92.2471 46.28 92.4711 47.134 92.4711 48.086C92.4711 49.0473 92.2471 49.9107 91.7991 50.676C91.3604 51.432 90.7584 52.0247 89.9931 52.454C89.2277 52.8833 88.3877 53.098 87.4731 53.098ZM87.4731 51.348C88.0611 51.348 88.5791 51.2173 89.0271 50.956C89.4751 50.6853 89.8251 50.3027 90.0771 49.808C90.3291 49.3133 90.4551 48.7393 90.4551 48.086C90.4551 47.4327 90.3291 46.8633 90.0771 46.378C89.8251 45.8833 89.4751 45.5053 89.0271 45.244C88.5791 44.9827 88.0611 44.852 87.4731 44.852C86.8851 44.852 86.3624 44.9827 85.9051 45.244C85.4571 45.5053 85.1071 45.8833 84.8551 46.378C84.6031 46.8633 84.4771 47.4327 84.4771 48.086C84.4771 48.7393 84.6031 49.3133 84.8551 49.808C85.1071 50.3027 85.4571 50.6853 85.9051 50.956C86.3624 51.2173 86.8851 51.348 87.4731 51.348ZM95.6092 46.364C95.8612 46.0093 96.2066 45.7153 96.6452 45.482C97.0932 45.2393 97.6019 45.118 98.1712 45.118C98.8339 45.118 99.4312 45.2813 99.9632 45.608C100.505 45.9347 100.929 46.4013 101.237 47.008C101.555 47.6053 101.713 48.3007 101.713 49.094C101.713 49.8873 101.555 50.592 101.237 51.208C100.929 51.8147 100.505 52.286 99.9632 52.622C99.4312 52.958 98.8339 53.126 98.1712 53.126C97.6019 53.126 97.0979 53.0093 96.6592 52.776C96.2299 52.5427 95.8799 52.2487 95.6092 51.894V56.696H93.6492V45.244H95.6092V46.364ZM99.7112 49.094C99.7112 48.6273 99.6132 48.226 99.4172 47.89C99.2306 47.5447 98.9786 47.2833 98.6612 47.106C98.3532 46.9287 98.0172 46.84 97.6532 46.84C97.2986 46.84 96.9626 46.9333 96.6452 47.12C96.3372 47.2973 96.0852 47.5587 95.8892 47.904C95.7026 48.2493 95.6092 48.6553 95.6092 49.122C95.6092 49.5887 95.7026 49.9947 95.8892 50.34C96.0852 50.6853 96.3372 50.9513 96.6452 51.138C96.9626 51.3153 97.2986 51.404 97.6532 51.404C98.0172 51.404 98.3532 51.3107 98.6612 51.124C98.9786 50.9373 99.2306 50.6713 99.4172 50.326C99.6132 49.9807 99.7112 49.57 99.7112 49.094ZM105.14 46.854V50.606C105.14 50.8673 105.2 51.0587 105.322 51.18C105.452 51.292 105.667 51.348 105.966 51.348H106.876V53H105.644C103.992 53 103.166 52.1973 103.166 50.592V46.854H102.242V45.244H103.166V43.326H105.14V45.244H106.876V46.854H105.14ZM108.999 44.32C108.654 44.32 108.365 44.2127 108.131 43.998C107.907 43.774 107.795 43.4987 107.795 43.172C107.795 42.8453 107.907 42.5747 108.131 42.36C108.365 42.136 108.654 42.024 108.999 42.024C109.345 42.024 109.629 42.136 109.853 42.36C110.087 42.5747 110.203 42.8453 110.203 43.172C110.203 43.4987 110.087 43.774 109.853 43.998C109.629 44.2127 109.345 44.32 108.999 44.32ZM109.965 45.244V53H108.005V45.244H109.965ZM115.066 53.126C114.319 53.126 113.647 52.9627 113.05 52.636C112.452 52.3 111.981 51.8287 111.636 51.222C111.3 50.6153 111.132 49.9153 111.132 49.122C111.132 48.3287 111.304 47.6287 111.65 47.022C112.004 46.4153 112.485 45.9487 113.092 45.622C113.698 45.286 114.375 45.118 115.122 45.118C115.868 45.118 116.545 45.286 117.152 45.622C117.758 45.9487 118.234 46.4153 118.58 47.022C118.934 47.6287 119.112 48.3287 119.112 49.122C119.112 49.9153 118.93 50.6153 118.566 51.222C118.211 51.8287 117.726 52.3 117.11 52.636C116.503 52.9627 115.822 53.126 115.066 53.126ZM115.066 51.418C115.42 51.418 115.752 51.334 116.06 51.166C116.377 50.9887 116.629 50.7273 116.816 50.382C117.002 50.0367 117.096 49.6167 117.096 49.122C117.096 48.3847 116.9 47.82 116.508 47.428C116.125 47.0267 115.654 46.826 115.094 46.826C114.534 46.826 114.062 47.0267 113.68 47.428C113.306 47.82 113.12 48.3847 113.12 49.122C113.12 49.8593 113.302 50.4287 113.666 50.83C114.039 51.222 114.506 51.418 115.066 51.418ZM124.567 45.132C125.491 45.132 126.238 45.426 126.807 46.014C127.377 46.5927 127.661 47.4047 127.661 48.45V53H125.701V48.716C125.701 48.1 125.547 47.6287 125.239 47.302C124.931 46.966 124.511 46.798 123.979 46.798C123.438 46.798 123.009 46.966 122.691 47.302C122.383 47.6287 122.229 48.1 122.229 48.716V53H120.269V45.244H122.229V46.21C122.491 45.874 122.822 45.6127 123.223 45.426C123.634 45.23 124.082 45.132 124.567 45.132ZM134.583 46.854V50.606C134.583 50.8673 134.644 51.0587 134.765 51.18C134.896 51.292 135.111 51.348 135.409 51.348H136.319V53H135.087C133.435 53 132.609 52.1973 132.609 50.592V46.854H131.685V45.244H132.609V43.326H134.583V45.244H136.319V46.854H134.583ZM140.893 53.126C140.146 53.126 139.474 52.9627 138.877 52.636C138.28 52.3 137.808 51.8287 137.463 51.222C137.127 50.6153 136.959 49.9153 136.959 49.122C136.959 48.3287 137.132 47.6287 137.477 47.022C137.832 46.4153 138.312 45.9487 138.919 45.622C139.526 45.286 140.202 45.118 140.949 45.118C141.696 45.118 142.372 45.286 142.979 45.622C143.586 45.9487 144.062 46.4153 144.407 47.022C144.762 47.6287 144.939 48.3287 144.939 49.122C144.939 49.9153 144.757 50.6153 144.393 51.222C144.038 51.8287 143.553 52.3 142.937 52.636C142.33 52.9627 141.649 53.126 140.893 53.126ZM140.893 51.418C141.248 51.418 141.579 51.334 141.887 51.166C142.204 50.9887 142.456 50.7273 142.643 50.382C142.83 50.0367 142.923 49.6167 142.923 49.122C142.923 48.3847 142.727 47.82 142.335 47.428C141.952 47.0267 141.481 46.826 140.921 46.826C140.361 46.826 139.89 47.0267 139.507 47.428C139.134 47.82 138.947 48.3847 138.947 49.122C138.947 49.8593 139.129 50.4287 139.493 50.83C139.866 51.222 140.333 51.418 140.893 51.418ZM152.121 53.126C151.486 53.126 150.917 53.014 150.413 52.79C149.909 52.5567 149.507 52.244 149.209 51.852C148.919 51.46 148.761 51.026 148.733 50.55H150.707C150.744 50.8487 150.889 51.096 151.141 51.292C151.402 51.488 151.724 51.586 152.107 51.586C152.48 51.586 152.769 51.5113 152.975 51.362C153.189 51.2127 153.297 51.0213 153.297 50.788C153.297 50.536 153.166 50.3493 152.905 50.228C152.653 50.0973 152.247 49.9573 151.687 49.808C151.108 49.668 150.632 49.5233 150.259 49.374C149.895 49.2247 149.577 48.996 149.307 48.688C149.045 48.38 148.915 47.9647 148.915 47.442C148.915 47.0127 149.036 46.6207 149.279 46.266C149.531 45.9113 149.885 45.6313 150.343 45.426C150.809 45.2207 151.355 45.118 151.981 45.118C152.905 45.118 153.642 45.3513 154.193 45.818C154.743 46.2753 155.047 46.896 155.103 47.68H153.227C153.199 47.372 153.068 47.1293 152.835 46.952C152.611 46.7653 152.307 46.672 151.925 46.672C151.57 46.672 151.295 46.7373 151.099 46.868C150.912 46.9987 150.819 47.1807 150.819 47.414C150.819 47.6753 150.949 47.876 151.211 48.016C151.472 48.1467 151.878 48.282 152.429 48.422C152.989 48.562 153.451 48.7067 153.815 48.856C154.179 49.0053 154.491 49.2387 154.753 49.556C155.023 49.864 155.163 50.2747 155.173 50.788C155.173 51.236 155.047 51.6373 154.795 51.992C154.552 52.3467 154.197 52.6267 153.731 52.832C153.273 53.028 152.737 53.126 152.121 53.126ZM163.712 48.954C163.712 49.234 163.693 49.486 163.656 49.71H157.986C158.032 50.27 158.228 50.7087 158.574 51.026C158.919 51.3433 159.344 51.502 159.848 51.502C160.576 51.502 161.094 51.1893 161.402 50.564H163.516C163.292 51.3107 162.862 51.9267 162.228 52.412C161.593 52.888 160.814 53.126 159.89 53.126C159.143 53.126 158.471 52.9627 157.874 52.636C157.286 52.3 156.824 51.8287 156.488 51.222C156.161 50.6153 155.998 49.9153 155.998 49.122C155.998 48.3193 156.161 47.6147 156.488 47.008C156.814 46.4013 157.272 45.9347 157.86 45.608C158.448 45.2813 159.124 45.118 159.89 45.118C160.627 45.118 161.285 45.2767 161.864 45.594C162.452 45.9113 162.904 46.364 163.222 46.952C163.548 47.5307 163.712 48.198 163.712 48.954ZM161.682 48.394C161.672 47.89 161.49 47.4887 161.136 47.19C160.781 46.882 160.347 46.728 159.834 46.728C159.348 46.728 158.938 46.8773 158.602 47.176C158.275 47.4653 158.074 47.8713 158 48.394H161.682ZM166.822 42.64V53H164.862V42.64H166.822ZM170.439 42.64V53H168.479V42.64H170.439ZM177.345 39.742L173.565 55.534H171.647L175.427 39.742H177.345ZM180.584 46.378C180.836 46.0047 181.181 45.7013 181.62 45.468C182.068 45.2347 182.576 45.118 183.146 45.118C183.808 45.118 184.406 45.2813 184.938 45.608C185.479 45.9347 185.904 46.4013 186.212 47.008C186.529 47.6053 186.688 48.3007 186.688 49.094C186.688 49.8873 186.529 50.592 186.212 51.208C185.904 51.8147 185.479 52.286 184.938 52.622C184.406 52.958 183.808 53.126 183.146 53.126C182.567 53.126 182.058 53.014 181.62 52.79C181.19 52.5567 180.845 52.258 180.584 51.894V53H178.624V42.64H180.584V46.378ZM184.686 49.094C184.686 48.6273 184.588 48.226 184.392 47.89C184.205 47.5447 183.953 47.2833 183.636 47.106C183.328 46.9287 182.992 46.84 182.628 46.84C182.273 46.84 181.937 46.9333 181.62 47.12C181.312 47.2973 181.06 47.5587 180.864 47.904C180.677 48.2493 180.584 48.6553 180.584 49.122C180.584 49.5887 180.677 49.9947 180.864 50.34C181.06 50.6853 181.312 50.9513 181.62 51.138C181.937 51.3153 182.273 51.404 182.628 51.404C182.992 51.404 183.328 51.3107 183.636 51.124C183.953 50.9373 184.205 50.6713 184.392 50.326C184.588 49.9807 184.686 49.57 184.686 49.094ZM195.154 45.244V53H193.18V52.02C192.928 52.356 192.597 52.622 192.186 52.818C191.785 53.0047 191.346 53.098 190.87 53.098C190.263 53.098 189.727 52.972 189.26 52.72C188.793 52.4587 188.425 52.0807 188.154 51.586C187.893 51.082 187.762 50.4847 187.762 49.794V45.244H189.722V49.514C189.722 50.13 189.876 50.606 190.184 50.942C190.492 51.2687 190.912 51.432 191.444 51.432C191.985 51.432 192.41 51.2687 192.718 50.942C193.026 50.606 193.18 50.13 193.18 49.514V45.244H195.154ZM204.228 45.244L199.426 56.668H197.34L199.02 52.804L195.912 45.244H198.11L200.112 50.662L202.142 45.244H204.228ZM207.556 49.094C207.556 48.31 207.71 47.6147 208.018 47.008C208.336 46.4013 208.76 45.9347 209.292 45.608C209.834 45.2813 210.436 45.118 211.098 45.118C211.677 45.118 212.181 45.2347 212.61 45.468C213.049 45.7013 213.399 45.9953 213.66 46.35V45.244H215.634V53H213.66V51.866C213.408 52.23 213.058 52.5333 212.61 52.776C212.172 53.0093 211.663 53.126 211.084 53.126C210.431 53.126 209.834 52.958 209.292 52.622C208.76 52.286 208.336 51.8147 208.018 51.208C207.71 50.592 207.556 49.8873 207.556 49.094ZM213.66 49.122C213.66 48.646 213.567 48.24 213.38 47.904C213.194 47.5587 212.942 47.2973 212.624 47.12C212.307 46.9333 211.966 46.84 211.602 46.84C211.238 46.84 210.902 46.9287 210.594 47.106C210.286 47.2833 210.034 47.5447 209.838 47.89C209.652 48.226 209.558 48.6273 209.558 49.094C209.558 49.5607 209.652 49.9713 209.838 50.326C210.034 50.6713 210.286 50.9373 210.594 51.124C210.912 51.3107 211.248 51.404 211.602 51.404C211.966 51.404 212.307 51.3153 212.624 51.138C212.942 50.9513 213.194 50.69 213.38 50.354C213.567 50.0087 213.66 49.598 213.66 49.122ZM221.567 45.132C222.491 45.132 223.237 45.426 223.807 46.014C224.376 46.5927 224.661 47.4047 224.661 48.45V53H222.701V48.716C222.701 48.1 222.547 47.6287 222.239 47.302C221.931 46.966 221.511 46.798 220.979 46.798C220.437 46.798 220.008 46.966 219.691 47.302C219.383 47.6287 219.229 48.1 219.229 48.716V53H217.269V45.244H219.229V46.21C219.49 45.874 219.821 45.6127 220.223 45.426C220.633 45.23 221.081 45.132 221.567 45.132ZM228.796 49.094C228.796 48.31 228.95 47.6147 229.258 47.008C229.576 46.4013 230 45.9347 230.532 45.608C231.074 45.2813 231.676 45.118 232.338 45.118C232.917 45.118 233.421 45.2347 233.85 45.468C234.289 45.7013 234.639 45.9953 234.9 46.35V45.244H236.874V53H234.9V51.866C234.648 52.23 234.298 52.5333 233.85 52.776C233.412 53.0093 232.903 53.126 232.324 53.126C231.671 53.126 231.074 52.958 230.532 52.622C230 52.286 229.576 51.8147 229.258 51.208C228.95 50.592 228.796 49.8873 228.796 49.094ZM234.9 49.122C234.9 48.646 234.807 48.24 234.62 47.904C234.434 47.5587 234.182 47.2973 233.864 47.12C233.547 46.9333 233.206 46.84 232.842 46.84C232.478 46.84 232.142 46.9287 231.834 47.106C231.526 47.2833 231.274 47.5447 231.078 47.89C230.892 48.226 230.798 48.6273 230.798 49.094C230.798 49.5607 230.892 49.9713 231.078 50.326C231.274 50.6713 231.526 50.9373 231.834 51.124C232.152 51.3107 232.488 51.404 232.842 51.404C233.206 51.404 233.547 51.3153 233.864 51.138C234.182 50.9513 234.434 50.69 234.62 50.354C234.807 50.0087 234.9 49.598 234.9 49.122ZM241.477 53.126C240.842 53.126 240.273 53.014 239.769 52.79C239.265 52.5567 238.863 52.244 238.565 51.852C238.275 51.46 238.117 51.026 238.089 50.55H240.063C240.1 50.8487 240.245 51.096 240.497 51.292C240.758 51.488 241.08 51.586 241.463 51.586C241.836 51.586 242.125 51.5113 242.331 51.362C242.545 51.2127 242.653 51.0213 242.653 50.788C242.653 50.536 242.522 50.3493 242.261 50.228C242.009 50.0973 241.603 49.9573 241.043 49.808C240.464 49.668 239.988 49.5233 239.615 49.374C239.251 49.2247 238.933 48.996 238.663 48.688C238.401 48.38 238.271 47.9647 238.271 47.442C238.271 47.0127 238.392 46.6207 238.635 46.266C238.887 45.9113 239.241 45.6313 239.699 45.426C240.165 45.2207 240.711 45.118 241.337 45.118C242.261 45.118 242.998 45.3513 243.549 45.818C244.099 46.2753 244.403 46.896 244.459 47.68H242.583C242.555 47.372 242.424 47.1293 242.191 46.952C241.967 46.7653 241.663 46.672 241.281 46.672C240.926 46.672 240.651 46.7373 240.455 46.868C240.268 46.9987 240.175 47.1807 240.175 47.414C240.175 47.6753 240.305 47.876 240.567 48.016C240.828 48.1467 241.234 48.282 241.785 48.422C242.345 48.562 242.807 48.7067 243.171 48.856C243.535 49.0053 243.847 49.2387 244.109 49.556C244.379 49.864 244.519 50.2747 244.529 50.788C244.529 51.236 244.403 51.6373 244.151 51.992C243.908 52.3467 243.553 52.6267 243.087 52.832C242.629 53.028 242.093 53.126 241.477 53.126ZM248.826 53.126C248.191 53.126 247.622 53.014 247.118 52.79C246.614 52.5567 246.212 52.244 245.914 51.852C245.624 51.46 245.466 51.026 245.438 50.55H247.412C247.449 50.8487 247.594 51.096 247.846 51.292C248.107 51.488 248.429 51.586 248.812 51.586C249.185 51.586 249.474 51.5113 249.68 51.362C249.894 51.2127 250.002 51.0213 250.002 50.788C250.002 50.536 249.871 50.3493 249.61 50.228C249.358 50.0973 248.952 49.9573 248.392 49.808C247.813 49.668 247.337 49.5233 246.964 49.374C246.6 49.2247 246.282 48.996 246.012 48.688C245.75 48.38 245.62 47.9647 245.62 47.442C245.62 47.0127 245.741 46.6207 245.984 46.266C246.236 45.9113 246.59 45.6313 247.048 45.426C247.514 45.2207 248.06 45.118 248.686 45.118C249.61 45.118 250.347 45.3513 250.898 45.818C251.448 46.2753 251.752 46.896 251.808 47.68H249.932C249.904 47.372 249.773 47.1293 249.54 46.952C249.316 46.7653 249.012 46.672 248.63 46.672C248.275 46.672 248 46.7373 247.804 46.868C247.617 46.9987 247.524 47.1807 247.524 47.414C247.524 47.6753 247.654 47.876 247.916 48.016C248.177 48.1467 248.583 48.282 249.134 48.422C249.694 48.562 250.156 48.7067 250.52 48.856C250.884 49.0053 251.196 49.2387 251.458 49.556C251.728 49.864 251.868 50.2747 251.878 50.788C251.878 51.236 251.752 51.6373 251.5 51.992C251.257 52.3467 250.902 52.6267 250.436 52.832C249.978 53.028 249.442 53.126 248.826 53.126ZM260.417 48.954C260.417 49.234 260.398 49.486 260.361 49.71H254.691C254.737 50.27 254.933 50.7087 255.279 51.026C255.624 51.3433 256.049 51.502 256.553 51.502C257.281 51.502 257.799 51.1893 258.107 50.564H260.221C259.997 51.3107 259.567 51.9267 258.933 52.412C258.298 52.888 257.519 53.126 256.595 53.126C255.848 53.126 255.176 52.9627 254.579 52.636C253.991 52.3 253.529 51.8287 253.193 51.222C252.866 50.6153 252.703 49.9153 252.703 49.122C252.703 48.3193 252.866 47.6147 253.193 47.008C253.519 46.4013 253.977 45.9347 254.565 45.608C255.153 45.2813 255.829 45.118 256.595 45.118C257.332 45.118 257.99 45.2767 258.569 45.594C259.157 45.9113 259.609 46.364 259.927 46.952C260.253 47.5307 260.417 48.198 260.417 48.954ZM258.387 48.394C258.377 47.89 258.195 47.4887 257.841 47.19C257.486 46.882 257.052 46.728 256.539 46.728C256.053 46.728 255.643 46.8773 255.307 47.176C254.98 47.4653 254.779 47.8713 254.705 48.394H258.387ZM263.849 46.854V50.606C263.849 50.8673 263.91 51.0587 264.031 51.18C264.162 51.292 264.377 51.348 264.675 51.348H265.585V53H264.353C262.701 53 261.875 52.1973 261.875 50.592V46.854H260.951V45.244H261.875V43.326H263.849V45.244H265.585V46.854H263.849Z" fill="white"/>
<path d="M112.923 82.252C112.923 82.7747 112.797 83.2647 112.545 83.722C112.302 84.1793 111.915 84.548 111.383 84.828C110.86 85.108 110.198 85.248 109.395 85.248H107.757V89H105.797V79.228H109.395C110.151 79.228 110.795 79.3587 111.327 79.62C111.859 79.8813 112.256 80.2407 112.517 80.698C112.788 81.1553 112.923 81.6733 112.923 82.252ZM109.311 83.666C109.852 83.666 110.254 83.5447 110.515 83.302C110.776 83.05 110.907 82.7 110.907 82.252C110.907 81.3 110.375 80.824 109.311 80.824H107.757V83.666H109.311ZM115.995 82.448C116.247 82.0373 116.573 81.7153 116.975 81.482C117.385 81.2487 117.852 81.132 118.375 81.132V83.19H117.857C117.241 83.19 116.774 83.3347 116.457 83.624C116.149 83.9133 115.995 84.4173 115.995 85.136V89H114.035V81.244H115.995V82.448ZM122.859 89.126C122.112 89.126 121.44 88.9627 120.843 88.636C120.245 88.3 119.774 87.8287 119.429 87.222C119.093 86.6153 118.925 85.9153 118.925 85.122C118.925 84.3287 119.097 83.6287 119.443 83.022C119.797 82.4153 120.278 81.9487 120.885 81.622C121.491 81.286 122.168 81.118 122.915 81.118C123.661 81.118 124.338 81.286 124.945 81.622C125.551 81.9487 126.027 82.4153 126.373 83.022C126.727 83.6287 126.905 84.3287 126.905 85.122C126.905 85.9153 126.723 86.6153 126.359 87.222C126.004 87.8287 125.519 88.3 124.903 88.636C124.296 88.9627 123.615 89.126 122.859 89.126ZM122.859 87.418C123.213 87.418 123.545 87.334 123.853 87.166C124.17 86.9887 124.422 86.7273 124.609 86.382C124.795 86.0367 124.889 85.6167 124.889 85.122C124.889 84.3847 124.693 83.82 124.301 83.428C123.918 83.0267 123.447 82.826 122.887 82.826C122.327 82.826 121.855 83.0267 121.473 83.428C121.099 83.82 120.913 84.3847 120.913 85.122C120.913 85.8593 121.095 86.4287 121.459 86.83C121.832 87.222 122.299 87.418 122.859 87.418ZM131.506 89.126C130.76 89.126 130.088 88.9627 129.49 88.636C128.893 88.3 128.422 87.8287 128.076 87.222C127.74 86.6153 127.572 85.9153 127.572 85.122C127.572 84.3287 127.745 83.6287 128.09 83.022C128.445 82.4153 128.926 81.9487 129.532 81.622C130.139 81.286 130.816 81.118 131.562 81.118C132.309 81.118 132.986 81.286 133.592 81.622C134.199 81.9487 134.675 82.4153 135.02 83.022C135.375 83.6287 135.552 84.3287 135.552 85.122C135.552 85.9153 135.37 86.6153 135.006 87.222C134.652 87.8287 134.166 88.3 133.55 88.636C132.944 88.9627 132.262 89.126 131.506 89.126ZM131.506 87.418C131.861 87.418 132.192 87.334 132.5 87.166C132.818 86.9887 133.07 86.7273 133.256 86.382C133.443 86.0367 133.536 85.6167 133.536 85.122C133.536 84.3847 133.34 83.82 132.948 83.428C132.566 83.0267 132.094 82.826 131.534 82.826C130.974 82.826 130.503 83.0267 130.12 83.428C129.747 83.82 129.56 84.3847 129.56 85.122C129.56 85.8593 129.742 86.4287 130.106 86.83C130.48 87.222 130.946 87.418 131.506 87.418ZM140.266 82.854H138.908V89H136.92V82.854H136.038V81.244H136.92V80.852C136.92 79.9 137.191 79.2 137.732 78.752C138.274 78.304 139.09 78.094 140.182 78.122V79.774C139.706 79.7647 139.375 79.844 139.188 80.012C139.002 80.18 138.908 80.4833 138.908 80.922V81.244H140.266V82.854ZM147.756 89.126C147.01 89.126 146.338 88.9627 145.74 88.636C145.143 88.3 144.672 87.8287 144.326 87.222C143.99 86.6153 143.822 85.9153 143.822 85.122C143.822 84.3287 143.995 83.6287 144.34 83.022C144.695 82.4153 145.176 81.9487 145.782 81.622C146.389 81.286 147.066 81.118 147.812 81.118C148.559 81.118 149.236 81.286 149.842 81.622C150.449 81.9487 150.925 82.4153 151.27 83.022C151.625 83.6287 151.802 84.3287 151.802 85.122C151.802 85.9153 151.62 86.6153 151.256 87.222C150.902 87.8287 150.416 88.3 149.8 88.636C149.194 88.9627 148.512 89.126 147.756 89.126ZM147.756 87.418C148.111 87.418 148.442 87.334 148.75 87.166C149.068 86.9887 149.32 86.7273 149.506 86.382C149.693 86.0367 149.786 85.6167 149.786 85.122C149.786 84.3847 149.59 83.82 149.198 83.428C148.816 83.0267 148.344 82.826 147.784 82.826C147.224 82.826 146.753 83.0267 146.37 83.428C145.997 83.82 145.81 84.3847 145.81 85.122C145.81 85.8593 145.992 86.4287 146.356 86.83C146.73 87.222 147.196 87.418 147.756 87.418ZM156.516 82.854H155.158V89H153.17V82.854H152.288V81.244H153.17V80.852C153.17 79.9 153.441 79.2 153.982 78.752C154.523 78.304 155.34 78.094 156.432 78.122V79.774C155.956 79.7647 155.625 79.844 155.438 80.012C155.251 80.18 155.158 80.4833 155.158 80.922V81.244H156.516V82.854ZM162.844 82.854V86.606C162.844 86.8673 162.905 87.0587 163.026 87.18C163.157 87.292 163.371 87.348 163.67 87.348H164.58V89H163.348C161.696 89 160.87 88.1973 160.87 86.592V82.854H159.946V81.244H160.87V79.326H162.844V81.244H164.58V82.854H162.844ZM166.704 80.32C166.359 80.32 166.069 80.2127 165.836 79.998C165.612 79.774 165.5 79.4987 165.5 79.172C165.5 78.8453 165.612 78.5747 165.836 78.36C166.069 78.136 166.359 78.024 166.704 78.024C167.049 78.024 167.334 78.136 167.558 78.36C167.791 78.5747 167.908 78.8453 167.908 79.172C167.908 79.4987 167.791 79.774 167.558 79.998C167.334 80.2127 167.049 80.32 166.704 80.32ZM167.67 81.244V89H165.71V81.244H167.67ZM171.608 82.854V86.606C171.608 86.8673 171.669 87.0587 171.79 87.18C171.921 87.292 172.136 87.348 172.434 87.348H173.344V89H172.112C170.46 89 169.634 88.1973 169.634 86.592V82.854H168.71V81.244H169.634V79.326H171.608V81.244H173.344V82.854H171.608ZM176.434 78.64V89H174.474V78.64H176.434ZM185.301 84.954C185.301 85.234 185.282 85.486 185.245 85.71H179.575C179.621 86.27 179.817 86.7087 180.163 87.026C180.508 87.3433 180.933 87.502 181.437 87.502C182.165 87.502 182.683 87.1893 182.991 86.564H185.105C184.881 87.3107 184.451 87.9267 183.817 88.412C183.182 88.888 182.403 89.126 181.479 89.126C180.732 89.126 180.06 88.9627 179.463 88.636C178.875 88.3 178.413 87.8287 178.077 87.222C177.75 86.6153 177.587 85.9153 177.587 85.122C177.587 84.3193 177.75 83.6147 178.077 83.008C178.403 82.4013 178.861 81.9347 179.449 81.608C180.037 81.2813 180.713 81.118 181.479 81.118C182.216 81.118 182.874 81.2767 183.453 81.594C184.041 81.9113 184.493 82.364 184.811 82.952C185.137 83.5307 185.301 84.198 185.301 84.954ZM183.271 84.394C183.261 83.89 183.079 83.4887 182.725 83.19C182.37 82.882 181.936 82.728 181.423 82.728C180.937 82.728 180.527 82.8773 180.191 83.176C179.864 83.4653 179.663 83.8713 179.589 84.394H183.271ZM191.789 82.854V86.606C191.789 86.8673 191.85 87.0587 191.971 87.18C192.102 87.292 192.316 87.348 192.615 87.348H193.525V89H192.293C190.641 89 189.815 88.1973 189.815 86.592V82.854H188.891V81.244H189.815V79.326H191.789V81.244H193.525V82.854H191.789ZM196.615 82.448C196.867 82.0373 197.194 81.7153 197.595 81.482C198.006 81.2487 198.472 81.132 198.995 81.132V83.19H198.477C197.861 83.19 197.394 83.3347 197.077 83.624C196.769 83.9133 196.615 84.4173 196.615 85.136V89H194.655V81.244H196.615V82.448ZM199.531 85.094C199.531 84.31 199.685 83.6147 199.993 83.008C200.31 82.4013 200.735 81.9347 201.267 81.608C201.808 81.2813 202.41 81.118 203.073 81.118C203.652 81.118 204.156 81.2347 204.585 81.468C205.024 81.7013 205.374 81.9953 205.635 82.35V81.244H207.609V89H205.635V87.866C205.383 88.23 205.033 88.5333 204.585 88.776C204.146 89.0093 203.638 89.126 203.059 89.126C202.406 89.126 201.808 88.958 201.267 88.622C200.735 88.286 200.31 87.8147 199.993 87.208C199.685 86.592 199.531 85.8873 199.531 85.094ZM205.635 85.122C205.635 84.646 205.542 84.24 205.355 83.904C205.168 83.5587 204.916 83.2973 204.599 83.12C204.282 82.9333 203.941 82.84 203.577 82.84C203.213 82.84 202.877 82.9287 202.569 83.106C202.261 83.2833 202.009 83.5447 201.813 83.89C201.626 84.226 201.533 84.6273 201.533 85.094C201.533 85.5607 201.626 85.9713 201.813 86.326C202.009 86.6713 202.261 86.9373 202.569 87.124C202.886 87.3107 203.222 87.404 203.577 87.404C203.941 87.404 204.282 87.3153 204.599 87.138C204.916 86.9513 205.168 86.69 205.355 86.354C205.542 86.0087 205.635 85.598 205.635 85.122ZM213.541 81.132C214.465 81.132 215.212 81.426 215.781 82.014C216.351 82.5927 216.635 83.4047 216.635 84.45V89H214.675V84.716C214.675 84.1 214.521 83.6287 214.213 83.302C213.905 82.966 213.485 82.798 212.953 82.798C212.412 82.798 211.983 82.966 211.665 83.302C211.357 83.6287 211.203 84.1 211.203 84.716V89H209.243V81.244H211.203V82.21C211.465 81.874 211.796 81.6127 212.197 81.426C212.608 81.23 213.056 81.132 213.541 81.132ZM221.187 89.126C220.553 89.126 219.983 89.014 219.479 88.79C218.975 88.5567 218.574 88.244 218.275 87.852C217.986 87.46 217.827 87.026 217.799 86.55H219.773C219.811 86.8487 219.955 87.096 220.207 87.292C220.469 87.488 220.791 87.586 221.173 87.586C221.547 87.586 221.836 87.5113 222.041 87.362C222.256 87.2127 222.363 87.0213 222.363 86.788C222.363 86.536 222.233 86.3493 221.971 86.228C221.719 86.0973 221.313 85.9573 220.753 85.808C220.175 85.668 219.699 85.5233 219.325 85.374C218.961 85.2247 218.644 84.996 218.373 84.688C218.112 84.38 217.981 83.9647 217.981 83.442C217.981 83.0127 218.103 82.6207 218.345 82.266C218.597 81.9113 218.952 81.6313 219.409 81.426C219.876 81.2207 220.422 81.118 221.047 81.118C221.971 81.118 222.709 81.3513 223.259 81.818C223.81 82.2753 224.113 82.896 224.169 83.68H222.293C222.265 83.372 222.135 83.1293 221.901 82.952C221.677 82.7653 221.374 82.672 220.991 82.672C220.637 82.672 220.361 82.7373 220.165 82.868C219.979 82.9987 219.885 83.1807 219.885 83.414C219.885 83.6753 220.016 83.876 220.277 84.016C220.539 84.1467 220.945 84.282 221.495 84.422C222.055 84.562 222.517 84.7067 222.881 84.856C223.245 85.0053 223.558 85.2387 223.819 85.556C224.09 85.864 224.23 86.2747 224.239 86.788C224.239 87.236 224.113 87.6373 223.861 87.992C223.619 88.3467 223.264 88.6267 222.797 88.832C222.34 89.028 221.803 89.126 221.187 89.126ZM229.124 82.854H227.766V89H225.778V82.854H224.896V81.244H225.778V80.852C225.778 79.9 226.049 79.2 226.59 78.752C227.131 78.304 227.948 78.094 229.04 78.122V79.774C228.564 79.7647 228.233 79.844 228.046 80.012C227.859 80.18 227.766 80.4833 227.766 80.922V81.244H229.124V82.854ZM237.324 84.954C237.324 85.234 237.306 85.486 237.268 85.71H231.598C231.645 86.27 231.841 86.7087 232.186 87.026C232.532 87.3433 232.956 87.502 233.46 87.502C234.188 87.502 234.706 87.1893 235.014 86.564H237.128C236.904 87.3107 236.475 87.9267 235.84 88.412C235.206 88.888 234.426 89.126 233.502 89.126C232.756 89.126 232.084 88.9627 231.486 88.636C230.898 88.3 230.436 87.8287 230.1 87.222C229.774 86.6153 229.61 85.9153 229.61 85.122C229.61 84.3193 229.774 83.6147 230.1 83.008C230.427 82.4013 230.884 81.9347 231.472 81.608C232.06 81.2813 232.737 81.118 233.502 81.118C234.24 81.118 234.898 81.2767 235.476 81.594C236.064 81.9113 236.517 82.364 236.834 82.952C237.161 83.5307 237.324 84.198 237.324 84.954ZM235.294 84.394C235.285 83.89 235.103 83.4887 234.748 83.19C234.394 82.882 233.96 82.728 233.446 82.728C232.961 82.728 232.55 82.8773 232.214 83.176C231.888 83.4653 231.687 83.8713 231.612 84.394H235.294ZM240.435 82.448C240.687 82.0373 241.014 81.7153 241.415 81.482C241.826 81.2487 242.292 81.132 242.815 81.132V83.19H242.297C241.681 83.19 241.214 83.3347 240.897 83.624C240.589 83.9133 240.435 84.4173 240.435 85.136V89H238.475V81.244H240.435V82.448Z" fill="white"/>
<circle r="3" transform="matrix(4.37114e-08 1 1 -4.37114e-08 174.5 270.5)" fill="#7579FF" stroke="white"/>
<circle cx="312" cy="248.5" r="3" transform="rotate(90 312 248.5)" fill="#7579FF" stroke="white"/>
<circle cx="37" cy="248.5" r="3" transform="rotate(90 37 248.5)" fill="#7579FF" stroke="white"/>
<path d="M175 145L174 99" stroke="white" stroke-width="3" stroke-linecap="round" stroke-dasharray="6 6"/>
<circle r="3" transform="matrix(-4.37114e-08 -1 -1 4.37114e-08 174.5 144.5)" fill="#7579FF" stroke="white"/>
<path d="M265.5 373.084V369.915C265.5 369.255 264.813 368.812 264.201 369.079L261.051 370.455C260.358 370.758 260.307 371.71 260.963 372.084L264.114 373.877C264.73 374.228 265.5 373.788 265.5 373.084Z" fill="#7579FF" stroke="white" stroke-linecap="round"/>
<path d="M48.5 413.084V409.915C48.5 409.255 49.1872 408.812 49.7985 409.079L52.949 410.455C53.6417 410.758 53.6929 411.71 53.0365 412.084L49.8861 413.877C49.2696 414.228 48.5 413.788 48.5 413.084Z" fill="#7579FF" stroke="white" stroke-linecap="round"/>
<path d="M36.5 172H17C8.71573 172 2 165.284 2 157V126.25V87C2 66.0132 19.0132 49 40 49H63.5" stroke="#7579FF" stroke-width="3" stroke-linecap="round"/>
<path d="M313 172H332C340.284 172 347 165.284 347 157V129.629V47C347 26.0132 329.987 9 309 9H270" stroke="#7579FF" stroke-width="3" stroke-linecap="round"/>
<circle cx="37" cy="171.5" r="3" transform="rotate(-90 37 171.5)" fill="#7579FF" stroke="white"/>
<circle cx="312.5" cy="171.5" r="3" transform="rotate(-90 312.5 171.5)" fill="#7579FF" stroke="white"/>
<path d="M64 46.9156V50.0847C64 50.7455 64.6872 51.188 65.2985 50.921L68.449 49.5447C69.1417 49.2421 69.1929 48.2896 68.5365 47.916L65.3861 46.1232C64.7696 45.7724 64 46.2124 64 46.9156Z" fill="#7579FF" stroke="white" stroke-linecap="round"/>
<path d="M272 6.91563V10.0847C272 10.7455 271.313 11.188 270.701 10.921L267.551 9.54469C266.858 9.24207 266.807 8.28955 267.463 7.91604L270.614 6.12324C271.23 5.77242 272 6.21236 272 6.91563Z" fill="#7579FF" stroke="white" stroke-linecap="round"/>
</svg>
