<svg width="1221" height="288" viewBox="0 0 1221 288" fill="none" xmlns="http://www.w3.org/2000/svg">
<path d="M100.023 18.126C99.1468 18.126 98.3548 17.976 97.6468 17.676C96.9508 17.376 96.3988 16.944 95.9908 16.38C95.5828 15.816 95.3728 15.15 95.3608 14.382H98.0608C98.0968 14.898 98.2768 15.306 98.6008 15.606C98.9368 15.906 99.3928 16.056 99.9688 16.056C100.557 16.056 101.019 15.918 101.355 15.642C101.691 15.354 101.859 14.982 101.859 14.526C101.859 14.154 101.745 13.848 101.517 13.608C101.289 13.368 101.001 13.182 100.653 13.05C100.317 12.906 99.8488 12.75 99.2488 12.582C98.4328 12.342 97.7668 12.108 97.2508 11.88C96.7468 11.64 96.3088 11.286 95.9368 10.818C95.5768 10.338 95.3968 9.702 95.3968 8.91C95.3968 8.166 95.5828 7.518 95.9548 6.966C96.3268 6.414 96.8488 5.994 97.5208 5.706C98.1928 5.406 98.9608 5.256 99.8248 5.256C101.121 5.256 102.171 5.574 102.975 6.21C103.791 6.834 104.241 7.71 104.325 8.838H101.553C101.529 8.406 101.343 8.052 100.995 7.776C100.659 7.488 100.209 7.344 99.6448 7.344C99.1528 7.344 98.7568 7.47 98.4568 7.722C98.1688 7.974 98.0248 8.34 98.0248 8.82C98.0248 9.156 98.1328 9.438 98.3488 9.666C98.5768 9.882 98.8528 10.062 99.1768 10.206C99.5128 10.338 99.9808 10.494 100.581 10.674C101.397 10.914 102.063 11.154 102.579 11.394C103.095 11.634 103.539 11.994 103.911 12.474C104.283 12.954 104.469 13.584 104.469 14.364C104.469 15.036 104.295 15.66 103.947 16.236C103.599 16.812 103.089 17.274 102.417 17.622C101.745 17.958 100.947 18.126 100.023 18.126ZM108.814 9.468C109.138 9.012 109.582 8.634 110.146 8.334C110.722 8.022 111.376 7.866 112.108 7.866C112.96 7.866 113.728 8.076 114.412 8.496C115.108 8.916 115.654 9.516 116.05 10.296C116.458 11.064 116.662 11.958 116.662 12.978C116.662 13.998 116.458 14.904 116.05 15.696C115.654 16.476 115.108 17.082 114.412 17.514C113.728 17.946 112.96 18.162 112.108 18.162C111.376 18.162 110.728 18.012 110.164 17.712C109.612 17.412 109.162 17.034 108.814 16.578V22.752H106.294V8.028H108.814V9.468ZM114.088 12.978C114.088 12.378 113.962 11.862 113.71 11.43C113.47 10.986 113.146 10.65 112.738 10.422C112.342 10.194 111.91 10.08 111.442 10.08C110.986 10.08 110.554 10.2 110.146 10.44C109.75 10.668 109.426 11.004 109.174 11.448C108.934 11.892 108.814 12.414 108.814 13.014C108.814 13.614 108.934 14.136 109.174 14.58C109.426 15.024 109.75 15.366 110.146 15.606C110.554 15.834 110.986 15.948 111.442 15.948C111.91 15.948 112.342 15.828 112.738 15.588C113.146 15.348 113.47 15.006 113.71 14.562C113.962 14.118 114.088 13.59 114.088 12.978ZM127.403 12.798C127.403 13.158 127.379 13.482 127.331 13.77H120.041C120.101 14.49 120.353 15.054 120.797 15.462C121.241 15.87 121.787 16.074 122.435 16.074C123.371 16.074 124.037 15.672 124.433 14.868H127.151C126.863 15.828 126.311 16.62 125.495 17.244C124.679 17.856 123.677 18.162 122.489 18.162C121.529 18.162 120.665 17.952 119.897 17.532C119.141 17.1 118.547 16.494 118.115 15.714C117.695 14.934 117.485 14.034 117.485 13.014C117.485 11.982 117.695 11.076 118.115 10.296C118.535 9.516 119.123 8.916 119.879 8.496C120.635 8.076 121.505 7.866 122.489 7.866C123.437 7.866 124.283 8.07 125.027 8.478C125.783 8.886 126.365 9.468 126.773 10.224C127.193 10.968 127.403 11.826 127.403 12.798ZM124.793 12.078C124.781 11.43 124.547 10.914 124.091 10.53C123.635 10.134 123.077 9.936 122.417 9.936C121.793 9.936 121.265 10.128 120.833 10.512C120.413 10.884 120.155 11.406 120.059 12.078H124.793ZM128.234 13.014C128.234 11.982 128.444 11.082 128.864 10.314C129.284 9.534 129.866 8.934 130.61 8.514C131.354 8.082 132.206 7.866 133.166 7.866C134.402 7.866 135.422 8.178 136.226 8.802C137.042 9.414 137.588 10.278 137.864 11.394H135.146C135.002 10.962 134.756 10.626 134.408 10.386C134.072 10.134 133.652 10.008 133.148 10.008C132.428 10.008 131.858 10.272 131.438 10.8C131.018 11.316 130.808 12.054 130.808 13.014C130.808 13.962 131.018 14.7 131.438 15.228C131.858 15.744 132.428 16.002 133.148 16.002C134.168 16.002 134.834 15.546 135.146 14.634H137.864C137.588 15.714 137.042 16.572 136.226 17.208C135.41 17.844 134.39 18.162 133.166 18.162C132.206 18.162 131.354 17.952 130.61 17.532C129.866 17.1 129.284 16.5 128.864 15.732C128.444 14.952 128.234 14.046 128.234 13.014ZM143.166 18.162C142.35 18.162 141.618 18.018 140.97 17.73C140.322 17.43 139.806 17.028 139.422 16.524C139.05 16.02 138.846 15.462 138.81 14.85H141.348C141.396 15.234 141.582 15.552 141.906 15.804C142.242 16.056 142.656 16.182 143.148 16.182C143.628 16.182 144 16.086 144.264 15.894C144.54 15.702 144.678 15.456 144.678 15.156C144.678 14.832 144.51 14.592 144.174 14.436C143.85 14.268 143.328 14.088 142.608 13.896C141.864 13.716 141.252 13.53 140.772 13.338C140.304 13.146 139.896 12.852 139.548 12.456C139.212 12.06 139.044 11.526 139.044 10.854C139.044 10.302 139.2 9.798 139.512 9.342C139.836 8.886 140.292 8.526 140.88 8.262C141.48 7.998 142.182 7.866 142.986 7.866C144.174 7.866 145.122 8.166 145.83 8.766C146.538 9.354 146.928 10.152 147 11.16H144.588C144.552 10.764 144.384 10.452 144.084 10.224C143.796 9.984 143.406 9.864 142.914 9.864C142.458 9.864 142.104 9.948 141.852 10.116C141.612 10.284 141.492 10.518 141.492 10.818C141.492 11.154 141.66 11.412 141.996 11.592C142.332 11.76 142.854 11.934 143.562 12.114C144.282 12.294 144.876 12.48 145.344 12.672C145.812 12.864 146.214 13.164 146.55 13.572C146.898 13.968 147.078 14.496 147.09 15.156C147.09 15.732 146.928 16.248 146.604 16.704C146.292 17.16 145.836 17.52 145.236 17.784C144.648 18.036 143.958 18.162 143.166 18.162ZM162.394 18L161.026 16.65C159.862 17.694 158.44 18.216 156.76 18.216C155.836 18.216 155.02 18.06 154.312 17.748C153.616 17.424 153.076 16.974 152.692 16.398C152.308 15.81 152.116 15.132 152.116 14.364C152.116 13.536 152.35 12.792 152.818 12.132C153.286 11.472 153.976 10.938 154.888 10.53C154.564 10.134 154.33 9.756 154.186 9.396C154.042 9.024 153.97 8.628 153.97 8.208C153.97 7.632 154.12 7.116 154.42 6.66C154.72 6.192 155.146 5.826 155.698 5.562C156.262 5.298 156.916 5.166 157.66 5.166C158.416 5.166 159.064 5.31 159.604 5.598C160.144 5.886 160.546 6.27 160.81 6.75C161.074 7.23 161.188 7.764 161.152 8.352H158.704C158.716 7.956 158.62 7.656 158.416 7.452C158.212 7.236 157.936 7.128 157.588 7.128C157.252 7.128 156.97 7.23 156.742 7.434C156.526 7.626 156.418 7.878 156.418 8.19C156.418 8.49 156.508 8.79 156.688 9.09C156.868 9.378 157.162 9.738 157.57 10.17L160.738 13.302C160.762 13.278 160.78 13.254 160.792 13.23C160.804 13.206 160.816 13.182 160.828 13.158L161.854 11.448H164.482L163.222 13.662C162.982 14.13 162.724 14.574 162.448 14.994L165.49 18H162.394ZM156.832 16.128C157.816 16.128 158.686 15.78 159.442 15.084L156.346 12.024C155.182 12.54 154.6 13.272 154.6 14.22C154.6 14.76 154.804 15.216 155.212 15.588C155.62 15.948 156.16 16.128 156.832 16.128ZM172.791 5.436V13.212C172.791 14.064 173.013 14.718 173.457 15.174C173.901 15.618 174.525 15.84 175.329 15.84C176.145 15.84 176.775 15.618 177.219 15.174C177.663 14.718 177.885 14.064 177.885 13.212V5.436H180.423V13.194C180.423 14.262 180.189 15.168 179.721 15.912C179.265 16.644 178.647 17.196 177.867 17.568C177.099 17.94 176.241 18.126 175.293 18.126C174.357 18.126 173.505 17.94 172.737 17.568C171.981 17.196 171.381 16.644 170.937 15.912C170.493 15.168 170.271 14.262 170.271 13.194V5.436H172.791ZM186.314 18.162C185.498 18.162 184.766 18.018 184.118 17.73C183.47 17.43 182.954 17.028 182.57 16.524C182.198 16.02 181.994 15.462 181.958 14.85H184.496C184.544 15.234 184.73 15.552 185.054 15.804C185.39 16.056 185.804 16.182 186.296 16.182C186.776 16.182 187.148 16.086 187.412 15.894C187.688 15.702 187.826 15.456 187.826 15.156C187.826 14.832 187.658 14.592 187.322 14.436C186.998 14.268 186.476 14.088 185.756 13.896C185.012 13.716 184.4 13.53 183.92 13.338C183.452 13.146 183.044 12.852 182.696 12.456C182.36 12.06 182.192 11.526 182.192 10.854C182.192 10.302 182.348 9.798 182.66 9.342C182.984 8.886 183.44 8.526 184.028 8.262C184.628 7.998 185.33 7.866 186.134 7.866C187.322 7.866 188.27 8.166 188.978 8.766C189.686 9.354 190.076 10.152 190.148 11.16H187.736C187.7 10.764 187.532 10.452 187.232 10.224C186.944 9.984 186.554 9.864 186.062 9.864C185.606 9.864 185.252 9.948 185 10.116C184.76 10.284 184.64 10.518 184.64 10.818C184.64 11.154 184.808 11.412 185.144 11.592C185.48 11.76 186.002 11.934 186.71 12.114C187.43 12.294 188.024 12.48 188.492 12.672C188.96 12.864 189.362 13.164 189.698 13.572C190.046 13.968 190.226 14.496 190.238 15.156C190.238 15.732 190.076 16.248 189.752 16.704C189.44 17.16 188.984 17.52 188.384 17.784C187.796 18.036 187.106 18.162 186.314 18.162ZM191.298 12.978C191.298 11.97 191.496 11.076 191.892 10.296C192.3 9.516 192.846 8.916 193.53 8.496C194.226 8.076 195 7.866 195.852 7.866C196.596 7.866 197.244 8.016 197.796 8.316C198.36 8.616 198.81 8.994 199.146 9.45V8.028H201.684V18H199.146V16.542C198.822 17.01 198.372 17.4 197.796 17.712C197.232 18.012 196.578 18.162 195.834 18.162C194.994 18.162 194.226 17.946 193.53 17.514C192.846 17.082 192.3 16.476 191.892 15.696C191.496 14.904 191.298 13.998 191.298 12.978ZM199.146 13.014C199.146 12.402 199.026 11.88 198.786 11.448C198.546 11.004 198.222 10.668 197.814 10.44C197.406 10.2 196.968 10.08 196.5 10.08C196.032 10.08 195.6 10.194 195.204 10.422C194.808 10.65 194.484 10.986 194.232 11.43C193.992 11.862 193.872 12.378 193.872 12.978C193.872 13.578 193.992 14.106 194.232 14.562C194.484 15.006 194.808 15.348 195.204 15.588C195.612 15.828 196.044 15.948 196.5 15.948C196.968 15.948 197.406 15.834 197.814 15.606C198.222 15.366 198.546 15.03 198.786 14.598C199.026 14.154 199.146 13.626 199.146 13.014ZM207.691 7.866C208.435 7.866 209.089 8.016 209.653 8.316C210.217 8.604 210.661 8.982 210.985 9.45V8.028H213.523V18.072C213.523 18.996 213.337 19.818 212.965 20.538C212.593 21.27 212.035 21.846 211.291 22.266C210.547 22.698 209.647 22.914 208.591 22.914C207.175 22.914 206.011 22.584 205.099 21.924C204.199 21.264 203.689 20.364 203.569 19.224H206.071C206.203 19.68 206.485 20.04 206.917 20.304C207.361 20.58 207.895 20.718 208.519 20.718C209.251 20.718 209.845 20.496 210.301 20.052C210.757 19.62 210.985 18.96 210.985 18.072V16.524C210.661 16.992 210.211 17.382 209.635 17.694C209.071 18.006 208.423 18.162 207.691 18.162C206.851 18.162 206.083 17.946 205.387 17.514C204.691 17.082 204.139 16.476 203.731 15.696C203.335 14.904 203.137 13.998 203.137 12.978C203.137 11.97 203.335 11.076 203.731 10.296C204.139 9.516 204.685 8.916 205.369 8.496C206.065 8.076 206.839 7.866 207.691 7.866ZM210.985 13.014C210.985 12.402 210.865 11.88 210.625 11.448C210.385 11.004 210.061 10.668 209.653 10.44C209.245 10.2 208.807 10.08 208.339 10.08C207.871 10.08 207.439 10.194 207.043 10.422C206.647 10.65 206.323 10.986 206.071 11.43C205.831 11.862 205.711 12.378 205.711 12.978C205.711 13.578 205.831 14.106 206.071 14.562C206.323 15.006 206.647 15.348 207.043 15.588C207.451 15.828 207.883 15.948 208.339 15.948C208.807 15.948 209.245 15.834 209.653 15.606C210.061 15.366 210.385 15.03 210.625 14.598C210.865 14.154 210.985 13.626 210.985 13.014ZM224.895 12.798C224.895 13.158 224.871 13.482 224.823 13.77H217.533C217.593 14.49 217.845 15.054 218.289 15.462C218.733 15.87 219.279 16.074 219.927 16.074C220.863 16.074 221.529 15.672 221.925 14.868H224.643C224.355 15.828 223.803 16.62 222.987 17.244C222.171 17.856 221.169 18.162 219.981 18.162C219.021 18.162 218.157 17.952 217.389 17.532C216.633 17.1 216.039 16.494 215.607 15.714C215.187 14.934 214.977 14.034 214.977 13.014C214.977 11.982 215.187 11.076 215.607 10.296C216.027 9.516 216.615 8.916 217.371 8.496C218.127 8.076 218.997 7.866 219.981 7.866C220.929 7.866 221.775 8.07 222.519 8.478C223.275 8.886 223.857 9.468 224.265 10.224C224.685 10.968 224.895 11.826 224.895 12.798ZM222.285 12.078C222.273 11.43 222.039 10.914 221.583 10.53C221.127 10.134 220.569 9.936 219.909 9.936C219.285 9.936 218.757 10.128 218.325 10.512C217.905 10.884 217.647 11.406 217.551 12.078H222.285ZM229.655 12.978C229.655 11.97 229.853 11.076 230.249 10.296C230.657 9.516 231.209 8.916 231.905 8.496C232.601 8.076 233.375 7.866 234.227 7.866C234.875 7.866 235.493 8.01 236.081 8.298C236.669 8.574 237.137 8.946 237.485 9.414V4.68H240.041V18H237.485V16.524C237.173 17.016 236.735 17.412 236.171 17.712C235.607 18.012 234.953 18.162 234.209 18.162C233.369 18.162 232.601 17.946 231.905 17.514C231.209 17.082 230.657 16.476 230.249 15.696C229.853 14.904 229.655 13.998 229.655 12.978ZM237.503 13.014C237.503 12.402 237.383 11.88 237.143 11.448C236.903 11.004 236.579 10.668 236.171 10.44C235.763 10.2 235.325 10.08 234.857 10.08C234.389 10.08 233.957 10.194 233.561 10.422C233.165 10.65 232.841 10.986 232.589 11.43C232.349 11.862 232.229 12.378 232.229 12.978C232.229 13.578 232.349 14.106 232.589 14.562C232.841 15.006 233.165 15.348 233.561 15.588C233.969 15.828 234.401 15.948 234.857 15.948C235.325 15.948 235.763 15.834 236.171 15.606C236.579 15.366 236.903 15.03 237.143 14.598C237.383 14.154 237.503 13.626 237.503 13.014ZM241.494 12.978C241.494 11.97 241.692 11.076 242.088 10.296C242.496 9.516 243.042 8.916 243.726 8.496C244.422 8.076 245.196 7.866 246.048 7.866C246.792 7.866 247.44 8.016 247.992 8.316C248.556 8.616 249.006 8.994 249.342 9.45V8.028H251.88V18H249.342V16.542C249.018 17.01 248.568 17.4 247.992 17.712C247.428 18.012 246.774 18.162 246.03 18.162C245.19 18.162 244.422 17.946 243.726 17.514C243.042 17.082 242.496 16.476 242.088 15.696C241.692 14.904 241.494 13.998 241.494 12.978ZM249.342 13.014C249.342 12.402 249.222 11.88 248.982 11.448C248.742 11.004 248.418 10.668 248.01 10.44C247.602 10.2 247.164 10.08 246.696 10.08C246.228 10.08 245.796 10.194 245.4 10.422C245.004 10.65 244.68 10.986 244.428 11.43C244.188 11.862 244.068 12.378 244.068 12.978C244.068 13.578 244.188 14.106 244.428 14.562C244.68 15.006 245.004 15.348 245.4 15.588C245.808 15.828 246.24 15.948 246.696 15.948C247.164 15.948 247.602 15.834 248.01 15.606C248.418 15.366 248.742 15.03 248.982 14.598C249.222 14.154 249.342 13.626 249.342 13.014ZM256.915 10.098V14.922C256.915 15.258 256.993 15.504 257.149 15.66C257.317 15.804 257.593 15.876 257.977 15.876H259.147V18H257.563C255.439 18 254.377 16.968 254.377 14.904V10.098H253.189V8.028H254.377V5.562H256.915V8.028H259.147V10.098H256.915ZM259.952 12.978C259.952 11.97 260.15 11.076 260.546 10.296C260.954 9.516 261.5 8.916 262.184 8.496C262.88 8.076 263.654 7.866 264.506 7.866C265.25 7.866 265.898 8.016 266.45 8.316C267.014 8.616 267.464 8.994 267.8 9.45V8.028H270.338V18H267.8V16.542C267.476 17.01 267.026 17.4 266.45 17.712C265.886 18.012 265.232 18.162 264.488 18.162C263.648 18.162 262.88 17.946 262.184 17.514C261.5 17.082 260.954 16.476 260.546 15.696C260.15 14.904 259.952 13.998 259.952 12.978ZM267.8 13.014C267.8 12.402 267.68 11.88 267.44 11.448C267.2 11.004 266.876 10.668 266.468 10.44C266.06 10.2 265.622 10.08 265.154 10.08C264.686 10.08 264.254 10.194 263.858 10.422C263.462 10.65 263.138 10.986 262.886 11.43C262.646 11.862 262.526 12.378 262.526 12.978C262.526 13.578 262.646 14.106 262.886 14.562C263.138 15.006 263.462 15.348 263.858 15.588C264.266 15.828 264.698 15.948 265.154 15.948C265.622 15.948 266.06 15.834 266.468 15.606C266.876 15.366 267.2 15.03 267.44 14.598C267.68 14.154 267.8 13.626 267.8 13.014Z" fill="white"/>
<path d="M16.3264 261.436V274H13.8064V265.828L10.4404 274H8.53237L5.14837 265.828V274H2.62837V261.436H5.49037L9.48637 270.778L13.4824 261.436H16.3264ZM17.8098 268.978C17.8098 267.97 18.0078 267.076 18.4038 266.296C18.8118 265.516 19.3578 264.916 20.0418 264.496C20.7378 264.076 21.5118 263.866 22.3638 263.866C23.1078 263.866 23.7558 264.016 24.3078 264.316C24.8718 264.616 25.3218 264.994 25.6578 265.45V264.028H28.1958V274H25.6578V272.542C25.3338 273.01 24.8838 273.4 24.3078 273.712C23.7438 274.012 23.0898 274.162 22.3458 274.162C21.5058 274.162 20.7378 273.946 20.0418 273.514C19.3578 273.082 18.8118 272.476 18.4038 271.696C18.0078 270.904 17.8098 269.998 17.8098 268.978ZM25.6578 269.014C25.6578 268.402 25.5378 267.88 25.2978 267.448C25.0578 267.004 24.7338 266.668 24.3258 266.44C23.9178 266.2 23.4798 266.08 23.0118 266.08C22.5438 266.08 22.1118 266.194 21.7158 266.422C21.3198 266.65 20.9958 266.986 20.7438 267.43C20.5038 267.862 20.3838 268.378 20.3838 268.978C20.3838 269.578 20.5038 270.106 20.7438 270.562C20.9958 271.006 21.3198 271.348 21.7158 271.588C22.1238 271.828 22.5558 271.948 23.0118 271.948C23.4798 271.948 23.9178 271.834 24.3258 271.606C24.7338 271.366 25.0578 271.03 25.2978 270.598C25.5378 270.154 25.6578 269.626 25.6578 269.014ZM31.575 262.84C31.131 262.84 30.759 262.702 30.459 262.426C30.171 262.138 30.027 261.784 30.027 261.364C30.027 260.944 30.171 260.596 30.459 260.32C30.759 260.032 31.131 259.888 31.575 259.888C32.019 259.888 32.385 260.032 32.673 260.32C32.973 260.596 33.123 260.944 33.123 261.364C33.123 261.784 32.973 262.138 32.673 262.426C32.385 262.702 32.019 262.84 31.575 262.84ZM32.817 264.028V274H30.297V264.028H32.817ZM40.4728 263.884C41.6608 263.884 42.6208 264.262 43.3528 265.018C44.0848 265.762 44.4508 266.806 44.4508 268.15V274H41.9308V268.492C41.9308 267.7 41.7328 267.094 41.3368 266.674C40.9408 266.242 40.4008 266.026 39.7168 266.026C39.0208 266.026 38.4688 266.242 38.0608 266.674C37.6648 267.094 37.4668 267.7 37.4668 268.492V274H34.9468V264.028H37.4668V265.27C37.8028 264.838 38.2288 264.502 38.7448 264.262C39.2728 264.01 39.8488 263.884 40.4728 263.884ZM49.4212 266.098V270.922C49.4212 271.258 49.4992 271.504 49.6552 271.66C49.8232 271.804 50.0992 271.876 50.4832 271.876H51.6532V274H50.0692C47.9452 274 46.8832 272.968 46.8832 270.904V266.098H45.6952V264.028H46.8832V261.562H49.4212V264.028H51.6532V266.098H49.4212ZM62.3757 268.798C62.3757 269.158 62.3517 269.482 62.3037 269.77H55.0137C55.0737 270.49 55.3257 271.054 55.7697 271.462C56.2137 271.87 56.7597 272.074 57.4077 272.074C58.3437 272.074 59.0097 271.672 59.4057 270.868H62.1237C61.8357 271.828 61.2837 272.62 60.4677 273.244C59.6517 273.856 58.6497 274.162 57.4617 274.162C56.5017 274.162 55.6377 273.952 54.8697 273.532C54.1137 273.1 53.5197 272.494 53.0877 271.714C52.6677 270.934 52.4577 270.034 52.4577 269.014C52.4577 267.982 52.6677 267.076 53.0877 266.296C53.5077 265.516 54.0957 264.916 54.8517 264.496C55.6077 264.076 56.4777 263.866 57.4617 263.866C58.4097 263.866 59.2557 264.07 59.9997 264.478C60.7557 264.886 61.3377 265.468 61.7457 266.224C62.1657 266.968 62.3757 267.826 62.3757 268.798ZM59.7657 268.078C59.7537 267.43 59.5197 266.914 59.0637 266.53C58.6077 266.134 58.0497 265.936 57.3897 265.936C56.7657 265.936 56.2377 266.128 55.8057 266.512C55.3857 266.884 55.1277 267.406 55.0317 268.078H59.7657ZM69.3811 263.884C70.5691 263.884 71.5291 264.262 72.2611 265.018C72.9931 265.762 73.3591 266.806 73.3591 268.15V274H70.8391V268.492C70.8391 267.7 70.6411 267.094 70.2451 266.674C69.8491 266.242 69.3091 266.026 68.6251 266.026C67.9291 266.026 67.3771 266.242 66.9691 266.674C66.5731 267.094 66.3751 267.7 66.3751 268.492V274H63.8551V264.028H66.3751V265.27C66.7111 264.838 67.1371 264.502 67.6531 264.262C68.1811 264.01 68.7571 263.884 69.3811 263.884ZM74.7475 268.978C74.7475 267.97 74.9455 267.076 75.3415 266.296C75.7495 265.516 76.2955 264.916 76.9795 264.496C77.6755 264.076 78.4495 263.866 79.3015 263.866C80.0455 263.866 80.6935 264.016 81.2455 264.316C81.8095 264.616 82.2595 264.994 82.5955 265.45V264.028H85.1335V274H82.5955V272.542C82.2715 273.01 81.8215 273.4 81.2455 273.712C80.6815 274.012 80.0275 274.162 79.2835 274.162C78.4435 274.162 77.6755 273.946 76.9795 273.514C76.2955 273.082 75.7495 272.476 75.3415 271.696C74.9455 270.904 74.7475 269.998 74.7475 268.978ZM82.5955 269.014C82.5955 268.402 82.4755 267.88 82.2355 267.448C81.9955 267.004 81.6715 266.668 81.2635 266.44C80.8555 266.2 80.4175 266.08 79.9495 266.08C79.4815 266.08 79.0495 266.194 78.6535 266.422C78.2575 266.65 77.9335 266.986 77.6815 267.43C77.4415 267.862 77.3215 268.378 77.3215 268.978C77.3215 269.578 77.4415 270.106 77.6815 270.562C77.9335 271.006 78.2575 271.348 78.6535 271.588C79.0615 271.828 79.4935 271.948 79.9495 271.948C80.4175 271.948 80.8555 271.834 81.2635 271.606C81.6715 271.366 81.9955 271.03 82.2355 270.598C82.4755 270.154 82.5955 269.626 82.5955 269.014ZM92.7607 263.884C93.9487 263.884 94.9087 264.262 95.6407 265.018C96.3727 265.762 96.7387 266.806 96.7387 268.15V274H94.2187V268.492C94.2187 267.7 94.0207 267.094 93.6247 266.674C93.2287 266.242 92.6887 266.026 92.0047 266.026C91.3087 266.026 90.7567 266.242 90.3487 266.674C89.9527 267.094 89.7547 267.7 89.7547 268.492V274H87.2347V264.028H89.7547V265.27C90.0907 264.838 90.5167 264.502 91.0327 264.262C91.5607 264.01 92.1367 263.884 92.7607 263.884ZM98.1271 269.014C98.1271 267.982 98.3371 267.082 98.7571 266.314C99.1771 265.534 99.7591 264.934 100.503 264.514C101.247 264.082 102.099 263.866 103.059 263.866C104.295 263.866 105.315 264.178 106.119 264.802C106.935 265.414 107.481 266.278 107.757 267.394H105.039C104.895 266.962 104.649 266.626 104.301 266.386C103.965 266.134 103.545 266.008 103.041 266.008C102.321 266.008 101.751 266.272 101.331 266.8C100.911 267.316 100.701 268.054 100.701 269.014C100.701 269.962 100.911 270.7 101.331 271.228C101.751 271.744 102.321 272.002 103.041 272.002C104.061 272.002 104.727 271.546 105.039 270.634H107.757C107.481 271.714 106.935 272.572 106.119 273.208C105.303 273.844 104.283 274.162 103.059 274.162C102.099 274.162 101.247 273.952 100.503 273.532C99.7591 273.1 99.1771 272.5 98.7571 271.732C98.3371 270.952 98.1271 270.046 98.1271 269.014ZM118.513 268.798C118.513 269.158 118.489 269.482 118.441 269.77H111.151C111.211 270.49 111.463 271.054 111.907 271.462C112.351 271.87 112.897 272.074 113.545 272.074C114.481 272.074 115.147 271.672 115.543 270.868H118.261C117.973 271.828 117.421 272.62 116.605 273.244C115.789 273.856 114.787 274.162 113.599 274.162C112.639 274.162 111.775 273.952 111.007 273.532C110.251 273.1 109.657 272.494 109.225 271.714C108.805 270.934 108.595 270.034 108.595 269.014C108.595 267.982 108.805 267.076 109.225 266.296C109.645 265.516 110.233 264.916 110.989 264.496C111.745 264.076 112.615 263.866 113.599 263.866C114.547 263.866 115.393 264.07 116.137 264.478C116.893 264.886 117.475 265.468 117.883 266.224C118.303 266.968 118.513 267.826 118.513 268.798ZM115.903 268.078C115.891 267.43 115.657 266.914 115.201 266.53C114.745 266.134 114.187 265.936 113.527 265.936C112.903 265.936 112.375 266.128 111.943 266.512C111.523 266.884 111.265 267.406 111.169 268.078H115.903ZM123.274 268.978C123.274 267.97 123.472 267.076 123.868 266.296C124.276 265.516 124.822 264.916 125.506 264.496C126.202 264.076 126.976 263.866 127.828 263.866C128.572 263.866 129.22 264.016 129.772 264.316C130.336 264.616 130.786 264.994 131.122 265.45V264.028H133.66V274H131.122V272.542C130.798 273.01 130.348 273.4 129.772 273.712C129.208 274.012 128.554 274.162 127.81 274.162C126.97 274.162 126.202 273.946 125.506 273.514C124.822 273.082 124.276 272.476 123.868 271.696C123.472 270.904 123.274 269.998 123.274 268.978ZM131.122 269.014C131.122 268.402 131.002 267.88 130.762 267.448C130.522 267.004 130.198 266.668 129.79 266.44C129.382 266.2 128.944 266.08 128.476 266.08C128.008 266.08 127.576 266.194 127.18 266.422C126.784 266.65 126.46 266.986 126.208 267.43C125.968 267.862 125.848 268.378 125.848 268.978C125.848 269.578 125.968 270.106 126.208 270.562C126.46 271.006 126.784 271.348 127.18 271.588C127.588 271.828 128.02 271.948 128.476 271.948C128.944 271.948 129.382 271.834 129.79 271.606C130.198 271.366 130.522 271.03 130.762 270.598C131.002 270.154 131.122 269.626 131.122 269.014ZM141.287 263.884C142.475 263.884 143.435 264.262 144.167 265.018C144.899 265.762 145.265 266.806 145.265 268.15V274H142.745V268.492C142.745 267.7 142.547 267.094 142.151 266.674C141.755 266.242 141.215 266.026 140.531 266.026C139.835 266.026 139.283 266.242 138.875 266.674C138.479 267.094 138.281 267.7 138.281 268.492V274H135.761V264.028H138.281V265.27C138.617 264.838 139.043 264.502 139.559 264.262C140.087 264.01 140.663 263.884 141.287 263.884ZM146.653 268.978C146.653 267.97 146.851 267.076 147.247 266.296C147.655 265.516 148.207 264.916 148.903 264.496C149.599 264.076 150.373 263.866 151.225 263.866C151.873 263.866 152.491 264.01 153.079 264.298C153.667 264.574 154.135 264.946 154.483 265.414V260.68H157.039V274H154.483V272.524C154.171 273.016 153.733 273.412 153.169 273.712C152.605 274.012 151.951 274.162 151.207 274.162C150.367 274.162 149.599 273.946 148.903 273.514C148.207 273.082 147.655 272.476 147.247 271.696C146.851 270.904 146.653 269.998 146.653 268.978ZM154.501 269.014C154.501 268.402 154.381 267.88 154.141 267.448C153.901 267.004 153.577 266.668 153.169 266.44C152.761 266.2 152.323 266.08 151.855 266.08C151.387 266.08 150.955 266.194 150.559 266.422C150.163 266.65 149.839 266.986 149.587 267.43C149.347 267.862 149.227 268.378 149.227 268.978C149.227 269.578 149.347 270.106 149.587 270.562C149.839 271.006 150.163 271.348 150.559 271.588C150.967 271.828 151.399 271.948 151.855 271.948C152.323 271.948 152.761 271.834 153.169 271.606C153.577 271.366 153.901 271.03 154.141 270.598C154.381 270.154 154.501 269.626 154.501 269.014ZM165.59 265.576C165.914 265.048 166.334 264.634 166.85 264.334C167.378 264.034 167.978 263.884 168.65 263.884V266.53H167.984C167.192 266.53 166.592 266.716 166.184 267.088C165.788 267.46 165.59 268.108 165.59 269.032V274H163.07V264.028H165.59V265.576ZM179.257 268.798C179.257 269.158 179.233 269.482 179.185 269.77H171.895C171.955 270.49 172.207 271.054 172.651 271.462C173.095 271.87 173.641 272.074 174.289 272.074C175.225 272.074 175.891 271.672 176.287 270.868H179.005C178.717 271.828 178.165 272.62 177.349 273.244C176.533 273.856 175.531 274.162 174.343 274.162C173.383 274.162 172.519 273.952 171.751 273.532C170.995 273.1 170.401 272.494 169.969 271.714C169.549 270.934 169.339 270.034 169.339 269.014C169.339 267.982 169.549 267.076 169.969 266.296C170.389 265.516 170.977 264.916 171.733 264.496C172.489 264.076 173.359 263.866 174.343 263.866C175.291 263.866 176.137 264.07 176.881 264.478C177.637 264.886 178.219 265.468 178.627 266.224C179.047 266.968 179.257 267.826 179.257 268.798ZM176.647 268.078C176.635 267.43 176.401 266.914 175.945 266.53C175.489 266.134 174.931 265.936 174.271 265.936C173.647 265.936 173.119 266.128 172.687 266.512C172.267 266.884 172.009 267.406 171.913 268.078H176.647ZM183.256 265.468C183.58 265.012 184.024 264.634 184.588 264.334C185.164 264.022 185.818 263.866 186.55 263.866C187.402 263.866 188.17 264.076 188.854 264.496C189.55 264.916 190.096 265.516 190.492 266.296C190.9 267.064 191.104 267.958 191.104 268.978C191.104 269.998 190.9 270.904 190.492 271.696C190.096 272.476 189.55 273.082 188.854 273.514C188.17 273.946 187.402 274.162 186.55 274.162C185.818 274.162 185.17 274.012 184.606 273.712C184.054 273.412 183.604 273.034 183.256 272.578V278.752H180.736V264.028H183.256V265.468ZM188.53 268.978C188.53 268.378 188.404 267.862 188.152 267.43C187.912 266.986 187.588 266.65 187.18 266.422C186.784 266.194 186.352 266.08 185.884 266.08C185.428 266.08 184.996 266.2 184.588 266.44C184.192 266.668 183.868 267.004 183.616 267.448C183.376 267.892 183.256 268.414 183.256 269.014C183.256 269.614 183.376 270.136 183.616 270.58C183.868 271.024 184.192 271.366 184.588 271.606C184.996 271.834 185.428 271.948 185.884 271.948C186.352 271.948 186.784 271.828 187.18 271.588C187.588 271.348 187.912 271.006 188.152 270.562C188.404 270.118 188.53 269.59 188.53 268.978ZM191.927 268.978C191.927 267.97 192.125 267.076 192.521 266.296C192.929 265.516 193.475 264.916 194.159 264.496C194.855 264.076 195.629 263.866 196.481 263.866C197.225 263.866 197.873 264.016 198.425 264.316C198.989 264.616 199.439 264.994 199.775 265.45V264.028H202.313V274H199.775V272.542C199.451 273.01 199.001 273.4 198.425 273.712C197.861 274.012 197.207 274.162 196.463 274.162C195.623 274.162 194.855 273.946 194.159 273.514C193.475 273.082 192.929 272.476 192.521 271.696C192.125 270.904 191.927 269.998 191.927 268.978ZM199.775 269.014C199.775 268.402 199.655 267.88 199.415 267.448C199.175 267.004 198.851 266.668 198.443 266.44C198.035 266.2 197.597 266.08 197.129 266.08C196.661 266.08 196.229 266.194 195.833 266.422C195.437 266.65 195.113 266.986 194.861 267.43C194.621 267.862 194.501 268.378 194.501 268.978C194.501 269.578 194.621 270.106 194.861 270.562C195.113 271.006 195.437 271.348 195.833 271.588C196.241 271.828 196.673 271.948 197.129 271.948C197.597 271.948 198.035 271.834 198.443 271.606C198.851 271.366 199.175 271.03 199.415 270.598C199.655 270.154 199.775 269.626 199.775 269.014ZM205.693 262.84C205.249 262.84 204.877 262.702 204.577 262.426C204.289 262.138 204.145 261.784 204.145 261.364C204.145 260.944 204.289 260.596 204.577 260.32C204.877 260.032 205.249 259.888 205.693 259.888C206.137 259.888 206.503 260.032 206.791 260.32C207.091 260.596 207.241 260.944 207.241 261.364C207.241 261.784 207.091 262.138 206.791 262.426C206.503 262.702 206.137 262.84 205.693 262.84ZM206.935 264.028V274H204.415V264.028H206.935ZM211.584 265.576C211.908 265.048 212.328 264.634 212.844 264.334C213.372 264.034 213.972 263.884 214.644 263.884V266.53H213.978C213.186 266.53 212.586 266.716 212.178 267.088C211.782 267.46 211.584 268.108 211.584 269.032V274H209.064V264.028H211.584V265.576ZM219.798 274.162C218.982 274.162 218.25 274.018 217.602 273.73C216.954 273.43 216.438 273.028 216.054 272.524C215.682 272.02 215.478 271.462 215.442 270.85H217.98C218.028 271.234 218.214 271.552 218.538 271.804C218.874 272.056 219.288 272.182 219.78 272.182C220.26 272.182 220.632 272.086 220.896 271.894C221.172 271.702 221.31 271.456 221.31 271.156C221.31 270.832 221.142 270.592 220.806 270.436C220.482 270.268 219.96 270.088 219.24 269.896C218.496 269.716 217.884 269.53 217.404 269.338C216.936 269.146 216.528 268.852 216.18 268.456C215.844 268.06 215.676 267.526 215.676 266.854C215.676 266.302 215.832 265.798 216.144 265.342C216.468 264.886 216.924 264.526 217.512 264.262C218.112 263.998 218.814 263.866 219.618 263.866C220.806 263.866 221.754 264.166 222.462 264.766C223.17 265.354 223.56 266.152 223.632 267.16H221.22C221.184 266.764 221.016 266.452 220.716 266.224C220.428 265.984 220.038 265.864 219.546 265.864C219.09 265.864 218.736 265.948 218.484 266.116C218.244 266.284 218.124 266.518 218.124 266.818C218.124 267.154 218.292 267.412 218.628 267.592C218.964 267.76 219.486 267.934 220.194 268.114C220.914 268.294 221.508 268.48 221.976 268.672C222.444 268.864 222.846 269.164 223.182 269.572C223.53 269.968 223.71 270.496 223.722 271.156C223.722 271.732 223.56 272.248 223.236 272.704C222.924 273.16 222.468 273.52 221.868 273.784C221.28 274.036 220.59 274.162 219.798 274.162ZM228.711 268.978C228.711 267.97 228.909 267.076 229.305 266.296C229.713 265.516 230.265 264.916 230.961 264.496C231.657 264.076 232.431 263.866 233.283 263.866C233.931 263.866 234.549 264.01 235.137 264.298C235.725 264.574 236.193 264.946 236.541 265.414V260.68H239.097V274H236.541V272.524C236.229 273.016 235.791 273.412 235.227 273.712C234.663 274.012 234.009 274.162 233.265 274.162C232.425 274.162 231.657 273.946 230.961 273.514C230.265 273.082 229.713 272.476 229.305 271.696C228.909 270.904 228.711 269.998 228.711 268.978ZM236.559 269.014C236.559 268.402 236.439 267.88 236.199 267.448C235.959 267.004 235.635 266.668 235.227 266.44C234.819 266.2 234.381 266.08 233.913 266.08C233.445 266.08 233.013 266.194 232.617 266.422C232.221 266.65 231.897 266.986 231.645 267.43C231.405 267.862 231.285 268.378 231.285 268.978C231.285 269.578 231.405 270.106 231.645 270.562C231.897 271.006 232.221 271.348 232.617 271.588C233.025 271.828 233.457 271.948 233.913 271.948C234.381 271.948 234.819 271.834 235.227 271.606C235.635 271.366 235.959 271.03 236.199 270.598C236.439 270.154 236.559 269.626 236.559 269.014ZM240.551 268.978C240.551 267.97 240.749 267.076 241.145 266.296C241.553 265.516 242.099 264.916 242.783 264.496C243.479 264.076 244.253 263.866 245.105 263.866C245.849 263.866 246.497 264.016 247.049 264.316C247.613 264.616 248.063 264.994 248.399 265.45V264.028H250.937V274H248.399V272.542C248.075 273.01 247.625 273.4 247.049 273.712C246.485 274.012 245.831 274.162 245.087 274.162C244.247 274.162 243.479 273.946 242.783 273.514C242.099 273.082 241.553 272.476 241.145 271.696C240.749 270.904 240.551 269.998 240.551 268.978ZM248.399 269.014C248.399 268.402 248.279 267.88 248.039 267.448C247.799 267.004 247.475 266.668 247.067 266.44C246.659 266.2 246.221 266.08 245.753 266.08C245.285 266.08 244.853 266.194 244.457 266.422C244.061 266.65 243.737 266.986 243.485 267.43C243.245 267.862 243.125 268.378 243.125 268.978C243.125 269.578 243.245 270.106 243.485 270.562C243.737 271.006 244.061 271.348 244.457 271.588C244.865 271.828 245.297 271.948 245.753 271.948C246.221 271.948 246.659 271.834 247.067 271.606C247.475 271.366 247.799 271.03 248.039 270.598C248.279 270.154 248.399 269.626 248.399 269.014ZM255.972 266.098V270.922C255.972 271.258 256.05 271.504 256.206 271.66C256.374 271.804 256.65 271.876 257.034 271.876H258.204V274H256.62C254.496 274 253.434 272.968 253.434 270.904V266.098H252.246V264.028H253.434V261.562H255.972V264.028H258.204V266.098H255.972ZM259.008 268.978C259.008 267.97 259.206 267.076 259.602 266.296C260.01 265.516 260.556 264.916 261.24 264.496C261.936 264.076 262.71 263.866 263.562 263.866C264.306 263.866 264.954 264.016 265.506 264.316C266.07 264.616 266.52 264.994 266.856 265.45V264.028H269.394V274H266.856V272.542C266.532 273.01 266.082 273.4 265.506 273.712C264.942 274.012 264.288 274.162 263.544 274.162C262.704 274.162 261.936 273.946 261.24 273.514C260.556 273.082 260.01 272.476 259.602 271.696C259.206 270.904 259.008 269.998 259.008 268.978ZM266.856 269.014C266.856 268.402 266.736 267.88 266.496 267.448C266.256 267.004 265.932 266.668 265.524 266.44C265.116 266.2 264.678 266.08 264.21 266.08C263.742 266.08 263.31 266.194 262.914 266.422C262.518 266.65 262.194 266.986 261.942 267.43C261.702 267.862 261.582 268.378 261.582 268.978C261.582 269.578 261.702 270.106 261.942 270.562C262.194 271.006 262.518 271.348 262.914 271.588C263.322 271.828 263.754 271.948 264.21 271.948C264.678 271.948 265.116 271.834 265.524 271.606C265.932 271.366 266.256 271.03 266.496 270.598C266.736 270.154 266.856 269.626 266.856 269.014Z" fill="white"/>
<path d="M229.702 137.324C229.702 137.996 229.54 138.626 229.216 139.214C228.904 139.802 228.406 140.276 227.722 140.636C227.05 140.996 226.198 141.176 225.166 141.176H223.06V146H220.54V133.436H225.166C226.138 133.436 226.966 133.604 227.65 133.94C228.334 134.276 228.844 134.738 229.18 135.326C229.528 135.914 229.702 136.58 229.702 137.324ZM225.058 139.142C225.754 139.142 226.27 138.986 226.606 138.674C226.942 138.35 227.11 137.9 227.11 137.324C227.11 136.1 226.426 135.488 225.058 135.488H223.06V139.142H225.058ZM233.651 137.576C233.975 137.048 234.395 136.634 234.911 136.334C235.439 136.034 236.039 135.884 236.711 135.884V138.53H236.045C235.253 138.53 234.653 138.716 234.245 139.088C233.849 139.46 233.651 140.108 233.651 141.032V146H231.131V136.028H233.651V137.576ZM242.477 146.162C241.517 146.162 240.653 145.952 239.885 145.532C239.117 145.1 238.511 144.494 238.067 143.714C237.635 142.934 237.419 142.034 237.419 141.014C237.419 139.994 237.641 139.094 238.085 138.314C238.541 137.534 239.159 136.934 239.939 136.514C240.719 136.082 241.589 135.866 242.549 135.866C243.509 135.866 244.379 136.082 245.159 136.514C245.939 136.934 246.551 137.534 246.995 138.314C247.451 139.094 247.679 139.994 247.679 141.014C247.679 142.034 247.445 142.934 246.977 143.714C246.521 144.494 245.897 145.1 245.105 145.532C244.325 145.952 243.449 146.162 242.477 146.162ZM242.477 143.966C242.933 143.966 243.359 143.858 243.755 143.642C244.163 143.414 244.487 143.078 244.727 142.634C244.967 142.19 245.087 141.65 245.087 141.014C245.087 140.066 244.835 139.34 244.331 138.836C243.839 138.32 243.233 138.062 242.513 138.062C241.793 138.062 241.187 138.32 240.695 138.836C240.215 139.34 239.975 140.066 239.975 141.014C239.975 141.962 240.209 142.694 240.677 143.21C241.157 143.714 241.757 143.966 242.477 143.966ZM253.595 146.162C252.635 146.162 251.771 145.952 251.003 145.532C250.235 145.1 249.629 144.494 249.185 143.714C248.753 142.934 248.537 142.034 248.537 141.014C248.537 139.994 248.759 139.094 249.203 138.314C249.659 137.534 250.277 136.934 251.057 136.514C251.837 136.082 252.707 135.866 253.667 135.866C254.627 135.866 255.497 136.082 256.277 136.514C257.057 136.934 257.669 137.534 258.113 138.314C258.569 139.094 258.797 139.994 258.797 141.014C258.797 142.034 258.563 142.934 258.095 143.714C257.639 144.494 257.015 145.1 256.223 145.532C255.443 145.952 254.567 146.162 253.595 146.162ZM253.595 143.966C254.051 143.966 254.477 143.858 254.873 143.642C255.281 143.414 255.605 143.078 255.845 142.634C256.085 142.19 256.205 141.65 256.205 141.014C256.205 140.066 255.953 139.34 255.449 138.836C254.957 138.32 254.351 138.062 253.631 138.062C252.911 138.062 252.305 138.32 251.813 138.836C251.333 139.34 251.093 140.066 251.093 141.014C251.093 141.962 251.327 142.694 251.795 143.21C252.275 143.714 252.875 143.966 253.595 143.966ZM264.858 138.098H263.112V146H260.556V138.098H259.422V136.028H260.556V135.524C260.556 134.3 260.904 133.4 261.6 132.824C262.296 132.248 263.346 131.978 264.75 132.014V134.138C264.138 134.126 263.712 134.228 263.472 134.444C263.232 134.66 263.112 135.05 263.112 135.614V136.028H264.858V138.098ZM274.488 146.162C273.528 146.162 272.664 145.952 271.896 145.532C271.128 145.1 270.522 144.494 270.078 143.714C269.646 142.934 269.43 142.034 269.43 141.014C269.43 139.994 269.652 139.094 270.096 138.314C270.552 137.534 271.17 136.934 271.95 136.514C272.73 136.082 273.6 135.866 274.56 135.866C275.52 135.866 276.39 136.082 277.17 136.514C277.95 136.934 278.562 137.534 279.006 138.314C279.462 139.094 279.69 139.994 279.69 141.014C279.69 142.034 279.456 142.934 278.988 143.714C278.532 144.494 277.908 145.1 277.116 145.532C276.336 145.952 275.46 146.162 274.488 146.162ZM274.488 143.966C274.944 143.966 275.37 143.858 275.766 143.642C276.174 143.414 276.498 143.078 276.738 142.634C276.978 142.19 277.098 141.65 277.098 141.014C277.098 140.066 276.846 139.34 276.342 138.836C275.85 138.32 275.244 138.062 274.524 138.062C273.804 138.062 273.198 138.32 272.706 138.836C272.226 139.34 271.986 140.066 271.986 141.014C271.986 141.962 272.22 142.694 272.688 143.21C273.168 143.714 273.768 143.966 274.488 143.966ZM285.75 138.098H284.004V146H281.448V138.098H280.314V136.028H281.448V135.524C281.448 134.3 281.796 133.4 282.492 132.824C283.188 132.248 284.238 131.978 285.642 132.014V134.138C285.03 134.126 284.604 134.228 284.364 134.444C284.124 134.66 284.004 135.05 284.004 135.614V136.028H285.75V138.098ZM295.381 146.162C294.421 146.162 293.557 145.952 292.789 145.532C292.021 145.1 291.415 144.494 290.971 143.714C290.539 142.934 290.323 142.034 290.323 141.014C290.323 139.994 290.545 139.094 290.989 138.314C291.445 137.534 292.063 136.934 292.843 136.514C293.623 136.082 294.493 135.866 295.453 135.866C296.413 135.866 297.283 136.082 298.063 136.514C298.843 136.934 299.455 137.534 299.899 138.314C300.355 139.094 300.583 139.994 300.583 141.014C300.583 142.034 300.349 142.934 299.881 143.714C299.425 144.494 298.801 145.1 298.009 145.532C297.229 145.952 296.353 146.162 295.381 146.162ZM295.381 143.966C295.837 143.966 296.263 143.858 296.659 143.642C297.067 143.414 297.391 143.078 297.631 142.634C297.871 142.19 297.991 141.65 297.991 141.014C297.991 140.066 297.739 139.34 297.235 138.836C296.743 138.32 296.137 138.062 295.417 138.062C294.697 138.062 294.091 138.32 293.599 138.836C293.119 139.34 292.879 140.066 292.879 141.014C292.879 141.962 293.113 142.694 293.581 143.21C294.061 143.714 294.661 143.966 295.381 143.966ZM315.895 136.028L312.979 146H310.261L308.443 139.034L306.625 146H303.889L300.955 136.028H303.511L305.275 143.624L307.183 136.028H309.847L311.719 143.606L313.483 136.028H315.895ZM322.425 135.884C323.613 135.884 324.573 136.262 325.305 137.018C326.037 137.762 326.403 138.806 326.403 140.15V146H323.883V140.492C323.883 139.7 323.685 139.094 323.289 138.674C322.893 138.242 322.353 138.026 321.669 138.026C320.973 138.026 320.421 138.242 320.013 138.674C319.617 139.094 319.419 139.7 319.419 140.492V146H316.899V136.028H319.419V137.27C319.755 136.838 320.181 136.502 320.697 136.262C321.225 136.01 321.801 135.884 322.425 135.884ZM337.709 140.798C337.709 141.158 337.685 141.482 337.637 141.77H330.347C330.407 142.49 330.659 143.054 331.103 143.462C331.547 143.87 332.093 144.074 332.741 144.074C333.677 144.074 334.343 143.672 334.739 142.868H337.457C337.169 143.828 336.617 144.62 335.801 145.244C334.985 145.856 333.983 146.162 332.795 146.162C331.835 146.162 330.971 145.952 330.203 145.532C329.447 145.1 328.853 144.494 328.421 143.714C328.001 142.934 327.791 142.034 327.791 141.014C327.791 139.982 328.001 139.076 328.421 138.296C328.841 137.516 329.429 136.916 330.185 136.496C330.941 136.076 331.811 135.866 332.795 135.866C333.743 135.866 334.589 136.07 335.333 136.478C336.089 136.886 336.671 137.468 337.079 138.224C337.499 138.968 337.709 139.826 337.709 140.798ZM335.099 140.078C335.087 139.43 334.853 138.914 334.397 138.53C333.941 138.134 333.383 137.936 332.723 137.936C332.099 137.936 331.571 138.128 331.139 138.512C330.719 138.884 330.461 139.406 330.365 140.078H335.099ZM341.708 137.576C342.032 137.048 342.452 136.634 342.968 136.334C343.496 136.034 344.096 135.884 344.768 135.884V138.53H344.102C343.31 138.53 342.71 138.716 342.302 139.088C341.906 139.46 341.708 140.108 341.708 141.032V146H339.188V136.028H341.708V137.576ZM349.922 146.162C349.106 146.162 348.374 146.018 347.726 145.73C347.078 145.43 346.562 145.028 346.178 144.524C345.806 144.02 345.602 143.462 345.566 142.85H348.104C348.152 143.234 348.338 143.552 348.662 143.804C348.998 144.056 349.412 144.182 349.904 144.182C350.384 144.182 350.756 144.086 351.02 143.894C351.296 143.702 351.434 143.456 351.434 143.156C351.434 142.832 351.266 142.592 350.93 142.436C350.606 142.268 350.084 142.088 349.364 141.896C348.62 141.716 348.008 141.53 347.528 141.338C347.06 141.146 346.652 140.852 346.304 140.456C345.968 140.06 345.8 139.526 345.8 138.854C345.8 138.302 345.956 137.798 346.268 137.342C346.592 136.886 347.048 136.526 347.636 136.262C348.236 135.998 348.938 135.866 349.742 135.866C350.93 135.866 351.878 136.166 352.586 136.766C353.294 137.354 353.684 138.152 353.756 139.16H351.344C351.308 138.764 351.14 138.452 350.84 138.224C350.552 137.984 350.162 137.864 349.67 137.864C349.214 137.864 348.86 137.948 348.608 138.116C348.368 138.284 348.248 138.518 348.248 138.818C348.248 139.154 348.416 139.412 348.752 139.592C349.088 139.76 349.61 139.934 350.318 140.114C351.038 140.294 351.632 140.48 352.1 140.672C352.568 140.864 352.97 141.164 353.306 141.572C353.654 141.968 353.834 142.496 353.846 143.156C353.846 143.732 353.684 144.248 353.36 144.704C353.048 145.16 352.592 145.52 351.992 145.784C351.404 146.036 350.714 146.162 349.922 146.162ZM361.17 135.884C361.926 135.884 362.598 136.052 363.186 136.388C363.774 136.712 364.23 137.198 364.554 137.846C364.89 138.482 365.058 139.25 365.058 140.15V146H362.538V140.492C362.538 139.7 362.34 139.094 361.944 138.674C361.548 138.242 361.008 138.026 360.324 138.026C359.628 138.026 359.076 138.242 358.668 138.674C358.272 139.094 358.074 139.7 358.074 140.492V146H355.554V132.68H358.074V137.27C358.398 136.838 358.83 136.502 359.37 136.262C359.91 136.01 360.51 135.884 361.17 135.884ZM368.373 134.84C367.929 134.84 367.557 134.702 367.257 134.426C366.969 134.138 366.825 133.784 366.825 133.364C366.825 132.944 366.969 132.596 367.257 132.32C367.557 132.032 367.929 131.888 368.373 131.888C368.817 131.888 369.183 132.032 369.471 132.32C369.771 132.596 369.921 132.944 369.921 133.364C369.921 133.784 369.771 134.138 369.471 134.426C369.183 134.702 368.817 134.84 368.373 134.84ZM369.615 136.028V146H367.095V136.028H369.615ZM374.265 137.468C374.589 137.012 375.033 136.634 375.597 136.334C376.173 136.022 376.827 135.866 377.559 135.866C378.411 135.866 379.179 136.076 379.863 136.496C380.559 136.916 381.105 137.516 381.501 138.296C381.909 139.064 382.113 139.958 382.113 140.978C382.113 141.998 381.909 142.904 381.501 143.696C381.105 144.476 380.559 145.082 379.863 145.514C379.179 145.946 378.411 146.162 377.559 146.162C376.827 146.162 376.179 146.012 375.615 145.712C375.063 145.412 374.613 145.034 374.265 144.578V150.752H371.745V136.028H374.265V137.468ZM379.539 140.978C379.539 140.378 379.413 139.862 379.161 139.43C378.921 138.986 378.597 138.65 378.189 138.422C377.793 138.194 377.361 138.08 376.893 138.08C376.437 138.08 376.005 138.2 375.597 138.44C375.201 138.668 374.877 139.004 374.625 139.448C374.385 139.892 374.265 140.414 374.265 141.014C374.265 141.614 374.385 142.136 374.625 142.58C374.877 143.024 375.201 143.366 375.597 143.606C376.005 143.834 376.437 143.948 376.893 143.948C377.361 143.948 377.793 143.828 378.189 143.588C378.597 143.348 378.921 143.006 379.161 142.562C379.413 142.118 379.539 141.59 379.539 140.978Z" fill="white"/>
<path d="M990.751 18.126C989.575 18.126 988.495 17.85 987.511 17.298C986.527 16.746 985.747 15.984 985.171 15.012C984.595 14.028 984.307 12.918 984.307 11.682C984.307 10.458 984.595 9.36 985.171 8.388C985.747 7.404 986.527 6.636 987.511 6.084C988.495 5.532 989.575 5.256 990.751 5.256C991.939 5.256 993.019 5.532 993.991 6.084C994.975 6.636 995.749 7.404 996.313 8.388C996.889 9.36 997.177 10.458 997.177 11.682C997.177 12.918 996.889 14.028 996.313 15.012C995.749 15.984 994.975 16.746 993.991 17.298C993.007 17.85 991.927 18.126 990.751 18.126ZM990.751 15.876C991.507 15.876 992.173 15.708 992.749 15.372C993.325 15.024 993.775 14.532 994.099 13.896C994.423 13.26 994.585 12.522 994.585 11.682C994.585 10.842 994.423 10.11 994.099 9.486C993.775 8.85 993.325 8.364 992.749 8.028C992.173 7.692 991.507 7.524 990.751 7.524C989.995 7.524 989.323 7.692 988.735 8.028C988.159 8.364 987.709 8.85 987.385 9.486C987.061 10.11 986.899 10.842 986.899 11.682C986.899 12.522 987.061 13.26 987.385 13.896C987.709 14.532 988.159 15.024 988.735 15.372C989.323 15.708 989.995 15.876 990.751 15.876ZM1001.21 9.468C1001.54 9.012 1001.98 8.634 1002.54 8.334C1003.12 8.022 1003.77 7.866 1004.51 7.866C1005.36 7.866 1006.13 8.076 1006.81 8.496C1007.51 8.916 1008.05 9.516 1008.45 10.296C1008.86 11.064 1009.06 11.958 1009.06 12.978C1009.06 13.998 1008.86 14.904 1008.45 15.696C1008.05 16.476 1007.51 17.082 1006.81 17.514C1006.13 17.946 1005.36 18.162 1004.51 18.162C1003.77 18.162 1003.13 18.012 1002.56 17.712C1002.01 17.412 1001.56 17.034 1001.21 16.578V22.752H998.692V8.028H1001.21V9.468ZM1006.49 12.978C1006.49 12.378 1006.36 11.862 1006.11 11.43C1005.87 10.986 1005.54 10.65 1005.14 10.422C1004.74 10.194 1004.31 10.08 1003.84 10.08C1003.38 10.08 1002.95 10.2 1002.54 10.44C1002.15 10.668 1001.82 11.004 1001.57 11.448C1001.33 11.892 1001.21 12.414 1001.21 13.014C1001.21 13.614 1001.33 14.136 1001.57 14.58C1001.82 15.024 1002.15 15.366 1002.54 15.606C1002.95 15.834 1003.38 15.948 1003.84 15.948C1004.31 15.948 1004.74 15.828 1005.14 15.588C1005.54 15.348 1005.87 15.006 1006.11 14.562C1006.36 14.118 1006.49 13.59 1006.49 12.978ZM1013.47 10.098V14.922C1013.47 15.258 1013.54 15.504 1013.7 15.66C1013.87 15.804 1014.14 15.876 1014.53 15.876H1015.7V18H1014.11C1011.99 18 1010.93 16.968 1010.93 14.904V10.098H1009.74V8.028H1010.93V5.562H1013.47V8.028H1015.7V10.098H1013.47ZM1018.43 6.84C1017.98 6.84 1017.61 6.702 1017.31 6.426C1017.02 6.138 1016.88 5.784 1016.88 5.364C1016.88 4.944 1017.02 4.596 1017.31 4.32C1017.61 4.032 1017.98 3.888 1018.43 3.888C1018.87 3.888 1019.24 4.032 1019.53 4.32C1019.83 4.596 1019.98 4.944 1019.98 5.364C1019.98 5.784 1019.83 6.138 1019.53 6.426C1019.24 6.702 1018.87 6.84 1018.43 6.84ZM1019.67 8.028V18H1017.15V8.028H1019.67ZM1026.23 18.162C1025.27 18.162 1024.4 17.952 1023.64 17.532C1022.87 17.1 1022.26 16.494 1021.82 15.714C1021.39 14.934 1021.17 14.034 1021.17 13.014C1021.17 11.994 1021.39 11.094 1021.84 10.314C1022.29 9.534 1022.91 8.934 1023.69 8.514C1024.47 8.082 1025.34 7.866 1026.3 7.866C1027.26 7.866 1028.13 8.082 1028.91 8.514C1029.69 8.934 1030.3 9.534 1030.75 10.314C1031.2 11.094 1031.43 11.994 1031.43 13.014C1031.43 14.034 1031.2 14.934 1030.73 15.714C1030.27 16.494 1029.65 17.1 1028.86 17.532C1028.08 17.952 1027.2 18.162 1026.23 18.162ZM1026.23 15.966C1026.68 15.966 1027.11 15.858 1027.51 15.642C1027.91 15.414 1028.24 15.078 1028.48 14.634C1028.72 14.19 1028.84 13.65 1028.84 13.014C1028.84 12.066 1028.59 11.34 1028.08 10.836C1027.59 10.32 1026.98 10.062 1026.26 10.062C1025.54 10.062 1024.94 10.32 1024.45 10.836C1023.97 11.34 1023.73 12.066 1023.73 13.014C1023.73 13.962 1023.96 14.694 1024.43 15.21C1024.91 15.714 1025.51 15.966 1026.23 15.966ZM1038.44 7.884C1039.63 7.884 1040.59 8.262 1041.32 9.018C1042.06 9.762 1042.42 10.806 1042.42 12.15V18H1039.9V12.492C1039.9 11.7 1039.7 11.094 1039.31 10.674C1038.91 10.242 1038.37 10.026 1037.69 10.026C1036.99 10.026 1036.44 10.242 1036.03 10.674C1035.64 11.094 1035.44 11.7 1035.44 12.492V18H1032.92V8.028H1035.44V9.27C1035.77 8.838 1036.2 8.502 1036.72 8.262C1037.24 8.01 1037.82 7.884 1038.44 7.884ZM1051.32 10.098V14.922C1051.32 15.258 1051.4 15.504 1051.56 15.66C1051.72 15.804 1052 15.876 1052.38 15.876H1053.55V18H1051.97C1049.85 18 1048.78 16.968 1048.78 14.904V10.098H1047.6V8.028H1048.78V5.562H1051.32V8.028H1053.55V10.098H1051.32ZM1059.43 18.162C1058.47 18.162 1057.61 17.952 1056.84 17.532C1056.07 17.1 1055.47 16.494 1055.02 15.714C1054.59 14.934 1054.38 14.034 1054.38 13.014C1054.38 11.994 1054.6 11.094 1055.04 10.314C1055.5 9.534 1056.12 8.934 1056.9 8.514C1057.68 8.082 1058.55 7.866 1059.51 7.866C1060.47 7.866 1061.34 8.082 1062.12 8.514C1062.9 8.934 1063.51 9.534 1063.95 10.314C1064.41 11.094 1064.64 11.994 1064.64 13.014C1064.64 14.034 1064.4 14.934 1063.93 15.714C1063.48 16.494 1062.85 17.1 1062.06 17.532C1061.28 17.952 1060.41 18.162 1059.43 18.162ZM1059.43 15.966C1059.89 15.966 1060.32 15.858 1060.71 15.642C1061.12 15.414 1061.44 15.078 1061.68 14.634C1061.92 14.19 1062.04 13.65 1062.04 13.014C1062.04 12.066 1061.79 11.34 1061.29 10.836C1060.8 10.32 1060.19 10.062 1059.47 10.062C1058.75 10.062 1058.14 10.32 1057.65 10.836C1057.17 11.34 1056.93 12.066 1056.93 13.014C1056.93 13.962 1057.17 14.694 1057.63 15.21C1058.11 15.714 1058.71 15.966 1059.43 15.966ZM1073.87 18.162C1073.05 18.162 1072.32 18.018 1071.67 17.73C1071.03 17.43 1070.51 17.028 1070.13 16.524C1069.75 16.02 1069.55 15.462 1069.51 14.85H1072.05C1072.1 15.234 1072.29 15.552 1072.61 15.804C1072.95 16.056 1073.36 16.182 1073.85 16.182C1074.33 16.182 1074.7 16.086 1074.97 15.894C1075.24 15.702 1075.38 15.456 1075.38 15.156C1075.38 14.832 1075.21 14.592 1074.88 14.436C1074.55 14.268 1074.03 14.088 1073.31 13.896C1072.57 13.716 1071.96 13.53 1071.48 13.338C1071.01 13.146 1070.6 12.852 1070.25 12.456C1069.92 12.06 1069.75 11.526 1069.75 10.854C1069.75 10.302 1069.9 9.798 1070.22 9.342C1070.54 8.886 1071 8.526 1071.58 8.262C1072.18 7.998 1072.89 7.866 1073.69 7.866C1074.88 7.866 1075.83 8.166 1076.53 8.766C1077.24 9.354 1077.63 10.152 1077.7 11.16H1075.29C1075.26 10.764 1075.09 10.452 1074.79 10.224C1074.5 9.984 1074.11 9.864 1073.62 9.864C1073.16 9.864 1072.81 9.948 1072.56 10.116C1072.32 10.284 1072.2 10.518 1072.2 10.818C1072.2 11.154 1072.36 11.412 1072.7 11.592C1073.04 11.76 1073.56 11.934 1074.27 12.114C1074.99 12.294 1075.58 12.48 1076.05 12.672C1076.52 12.864 1076.92 13.164 1077.25 13.572C1077.6 13.968 1077.78 14.496 1077.79 15.156C1077.79 15.732 1077.63 16.248 1077.31 16.704C1077 17.16 1076.54 17.52 1075.94 17.784C1075.35 18.036 1074.66 18.162 1073.87 18.162ZM1088.77 12.798C1088.77 13.158 1088.75 13.482 1088.7 13.77H1081.41C1081.47 14.49 1081.72 15.054 1082.17 15.462C1082.61 15.87 1083.16 16.074 1083.8 16.074C1084.74 16.074 1085.41 15.672 1085.8 14.868H1088.52C1088.23 15.828 1087.68 16.62 1086.86 17.244C1086.05 17.856 1085.05 18.162 1083.86 18.162C1082.9 18.162 1082.03 17.952 1081.27 17.532C1080.51 17.1 1079.92 16.494 1079.48 15.714C1079.06 14.934 1078.85 14.034 1078.85 13.014C1078.85 11.982 1079.06 11.076 1079.48 10.296C1079.9 9.516 1080.49 8.916 1081.25 8.496C1082 8.076 1082.87 7.866 1083.86 7.866C1084.81 7.866 1085.65 8.07 1086.4 8.478C1087.15 8.886 1087.73 9.468 1088.14 10.224C1088.56 10.968 1088.77 11.826 1088.77 12.798ZM1086.16 12.078C1086.15 11.43 1085.92 10.914 1085.46 10.53C1085 10.134 1084.45 9.936 1083.79 9.936C1083.16 9.936 1082.63 10.128 1082.2 10.512C1081.78 10.884 1081.52 11.406 1081.43 12.078H1086.16ZM1092.77 4.68V18H1090.25V4.68H1092.77ZM1097.42 4.68V18H1094.9V4.68H1097.42ZM1106.3 0.954L1101.44 21.258H1098.97L1103.83 0.954H1106.3ZM1110.46 9.486C1110.79 9.006 1111.23 8.616 1111.8 8.316C1112.37 8.016 1113.03 7.866 1113.76 7.866C1114.61 7.866 1115.38 8.076 1116.06 8.496C1116.76 8.916 1117.3 9.516 1117.7 10.296C1118.11 11.064 1118.31 11.958 1118.31 12.978C1118.31 13.998 1118.11 14.904 1117.7 15.696C1117.3 16.476 1116.76 17.082 1116.06 17.514C1115.38 17.946 1114.61 18.162 1113.76 18.162C1113.01 18.162 1112.36 18.018 1111.8 17.73C1111.24 17.43 1110.8 17.046 1110.46 16.578V18H1107.94V4.68H1110.46V9.486ZM1115.74 12.978C1115.74 12.378 1115.61 11.862 1115.36 11.43C1115.12 10.986 1114.8 10.65 1114.39 10.422C1113.99 10.194 1113.56 10.08 1113.09 10.08C1112.64 10.08 1112.2 10.2 1111.8 10.44C1111.4 10.668 1111.08 11.004 1110.82 11.448C1110.58 11.892 1110.46 12.414 1110.46 13.014C1110.46 13.614 1110.58 14.136 1110.82 14.58C1111.08 15.024 1111.4 15.366 1111.8 15.606C1112.2 15.834 1112.64 15.948 1113.09 15.948C1113.56 15.948 1113.99 15.828 1114.39 15.588C1114.8 15.348 1115.12 15.006 1115.36 14.562C1115.61 14.118 1115.74 13.59 1115.74 12.978ZM1129.2 8.028V18H1126.66V16.74C1126.34 17.172 1125.91 17.514 1125.38 17.766C1124.87 18.006 1124.3 18.126 1123.69 18.126C1122.91 18.126 1122.22 17.964 1121.62 17.64C1121.02 17.304 1120.55 16.818 1120.2 16.182C1119.86 15.534 1119.69 14.766 1119.69 13.878V8.028H1122.21V13.518C1122.21 14.31 1122.41 14.922 1122.81 15.354C1123.2 15.774 1123.74 15.984 1124.43 15.984C1125.12 15.984 1125.67 15.774 1126.07 15.354C1126.46 14.922 1126.66 14.31 1126.66 13.518V8.028H1129.2ZM1140.86 8.028L1134.69 22.716H1132.01L1134.17 17.748L1130.17 8.028H1133L1135.57 14.994L1138.18 8.028H1140.86ZM1145.14 12.978C1145.14 11.97 1145.34 11.076 1145.74 10.296C1146.15 9.516 1146.69 8.916 1147.38 8.496C1148.07 8.076 1148.85 7.866 1149.7 7.866C1150.44 7.866 1151.09 8.016 1151.64 8.316C1152.21 8.616 1152.66 8.994 1152.99 9.45V8.028H1155.53V18H1152.99V16.542C1152.67 17.01 1152.22 17.4 1151.64 17.712C1151.08 18.012 1150.42 18.162 1149.68 18.162C1148.84 18.162 1148.07 17.946 1147.38 17.514C1146.69 17.082 1146.15 16.476 1145.74 15.696C1145.34 14.904 1145.14 13.998 1145.14 12.978ZM1152.99 13.014C1152.99 12.402 1152.87 11.88 1152.63 11.448C1152.39 11.004 1152.07 10.668 1151.66 10.44C1151.25 10.2 1150.81 10.08 1150.35 10.08C1149.88 10.08 1149.45 10.194 1149.05 10.422C1148.65 10.65 1148.33 10.986 1148.08 11.43C1147.84 11.862 1147.72 12.378 1147.72 12.978C1147.72 13.578 1147.84 14.106 1148.08 14.562C1148.33 15.006 1148.65 15.348 1149.05 15.588C1149.46 15.828 1149.89 15.948 1150.35 15.948C1150.81 15.948 1151.25 15.834 1151.66 15.606C1152.07 15.366 1152.39 15.03 1152.63 14.598C1152.87 14.154 1152.99 13.626 1152.99 13.014ZM1163.16 7.884C1164.35 7.884 1165.31 8.262 1166.04 9.018C1166.77 9.762 1167.14 10.806 1167.14 12.15V18H1164.62V12.492C1164.62 11.7 1164.42 11.094 1164.02 10.674C1163.63 10.242 1163.09 10.026 1162.4 10.026C1161.71 10.026 1161.15 10.242 1160.75 10.674C1160.35 11.094 1160.15 11.7 1160.15 12.492V18H1157.63V8.028H1160.15V9.27C1160.49 8.838 1160.91 8.502 1161.43 8.262C1161.96 8.01 1162.53 7.884 1163.16 7.884ZM1172.45 12.978C1172.45 11.97 1172.65 11.076 1173.05 10.296C1173.45 9.516 1174 8.916 1174.68 8.496C1175.38 8.076 1176.15 7.866 1177.01 7.866C1177.75 7.866 1178.4 8.016 1178.95 8.316C1179.51 8.616 1179.96 8.994 1180.3 9.45V8.028H1182.84V18H1180.3V16.542C1179.98 17.01 1179.53 17.4 1178.95 17.712C1178.39 18.012 1177.73 18.162 1176.99 18.162C1176.15 18.162 1175.38 17.946 1174.68 17.514C1174 17.082 1173.45 16.476 1173.05 15.696C1172.65 14.904 1172.45 13.998 1172.45 12.978ZM1180.3 13.014C1180.3 12.402 1180.18 11.88 1179.94 11.448C1179.7 11.004 1179.38 10.668 1178.97 10.44C1178.56 10.2 1178.12 10.08 1177.65 10.08C1177.19 10.08 1176.75 10.194 1176.36 10.422C1175.96 10.65 1175.64 10.986 1175.39 11.43C1175.15 11.862 1175.03 12.378 1175.03 12.978C1175.03 13.578 1175.15 14.106 1175.39 14.562C1175.64 15.006 1175.96 15.348 1176.36 15.588C1176.77 15.828 1177.2 15.948 1177.65 15.948C1178.12 15.948 1178.56 15.834 1178.97 15.606C1179.38 15.366 1179.7 15.03 1179.94 14.598C1180.18 14.154 1180.3 13.626 1180.3 13.014ZM1188.76 18.162C1187.94 18.162 1187.21 18.018 1186.56 17.73C1185.91 17.43 1185.4 17.028 1185.01 16.524C1184.64 16.02 1184.44 15.462 1184.4 14.85H1186.94C1186.99 15.234 1187.17 15.552 1187.5 15.804C1187.83 16.056 1188.25 16.182 1188.74 16.182C1189.22 16.182 1189.59 16.086 1189.85 15.894C1190.13 15.702 1190.27 15.456 1190.27 15.156C1190.27 14.832 1190.1 14.592 1189.76 14.436C1189.44 14.268 1188.92 14.088 1188.2 13.896C1187.45 13.716 1186.84 13.53 1186.36 13.338C1185.89 13.146 1185.49 12.852 1185.14 12.456C1184.8 12.06 1184.63 11.526 1184.63 10.854C1184.63 10.302 1184.79 9.798 1185.1 9.342C1185.43 8.886 1185.88 8.526 1186.47 8.262C1187.07 7.998 1187.77 7.866 1188.58 7.866C1189.76 7.866 1190.71 8.166 1191.42 8.766C1192.13 9.354 1192.52 10.152 1192.59 11.16H1190.18C1190.14 10.764 1189.97 10.452 1189.67 10.224C1189.39 9.984 1189 9.864 1188.5 9.864C1188.05 9.864 1187.69 9.948 1187.44 10.116C1187.2 10.284 1187.08 10.518 1187.08 10.818C1187.08 11.154 1187.25 11.412 1187.59 11.592C1187.92 11.76 1188.44 11.934 1189.15 12.114C1189.87 12.294 1190.47 12.48 1190.93 12.672C1191.4 12.864 1191.8 13.164 1192.14 13.572C1192.49 13.968 1192.67 14.496 1192.68 15.156C1192.68 15.732 1192.52 16.248 1192.19 16.704C1191.88 17.16 1191.43 17.52 1190.83 17.784C1190.24 18.036 1189.55 18.162 1188.76 18.162ZM1198.2 18.162C1197.39 18.162 1196.66 18.018 1196.01 17.73C1195.36 17.43 1194.84 17.028 1194.46 16.524C1194.09 16.02 1193.88 15.462 1193.85 14.85H1196.39C1196.43 15.234 1196.62 15.552 1196.94 15.804C1197.28 16.056 1197.69 16.182 1198.19 16.182C1198.67 16.182 1199.04 16.086 1199.3 15.894C1199.58 15.702 1199.72 15.456 1199.72 15.156C1199.72 14.832 1199.55 14.592 1199.21 14.436C1198.89 14.268 1198.37 14.088 1197.65 13.896C1196.9 13.716 1196.29 13.53 1195.81 13.338C1195.34 13.146 1194.93 12.852 1194.59 12.456C1194.25 12.06 1194.08 11.526 1194.08 10.854C1194.08 10.302 1194.24 9.798 1194.55 9.342C1194.87 8.886 1195.33 8.526 1195.92 8.262C1196.52 7.998 1197.22 7.866 1198.02 7.866C1199.21 7.866 1200.16 8.166 1200.87 8.766C1201.58 9.354 1201.97 10.152 1202.04 11.16H1199.63C1199.59 10.764 1199.42 10.452 1199.12 10.224C1198.83 9.984 1198.44 9.864 1197.95 9.864C1197.5 9.864 1197.14 9.948 1196.89 10.116C1196.65 10.284 1196.53 10.518 1196.53 10.818C1196.53 11.154 1196.7 11.412 1197.03 11.592C1197.37 11.76 1197.89 11.934 1198.6 12.114C1199.32 12.294 1199.91 12.48 1200.38 12.672C1200.85 12.864 1201.25 13.164 1201.59 13.572C1201.94 13.968 1202.12 14.496 1202.13 15.156C1202.13 15.732 1201.97 16.248 1201.64 16.704C1201.33 17.16 1200.87 17.52 1200.27 17.784C1199.69 18.036 1199 18.162 1198.2 18.162ZM1213.11 12.798C1213.11 13.158 1213.08 13.482 1213.04 13.77H1205.75C1205.81 14.49 1206.06 15.054 1206.5 15.462C1206.95 15.87 1207.49 16.074 1208.14 16.074C1209.08 16.074 1209.74 15.672 1210.14 14.868H1212.86C1212.57 15.828 1212.02 16.62 1211.2 17.244C1210.38 17.856 1209.38 18.162 1208.19 18.162C1207.23 18.162 1206.37 17.952 1205.6 17.532C1204.85 17.1 1204.25 16.494 1203.82 15.714C1203.4 14.934 1203.19 14.034 1203.19 13.014C1203.19 11.982 1203.4 11.076 1203.82 10.296C1204.24 9.516 1204.83 8.916 1205.58 8.496C1206.34 8.076 1207.21 7.866 1208.19 7.866C1209.14 7.866 1209.99 8.07 1210.73 8.478C1211.49 8.886 1212.07 9.468 1212.48 10.224C1212.9 10.968 1213.11 11.826 1213.11 12.798ZM1210.5 12.078C1210.49 11.43 1210.25 10.914 1209.8 10.53C1209.34 10.134 1208.78 9.936 1208.12 9.936C1207.5 9.936 1206.97 10.128 1206.54 10.512C1206.12 10.884 1205.86 11.406 1205.76 12.078H1210.5ZM1217.52 10.098V14.922C1217.52 15.258 1217.6 15.504 1217.75 15.66C1217.92 15.804 1218.2 15.876 1218.58 15.876H1219.75V18H1218.17C1216.04 18 1214.98 16.968 1214.98 14.904V10.098H1213.79V8.028H1214.98V5.562H1217.52V8.028H1219.75V10.098H1217.52Z" fill="white"/>
<path d="M986.908 261.436V274H984.388V261.436H986.908ZM1001.42 263.884C1002.65 263.884 1003.63 264.262 1004.37 265.018C1005.13 265.762 1005.51 266.806 1005.51 268.15V274H1002.99V268.492C1002.99 267.712 1002.79 267.118 1002.39 266.71C1002 266.29 1001.46 266.08 1000.77 266.08C1000.09 266.08 999.543 266.29 999.135 266.71C998.739 267.118 998.541 267.712 998.541 268.492V274H996.021V268.492C996.021 267.712 995.823 267.118 995.427 266.71C995.031 266.29 994.491 266.08 993.807 266.08C993.111 266.08 992.559 266.29 992.151 266.71C991.755 267.118 991.557 267.712 991.557 268.492V274H989.037V264.028H991.557V265.234C991.881 264.814 992.295 264.484 992.799 264.244C993.315 264.004 993.879 263.884 994.491 263.884C995.271 263.884 995.967 264.052 996.579 264.388C997.191 264.712 997.665 265.18 998.001 265.792C998.325 265.216 998.793 264.754 999.405 264.406C1000.03 264.058 1000.7 263.884 1001.42 263.884ZM1019.92 263.884C1021.15 263.884 1022.13 264.262 1022.87 265.018C1023.63 265.762 1024.01 266.806 1024.01 268.15V274H1021.49V268.492C1021.49 267.712 1021.29 267.118 1020.89 266.71C1020.5 266.29 1019.96 266.08 1019.27 266.08C1018.59 266.08 1018.04 266.29 1017.64 266.71C1017.24 267.118 1017.04 267.712 1017.04 268.492V274H1014.52V268.492C1014.52 267.712 1014.32 267.118 1013.93 266.71C1013.53 266.29 1012.99 266.08 1012.31 266.08C1011.61 266.08 1011.06 266.29 1010.65 266.71C1010.26 267.118 1010.06 267.712 1010.06 268.492V274H1007.54V264.028H1010.06V265.234C1010.38 264.814 1010.8 264.484 1011.3 264.244C1011.82 264.004 1012.38 263.884 1012.99 263.884C1013.77 263.884 1014.47 264.052 1015.08 264.388C1015.69 264.712 1016.17 265.18 1016.5 265.792C1016.83 265.216 1017.29 264.754 1017.91 264.406C1018.53 264.058 1019.2 263.884 1019.92 263.884ZM1035.45 264.028V274H1032.92V272.74C1032.59 273.172 1032.17 273.514 1031.64 273.766C1031.12 274.006 1030.56 274.126 1029.95 274.126C1029.17 274.126 1028.48 273.964 1027.88 273.64C1027.28 273.304 1026.8 272.818 1026.45 272.182C1026.12 271.534 1025.95 270.766 1025.95 269.878V264.028H1028.47V269.518C1028.47 270.31 1028.67 270.922 1029.06 271.354C1029.46 271.774 1030 271.984 1030.68 271.984C1031.38 271.984 1031.93 271.774 1032.32 271.354C1032.72 270.922 1032.92 270.31 1032.92 269.518V264.028H1035.45ZM1040.51 266.098V270.922C1040.51 271.258 1040.59 271.504 1040.75 271.66C1040.92 271.804 1041.19 271.876 1041.58 271.876H1042.75V274H1041.16C1039.04 274 1037.98 272.968 1037.98 270.904V266.098H1036.79V264.028H1037.98V261.562H1040.51V264.028H1042.75V266.098H1040.51ZM1043.55 268.978C1043.55 267.97 1043.75 267.076 1044.14 266.296C1044.55 265.516 1045.1 264.916 1045.78 264.496C1046.48 264.076 1047.25 263.866 1048.1 263.866C1048.85 263.866 1049.5 264.016 1050.05 264.316C1050.61 264.616 1051.06 264.994 1051.4 265.45V264.028H1053.94V274H1051.4V272.542C1051.07 273.01 1050.62 273.4 1050.05 273.712C1049.48 274.012 1048.83 274.162 1048.09 274.162C1047.25 274.162 1046.48 273.946 1045.78 273.514C1045.1 273.082 1044.55 272.476 1044.14 271.696C1043.75 270.904 1043.55 269.998 1043.55 268.978ZM1051.4 269.014C1051.4 268.402 1051.28 267.88 1051.04 267.448C1050.8 267.004 1050.47 266.668 1050.07 266.44C1049.66 266.2 1049.22 266.08 1048.75 266.08C1048.28 266.08 1047.85 266.194 1047.46 266.422C1047.06 266.65 1046.74 266.986 1046.48 267.43C1046.24 267.862 1046.12 268.378 1046.12 268.978C1046.12 269.578 1046.24 270.106 1046.48 270.562C1046.74 271.006 1047.06 271.348 1047.46 271.588C1047.86 271.828 1048.3 271.948 1048.75 271.948C1049.22 271.948 1049.66 271.834 1050.07 271.606C1050.47 271.366 1050.8 271.03 1051.04 270.598C1051.28 270.154 1051.4 269.626 1051.4 269.014ZM1058.56 265.486C1058.88 265.006 1059.33 264.616 1059.89 264.316C1060.47 264.016 1061.12 263.866 1061.85 263.866C1062.7 263.866 1063.47 264.076 1064.16 264.496C1064.85 264.916 1065.4 265.516 1065.79 266.296C1066.2 267.064 1066.41 267.958 1066.41 268.978C1066.41 269.998 1066.2 270.904 1065.79 271.696C1065.4 272.476 1064.85 273.082 1064.16 273.514C1063.47 273.946 1062.7 274.162 1061.85 274.162C1061.11 274.162 1060.45 274.018 1059.89 273.73C1059.34 273.43 1058.89 273.046 1058.56 272.578V274H1056.04V260.68H1058.56V265.486ZM1063.83 268.978C1063.83 268.378 1063.71 267.862 1063.45 267.43C1063.21 266.986 1062.89 266.65 1062.48 266.422C1062.09 266.194 1061.65 266.08 1061.19 266.08C1060.73 266.08 1060.3 266.2 1059.89 266.44C1059.49 266.668 1059.17 267.004 1058.92 267.448C1058.68 267.892 1058.56 268.414 1058.56 269.014C1058.56 269.614 1058.68 270.136 1058.92 270.58C1059.17 271.024 1059.49 271.366 1059.89 271.606C1060.3 271.834 1060.73 271.948 1061.19 271.948C1061.65 271.948 1062.09 271.828 1062.48 271.588C1062.89 271.348 1063.21 271.006 1063.45 270.562C1063.71 270.118 1063.83 269.59 1063.83 268.978ZM1070.4 260.68V274H1067.88V260.68H1070.4ZM1081.8 268.798C1081.8 269.158 1081.77 269.482 1081.73 269.77H1074.44C1074.5 270.49 1074.75 271.054 1075.19 271.462C1075.64 271.87 1076.18 272.074 1076.83 272.074C1077.77 272.074 1078.43 271.672 1078.83 270.868H1081.55C1081.26 271.828 1080.71 272.62 1079.89 273.244C1079.07 273.856 1078.07 274.162 1076.88 274.162C1075.92 274.162 1075.06 273.952 1074.29 273.532C1073.54 273.1 1072.94 272.494 1072.51 271.714C1072.09 270.934 1071.88 270.034 1071.88 269.014C1071.88 267.982 1072.09 267.076 1072.51 266.296C1072.93 265.516 1073.52 264.916 1074.27 264.496C1075.03 264.076 1075.9 263.866 1076.88 263.866C1077.83 263.866 1078.68 264.07 1079.42 264.478C1080.18 264.886 1080.76 265.468 1081.17 266.224C1081.59 266.968 1081.8 267.826 1081.8 268.798ZM1079.19 268.078C1079.18 267.43 1078.94 266.914 1078.49 266.53C1078.03 266.134 1077.47 265.936 1076.81 265.936C1076.19 265.936 1075.66 266.128 1075.23 266.512C1074.81 266.884 1074.55 267.406 1074.45 268.078H1079.19ZM1089.73 260.68V274H1087.21V260.68H1089.73ZM1101.13 268.798C1101.13 269.158 1101.1 269.482 1101.05 269.77H1093.76C1093.82 270.49 1094.08 271.054 1094.52 271.462C1094.96 271.87 1095.51 272.074 1096.16 272.074C1097.09 272.074 1097.76 271.672 1098.16 270.868H1100.87C1100.59 271.828 1100.03 272.62 1099.22 273.244C1098.4 273.856 1097.4 274.162 1096.21 274.162C1095.25 274.162 1094.39 273.952 1093.62 273.532C1092.86 273.1 1092.27 272.494 1091.84 271.714C1091.42 270.934 1091.21 270.034 1091.21 269.014C1091.21 267.982 1091.42 267.076 1091.84 266.296C1092.26 265.516 1092.85 264.916 1093.6 264.496C1094.36 264.076 1095.23 263.866 1096.21 263.866C1097.16 263.866 1098.01 264.07 1098.75 264.478C1099.51 264.886 1100.09 265.468 1100.5 266.224C1100.92 266.968 1101.13 267.826 1101.13 268.798ZM1098.52 268.078C1098.5 267.43 1098.27 266.914 1097.81 266.53C1097.36 266.134 1096.8 265.936 1096.14 265.936C1095.52 265.936 1094.99 266.128 1094.56 266.512C1094.14 266.884 1093.88 267.406 1093.78 268.078H1098.52ZM1106.51 263.866C1107.25 263.866 1107.91 264.016 1108.47 264.316C1109.04 264.604 1109.48 264.982 1109.8 265.45V264.028H1112.34V274.072C1112.34 274.996 1112.16 275.818 1111.78 276.538C1111.41 277.27 1110.85 277.846 1110.11 278.266C1109.37 278.698 1108.47 278.914 1107.41 278.914C1105.99 278.914 1104.83 278.584 1103.92 277.924C1103.02 277.264 1102.51 276.364 1102.39 275.224H1104.89C1105.02 275.68 1105.3 276.04 1105.74 276.304C1106.18 276.58 1106.71 276.718 1107.34 276.718C1108.07 276.718 1108.66 276.496 1109.12 276.052C1109.58 275.62 1109.8 274.96 1109.8 274.072V272.524C1109.48 272.992 1109.03 273.382 1108.45 273.694C1107.89 274.006 1107.24 274.162 1106.51 274.162C1105.67 274.162 1104.9 273.946 1104.21 273.514C1103.51 273.082 1102.96 272.476 1102.55 271.696C1102.15 270.904 1101.96 269.998 1101.96 268.978C1101.96 267.97 1102.15 267.076 1102.55 266.296C1102.96 265.516 1103.5 264.916 1104.19 264.496C1104.88 264.076 1105.66 263.866 1106.51 263.866ZM1109.8 269.014C1109.8 268.402 1109.68 267.88 1109.44 267.448C1109.2 267.004 1108.88 266.668 1108.47 266.44C1108.06 266.2 1107.63 266.08 1107.16 266.08C1106.69 266.08 1106.26 266.194 1105.86 266.422C1105.47 266.65 1105.14 266.986 1104.89 267.43C1104.65 267.862 1104.53 268.378 1104.53 268.978C1104.53 269.578 1104.65 270.106 1104.89 270.562C1105.14 271.006 1105.47 271.348 1105.86 271.588C1106.27 271.828 1106.7 271.948 1107.16 271.948C1107.63 271.948 1108.06 271.834 1108.47 271.606C1108.88 271.366 1109.2 271.03 1109.44 270.598C1109.68 270.154 1109.8 269.626 1109.8 269.014ZM1113.8 268.978C1113.8 267.97 1113.99 267.076 1114.39 266.296C1114.8 265.516 1115.34 264.916 1116.03 264.496C1116.72 264.076 1117.5 263.866 1118.35 263.866C1119.09 263.866 1119.74 264.016 1120.29 264.316C1120.86 264.616 1121.31 264.994 1121.64 265.45V264.028H1124.18V274H1121.64V272.542C1121.32 273.01 1120.87 273.4 1120.29 273.712C1119.73 274.012 1119.08 274.162 1118.33 274.162C1117.49 274.162 1116.72 273.946 1116.03 273.514C1115.34 273.082 1114.8 272.476 1114.39 271.696C1113.99 270.904 1113.8 269.998 1113.8 268.978ZM1121.64 269.014C1121.64 268.402 1121.52 267.88 1121.28 267.448C1121.04 267.004 1120.72 266.668 1120.31 266.44C1119.9 266.2 1119.47 266.08 1119 266.08C1118.53 266.08 1118.1 266.194 1117.7 266.422C1117.31 266.65 1116.98 266.986 1116.73 267.43C1116.49 267.862 1116.37 268.378 1116.37 268.978C1116.37 269.578 1116.49 270.106 1116.73 270.562C1116.98 271.006 1117.31 271.348 1117.7 271.588C1118.11 271.828 1118.54 271.948 1119 271.948C1119.47 271.948 1119.9 271.834 1120.31 271.606C1120.72 271.366 1121.04 271.03 1121.28 270.598C1121.52 270.154 1121.64 269.626 1121.64 269.014ZM1128.8 260.68V274H1126.28V260.68H1128.8ZM1134.21 268.978C1134.21 267.97 1134.41 267.076 1134.81 266.296C1135.22 265.516 1135.77 264.916 1136.46 264.496C1137.16 264.076 1137.93 263.866 1138.79 263.866C1139.43 263.866 1140.05 264.01 1140.64 264.298C1141.23 264.574 1141.7 264.946 1142.04 265.414V260.68H1144.6V274H1142.04V272.524C1141.73 273.016 1141.29 273.412 1140.73 273.712C1140.17 274.012 1139.51 274.162 1138.77 274.162C1137.93 274.162 1137.16 273.946 1136.46 273.514C1135.77 273.082 1135.22 272.476 1134.81 271.696C1134.41 270.904 1134.21 269.998 1134.21 268.978ZM1142.06 269.014C1142.06 268.402 1141.94 267.88 1141.7 267.448C1141.46 267.004 1141.14 266.668 1140.73 266.44C1140.32 266.2 1139.88 266.08 1139.42 266.08C1138.95 266.08 1138.52 266.194 1138.12 266.422C1137.72 266.65 1137.4 266.986 1137.15 267.43C1136.91 267.862 1136.79 268.378 1136.79 268.978C1136.79 269.578 1136.91 270.106 1137.15 270.562C1137.4 271.006 1137.72 271.348 1138.12 271.588C1138.53 271.828 1138.96 271.948 1139.42 271.948C1139.88 271.948 1140.32 271.834 1140.73 271.606C1141.14 271.366 1141.46 271.03 1141.7 270.598C1141.94 270.154 1142.06 269.626 1142.06 269.014ZM1151.13 274.162C1150.17 274.162 1149.31 273.952 1148.54 273.532C1147.77 273.1 1147.16 272.494 1146.72 271.714C1146.29 270.934 1146.07 270.034 1146.07 269.014C1146.07 267.994 1146.29 267.094 1146.74 266.314C1147.19 265.534 1147.81 264.934 1148.59 264.514C1149.37 264.082 1150.24 263.866 1151.2 263.866C1152.16 263.866 1153.03 264.082 1153.81 264.514C1154.59 264.934 1155.2 265.534 1155.65 266.314C1156.1 267.094 1156.33 267.994 1156.33 269.014C1156.33 270.034 1156.1 270.934 1155.63 271.714C1155.17 272.494 1154.55 273.1 1153.76 273.532C1152.98 273.952 1152.1 274.162 1151.13 274.162ZM1151.13 271.966C1151.59 271.966 1152.01 271.858 1152.41 271.642C1152.82 271.414 1153.14 271.078 1153.38 270.634C1153.62 270.19 1153.74 269.65 1153.74 269.014C1153.74 268.066 1153.49 267.34 1152.98 266.836C1152.49 266.32 1151.89 266.062 1151.17 266.062C1150.45 266.062 1149.84 266.32 1149.35 266.836C1148.87 267.34 1148.63 268.066 1148.63 269.014C1148.63 269.962 1148.86 270.694 1149.33 271.21C1149.81 271.714 1150.41 271.966 1151.13 271.966ZM1157.17 269.014C1157.17 267.982 1157.38 267.082 1157.8 266.314C1158.22 265.534 1158.8 264.934 1159.55 264.514C1160.29 264.082 1161.14 263.866 1162.1 263.866C1163.34 263.866 1164.36 264.178 1165.16 264.802C1165.98 265.414 1166.53 266.278 1166.8 267.394H1164.08C1163.94 266.962 1163.69 266.626 1163.35 266.386C1163.01 266.134 1162.59 266.008 1162.09 266.008C1161.37 266.008 1160.8 266.272 1160.38 266.8C1159.96 267.316 1159.75 268.054 1159.75 269.014C1159.75 269.962 1159.96 270.7 1160.38 271.228C1160.8 271.744 1161.37 272.002 1162.09 272.002C1163.11 272.002 1163.77 271.546 1164.08 270.634H1166.8C1166.53 271.714 1165.98 272.572 1165.16 273.208C1164.35 273.844 1163.33 274.162 1162.1 274.162C1161.14 274.162 1160.29 273.952 1159.55 273.532C1158.8 273.1 1158.22 272.5 1157.8 271.732C1157.38 270.952 1157.17 270.046 1157.17 269.014ZM1172.1 274.162C1171.29 274.162 1170.56 274.018 1169.91 273.73C1169.26 273.43 1168.74 273.028 1168.36 272.524C1167.99 272.02 1167.78 271.462 1167.75 270.85H1170.29C1170.33 271.234 1170.52 271.552 1170.84 271.804C1171.18 272.056 1171.59 272.182 1172.09 272.182C1172.57 272.182 1172.94 272.086 1173.2 271.894C1173.48 271.702 1173.62 271.456 1173.62 271.156C1173.62 270.832 1173.45 270.592 1173.11 270.436C1172.79 270.268 1172.27 270.088 1171.55 269.896C1170.8 269.716 1170.19 269.53 1169.71 269.338C1169.24 269.146 1168.83 268.852 1168.49 268.456C1168.15 268.06 1167.98 267.526 1167.98 266.854C1167.98 266.302 1168.14 265.798 1168.45 265.342C1168.77 264.886 1169.23 264.526 1169.82 264.262C1170.42 263.998 1171.12 263.866 1171.92 263.866C1173.11 263.866 1174.06 264.166 1174.77 264.766C1175.48 265.354 1175.87 266.152 1175.94 267.16H1173.53C1173.49 266.764 1173.32 266.452 1173.02 266.224C1172.73 265.984 1172.34 265.864 1171.85 265.864C1171.4 265.864 1171.04 265.948 1170.79 266.116C1170.55 266.284 1170.43 266.518 1170.43 266.818C1170.43 267.154 1170.6 267.412 1170.93 267.592C1171.27 267.76 1171.79 267.934 1172.5 268.114C1173.22 268.294 1173.81 268.48 1174.28 268.672C1174.75 268.864 1175.15 269.164 1175.49 269.572C1175.84 269.968 1176.02 270.496 1176.03 271.156C1176.03 271.732 1175.87 272.248 1175.54 272.704C1175.23 273.16 1174.77 273.52 1174.17 273.784C1173.59 274.036 1172.9 274.162 1172.1 274.162Z" fill="white"/>
<path d="M875.972 137.324C875.972 137.996 875.81 138.626 875.486 139.214C875.174 139.802 874.676 140.276 873.992 140.636C873.32 140.996 872.468 141.176 871.436 141.176H869.33V146H866.81V133.436H871.436C872.408 133.436 873.236 133.604 873.92 133.94C874.604 134.276 875.114 134.738 875.45 135.326C875.798 135.914 875.972 136.58 875.972 137.324ZM871.328 139.142C872.024 139.142 872.54 138.986 872.876 138.674C873.212 138.35 873.38 137.9 873.38 137.324C873.38 136.1 872.696 135.488 871.328 135.488H869.33V139.142H871.328ZM879.922 137.576C880.246 137.048 880.666 136.634 881.182 136.334C881.71 136.034 882.31 135.884 882.982 135.884V138.53H882.316C881.524 138.53 880.924 138.716 880.516 139.088C880.12 139.46 879.922 140.108 879.922 141.032V146H877.402V136.028H879.922V137.576ZM888.747 146.162C887.787 146.162 886.923 145.952 886.155 145.532C885.387 145.1 884.781 144.494 884.337 143.714C883.905 142.934 883.689 142.034 883.689 141.014C883.689 139.994 883.911 139.094 884.355 138.314C884.811 137.534 885.429 136.934 886.209 136.514C886.989 136.082 887.859 135.866 888.819 135.866C889.779 135.866 890.649 136.082 891.429 136.514C892.209 136.934 892.821 137.534 893.265 138.314C893.721 139.094 893.949 139.994 893.949 141.014C893.949 142.034 893.715 142.934 893.247 143.714C892.791 144.494 892.167 145.1 891.375 145.532C890.595 145.952 889.719 146.162 888.747 146.162ZM888.747 143.966C889.203 143.966 889.629 143.858 890.025 143.642C890.433 143.414 890.757 143.078 890.997 142.634C891.237 142.19 891.357 141.65 891.357 141.014C891.357 140.066 891.105 139.34 890.601 138.836C890.109 138.32 889.503 138.062 888.783 138.062C888.063 138.062 887.457 138.32 886.965 138.836C886.485 139.34 886.245 140.066 886.245 141.014C886.245 141.962 886.479 142.694 886.947 143.21C887.427 143.714 888.027 143.966 888.747 143.966ZM899.865 146.162C898.905 146.162 898.041 145.952 897.273 145.532C896.505 145.1 895.899 144.494 895.455 143.714C895.023 142.934 894.807 142.034 894.807 141.014C894.807 139.994 895.029 139.094 895.473 138.314C895.929 137.534 896.547 136.934 897.327 136.514C898.107 136.082 898.977 135.866 899.937 135.866C900.897 135.866 901.767 136.082 902.547 136.514C903.327 136.934 903.939 137.534 904.383 138.314C904.839 139.094 905.067 139.994 905.067 141.014C905.067 142.034 904.833 142.934 904.365 143.714C903.909 144.494 903.285 145.1 902.493 145.532C901.713 145.952 900.837 146.162 899.865 146.162ZM899.865 143.966C900.321 143.966 900.747 143.858 901.143 143.642C901.551 143.414 901.875 143.078 902.115 142.634C902.355 142.19 902.475 141.65 902.475 141.014C902.475 140.066 902.223 139.34 901.719 138.836C901.227 138.32 900.621 138.062 899.901 138.062C899.181 138.062 898.575 138.32 898.083 138.836C897.603 139.34 897.363 140.066 897.363 141.014C897.363 141.962 897.597 142.694 898.065 143.21C898.545 143.714 899.145 143.966 899.865 143.966ZM911.128 138.098H909.382V146H906.826V138.098H905.692V136.028H906.826V135.524C906.826 134.3 907.174 133.4 907.87 132.824C908.566 132.248 909.616 131.978 911.02 132.014V134.138C910.408 134.126 909.982 134.228 909.742 134.444C909.502 134.66 909.382 135.05 909.382 135.614V136.028H911.128V138.098ZM920.758 146.162C919.798 146.162 918.934 145.952 918.166 145.532C917.398 145.1 916.792 144.494 916.348 143.714C915.916 142.934 915.7 142.034 915.7 141.014C915.7 139.994 915.922 139.094 916.366 138.314C916.822 137.534 917.44 136.934 918.22 136.514C919 136.082 919.87 135.866 920.83 135.866C921.79 135.866 922.66 136.082 923.44 136.514C924.22 136.934 924.832 137.534 925.276 138.314C925.732 139.094 925.96 139.994 925.96 141.014C925.96 142.034 925.726 142.934 925.258 143.714C924.802 144.494 924.178 145.1 923.386 145.532C922.606 145.952 921.73 146.162 920.758 146.162ZM920.758 143.966C921.214 143.966 921.64 143.858 922.036 143.642C922.444 143.414 922.768 143.078 923.008 142.634C923.248 142.19 923.368 141.65 923.368 141.014C923.368 140.066 923.116 139.34 922.612 138.836C922.12 138.32 921.514 138.062 920.794 138.062C920.074 138.062 919.468 138.32 918.976 138.836C918.496 139.34 918.256 140.066 918.256 141.014C918.256 141.962 918.49 142.694 918.958 143.21C919.438 143.714 920.038 143.966 920.758 143.966ZM932.021 138.098H930.275V146H927.719V138.098H926.585V136.028H927.719V135.524C927.719 134.3 928.067 133.4 928.763 132.824C929.459 132.248 930.509 131.978 931.913 132.014V134.138C931.301 134.126 930.875 134.228 930.635 134.444C930.395 134.66 930.275 135.05 930.275 135.614V136.028H932.021V138.098ZM940.157 138.098V142.922C940.157 143.258 940.235 143.504 940.391 143.66C940.559 143.804 940.835 143.876 941.219 143.876H942.389V146H940.805C938.681 146 937.619 144.968 937.619 142.904V138.098H936.431V136.028H937.619V133.562H940.157V136.028H942.389V138.098H940.157ZM945.119 134.84C944.675 134.84 944.303 134.702 944.003 134.426C943.715 134.138 943.571 133.784 943.571 133.364C943.571 132.944 943.715 132.596 944.003 132.32C944.303 132.032 944.675 131.888 945.119 131.888C945.563 131.888 945.929 132.032 946.217 132.32C946.517 132.596 946.667 132.944 946.667 133.364C946.667 133.784 946.517 134.138 946.217 134.426C945.929 134.702 945.563 134.84 945.119 134.84ZM946.361 136.028V146H943.841V136.028H946.361ZM951.425 138.098V142.922C951.425 143.258 951.503 143.504 951.659 143.66C951.827 143.804 952.103 143.876 952.487 143.876H953.657V146H952.073C949.949 146 948.887 144.968 948.887 142.904V138.098H947.699V136.028H948.887V133.562H951.425V136.028H953.657V138.098H951.425ZM957.63 132.68V146H955.11V132.68H957.63ZM969.029 140.798C969.029 141.158 969.005 141.482 968.957 141.77H961.667C961.727 142.49 961.979 143.054 962.423 143.462C962.867 143.87 963.413 144.074 964.061 144.074C964.997 144.074 965.663 143.672 966.059 142.868H968.777C968.489 143.828 967.937 144.62 967.121 145.244C966.305 145.856 965.303 146.162 964.115 146.162C963.155 146.162 962.291 145.952 961.523 145.532C960.767 145.1 960.173 144.494 959.741 143.714C959.321 142.934 959.111 142.034 959.111 141.014C959.111 139.982 959.321 139.076 959.741 138.296C960.161 137.516 960.749 136.916 961.505 136.496C962.261 136.076 963.131 135.866 964.115 135.866C965.063 135.866 965.909 136.07 966.653 136.478C967.409 136.886 967.991 137.468 968.399 138.224C968.819 138.968 969.029 139.826 969.029 140.798ZM966.419 140.078C966.407 139.43 966.173 138.914 965.717 138.53C965.261 138.134 964.703 137.936 964.043 137.936C963.419 137.936 962.891 138.128 962.459 138.512C962.039 138.884 961.781 139.406 961.685 140.078H966.419ZM977.372 138.098V142.922C977.372 143.258 977.45 143.504 977.606 143.66C977.774 143.804 978.05 143.876 978.434 143.876H979.604V146H978.02C975.896 146 974.834 144.968 974.834 142.904V138.098H973.646V136.028H974.834V133.562H977.372V136.028H979.604V138.098H977.372ZM983.576 137.576C983.9 137.048 984.32 136.634 984.836 136.334C985.364 136.034 985.964 135.884 986.636 135.884V138.53H985.97C985.178 138.53 984.578 138.716 984.17 139.088C983.774 139.46 983.576 140.108 983.576 141.032V146H981.056V136.028H983.576V137.576ZM987.326 140.978C987.326 139.97 987.524 139.076 987.92 138.296C988.328 137.516 988.874 136.916 989.558 136.496C990.254 136.076 991.028 135.866 991.88 135.866C992.624 135.866 993.272 136.016 993.824 136.316C994.388 136.616 994.838 136.994 995.174 137.45V136.028H997.712V146H995.174V144.542C994.85 145.01 994.4 145.4 993.824 145.712C993.26 146.012 992.606 146.162 991.862 146.162C991.022 146.162 990.254 145.946 989.558 145.514C988.874 145.082 988.328 144.476 987.92 143.696C987.524 142.904 987.326 141.998 987.326 140.978ZM995.174 141.014C995.174 140.402 995.054 139.88 994.814 139.448C994.574 139.004 994.25 138.668 993.842 138.44C993.434 138.2 992.996 138.08 992.528 138.08C992.06 138.08 991.628 138.194 991.232 138.422C990.836 138.65 990.512 138.986 990.26 139.43C990.02 139.862 989.9 140.378 989.9 140.978C989.9 141.578 990.02 142.106 990.26 142.562C990.512 143.006 990.836 143.348 991.232 143.588C991.64 143.828 992.072 143.948 992.528 143.948C992.996 143.948 993.434 143.834 993.842 143.606C994.25 143.366 994.574 143.03 994.814 142.598C995.054 142.154 995.174 141.626 995.174 141.014ZM1005.34 135.884C1006.53 135.884 1007.49 136.262 1008.22 137.018C1008.95 137.762 1009.32 138.806 1009.32 140.15V146H1006.8V140.492C1006.8 139.7 1006.6 139.094 1006.2 138.674C1005.81 138.242 1005.27 138.026 1004.58 138.026C1003.89 138.026 1003.33 138.242 1002.93 138.674C1002.53 139.094 1002.33 139.7 1002.33 140.492V146H999.813V136.028H1002.33V137.27C1002.67 136.838 1003.09 136.502 1003.61 136.262C1004.14 136.01 1004.71 135.884 1005.34 135.884ZM1015.17 146.162C1014.35 146.162 1013.62 146.018 1012.97 145.73C1012.33 145.43 1011.81 145.028 1011.43 144.524C1011.05 144.02 1010.85 143.462 1010.81 142.85H1013.35C1013.4 143.234 1013.59 143.552 1013.91 143.804C1014.25 144.056 1014.66 144.182 1015.15 144.182C1015.63 144.182 1016 144.086 1016.27 143.894C1016.54 143.702 1016.68 143.456 1016.68 143.156C1016.68 142.832 1016.51 142.592 1016.18 142.436C1015.85 142.268 1015.33 142.088 1014.61 141.896C1013.87 141.716 1013.26 141.53 1012.78 141.338C1012.31 141.146 1011.9 140.852 1011.55 140.456C1011.22 140.06 1011.05 139.526 1011.05 138.854C1011.05 138.302 1011.2 137.798 1011.52 137.342C1011.84 136.886 1012.3 136.526 1012.88 136.262C1013.48 135.998 1014.19 135.866 1014.99 135.866C1016.18 135.866 1017.13 136.166 1017.83 136.766C1018.54 137.354 1018.93 138.152 1019 139.16H1016.59C1016.56 138.764 1016.39 138.452 1016.09 138.224C1015.8 137.984 1015.41 137.864 1014.92 137.864C1014.46 137.864 1014.11 137.948 1013.86 138.116C1013.62 138.284 1013.5 138.518 1013.5 138.818C1013.5 139.154 1013.66 139.412 1014 139.592C1014.34 139.76 1014.86 139.934 1015.57 140.114C1016.29 140.294 1016.88 140.48 1017.35 140.672C1017.82 140.864 1018.22 141.164 1018.55 141.572C1018.9 141.968 1019.08 142.496 1019.09 143.156C1019.09 143.732 1018.93 144.248 1018.61 144.704C1018.3 145.16 1017.84 145.52 1017.24 145.784C1016.65 146.036 1015.96 146.162 1015.17 146.162ZM1025.37 138.098H1023.63V146H1021.07V138.098H1019.94V136.028H1021.07V135.524C1021.07 134.3 1021.42 133.4 1022.12 132.824C1022.81 132.248 1023.86 131.978 1025.27 132.014V134.138C1024.65 134.126 1024.23 134.228 1023.99 134.444C1023.75 134.66 1023.63 135.05 1023.63 135.614V136.028H1025.37V138.098ZM1035.92 140.798C1035.92 141.158 1035.89 141.482 1035.84 141.77H1028.55C1028.61 142.49 1028.87 143.054 1029.31 143.462C1029.75 143.87 1030.3 144.074 1030.95 144.074C1031.88 144.074 1032.55 143.672 1032.95 142.868H1035.66C1035.38 143.828 1034.82 144.62 1034.01 145.244C1033.19 145.856 1032.19 146.162 1031 146.162C1030.04 146.162 1029.18 145.952 1028.41 145.532C1027.65 145.1 1027.06 144.494 1026.63 143.714C1026.21 142.934 1026 142.034 1026 141.014C1026 139.982 1026.21 139.076 1026.63 138.296C1027.05 137.516 1027.64 136.916 1028.39 136.496C1029.15 136.076 1030.02 135.866 1031 135.866C1031.95 135.866 1032.8 136.07 1033.54 136.478C1034.3 136.886 1034.88 137.468 1035.29 138.224C1035.71 138.968 1035.92 139.826 1035.92 140.798ZM1033.31 140.078C1033.29 139.43 1033.06 138.914 1032.6 138.53C1032.15 138.134 1031.59 137.936 1030.93 137.936C1030.31 137.936 1029.78 138.128 1029.35 138.512C1028.93 138.884 1028.67 139.406 1028.57 140.078H1033.31ZM1039.92 137.576C1040.24 137.048 1040.66 136.634 1041.18 136.334C1041.7 136.034 1042.3 135.884 1042.98 135.884V138.53H1042.31C1041.52 138.53 1040.92 138.716 1040.51 139.088C1040.11 139.46 1039.92 140.108 1039.92 141.032V146H1037.4V136.028H1039.92V137.576Z" fill="white"/>
<path d="M513.5 75.9713L559.971 29.5H697.029L743.5 75.9713V213.029L697.029 259.5H559.971L513.5 213.029V75.9713Z" fill="#192268" stroke="#25308A"/>
<path d="M570.551 145.808H563.879L562.775 149H559.247L565.271 132.224H569.183L575.207 149H571.655L570.551 145.808ZM569.639 143.12L567.215 136.112L564.791 143.12H569.639ZM582.066 149.216C580.978 149.216 580.002 149.024 579.138 148.64C578.274 148.24 577.586 147.704 577.074 147.032C576.578 146.36 576.306 145.616 576.258 144.8H579.642C579.706 145.312 579.954 145.736 580.386 146.072C580.834 146.408 581.386 146.576 582.042 146.576C582.682 146.576 583.178 146.448 583.53 146.192C583.898 145.936 584.082 145.608 584.082 145.208C584.082 144.776 583.858 144.456 583.41 144.248C582.978 144.024 582.282 143.784 581.322 143.528C580.33 143.288 579.514 143.04 578.874 142.784C578.25 142.528 577.706 142.136 577.242 141.608C576.794 141.08 576.57 140.368 576.57 139.472C576.57 138.736 576.778 138.064 577.194 137.456C577.626 136.848 578.234 136.368 579.018 136.016C579.818 135.664 580.754 135.488 581.826 135.488C583.41 135.488 584.674 135.888 585.618 136.688C586.562 137.472 587.082 138.536 587.178 139.88H583.962C583.914 139.352 583.69 138.936 583.29 138.632C582.906 138.312 582.386 138.152 581.73 138.152C581.122 138.152 580.65 138.264 580.314 138.488C579.994 138.712 579.834 139.024 579.834 139.424C579.834 139.872 580.058 140.216 580.506 140.456C580.954 140.68 581.65 140.912 582.594 141.152C583.554 141.392 584.346 141.64 584.97 141.896C585.594 142.152 586.13 142.552 586.578 143.096C587.042 143.624 587.282 144.328 587.298 145.208C587.298 145.976 587.082 146.664 586.65 147.272C586.234 147.88 585.626 148.36 584.826 148.712C584.042 149.048 583.122 149.216 582.066 149.216ZM594.664 149.216C593.576 149.216 592.6 149.024 591.736 148.64C590.872 148.24 590.184 147.704 589.672 147.032C589.176 146.36 588.904 145.616 588.856 144.8H592.24C592.304 145.312 592.552 145.736 592.984 146.072C593.432 146.408 593.984 146.576 594.64 146.576C595.28 146.576 595.776 146.448 596.128 146.192C596.496 145.936 596.68 145.608 596.68 145.208C596.68 144.776 596.456 144.456 596.008 144.248C595.576 144.024 594.88 143.784 593.92 143.528C592.928 143.288 592.112 143.04 591.472 142.784C590.848 142.528 590.304 142.136 589.84 141.608C589.392 141.08 589.168 140.368 589.168 139.472C589.168 138.736 589.376 138.064 589.792 137.456C590.224 136.848 590.832 136.368 591.616 136.016C592.416 135.664 593.352 135.488 594.424 135.488C596.008 135.488 597.272 135.888 598.216 136.688C599.16 137.472 599.68 138.536 599.776 139.88H596.56C596.512 139.352 596.288 138.936 595.888 138.632C595.504 138.312 594.984 138.152 594.328 138.152C593.72 138.152 593.248 138.264 592.912 138.488C592.592 138.712 592.432 139.024 592.432 139.424C592.432 139.872 592.656 140.216 593.104 140.456C593.552 140.68 594.248 140.912 595.192 141.152C596.152 141.392 596.944 141.64 597.568 141.896C598.192 142.152 598.728 142.552 599.176 143.096C599.64 143.624 599.88 144.328 599.896 145.208C599.896 145.976 599.68 146.664 599.248 147.272C598.832 147.88 598.224 148.36 597.424 148.712C596.64 149.048 595.72 149.216 594.664 149.216ZM614.535 142.064C614.535 142.544 614.503 142.976 614.439 143.36H604.719C604.799 144.32 605.135 145.072 605.727 145.616C606.319 146.16 607.047 146.432 607.911 146.432C609.159 146.432 610.047 145.896 610.575 144.824H614.199C613.815 146.104 613.079 147.16 611.991 147.992C610.903 148.808 609.567 149.216 607.983 149.216C606.703 149.216 605.551 148.936 604.527 148.376C603.519 147.8 602.727 146.992 602.151 145.952C601.591 144.912 601.311 143.712 601.311 142.352C601.311 140.976 601.591 139.768 602.151 138.728C602.711 137.688 603.495 136.888 604.503 136.328C605.511 135.768 606.671 135.488 607.983 135.488C609.247 135.488 610.375 135.76 611.367 136.304C612.375 136.848 613.151 137.624 613.695 138.632C614.255 139.624 614.535 140.768 614.535 142.064ZM611.055 141.104C611.039 140.24 610.727 139.552 610.119 139.04C609.511 138.512 608.767 138.248 607.887 138.248C607.055 138.248 606.351 138.504 605.775 139.016C605.215 139.512 604.871 140.208 604.743 141.104H611.055ZM620.419 138.464V144.896C620.419 145.344 620.523 145.672 620.731 145.88C620.955 146.072 621.323 146.168 621.835 146.168H623.395V149H621.283C618.451 149 617.035 147.624 617.035 144.872V138.464H615.451V135.704H617.035V132.416H620.419V135.704H623.395V138.464H620.419ZM630.42 149.216C629.332 149.216 628.356 149.024 627.492 148.64C626.628 148.24 625.94 147.704 625.428 147.032C624.932 146.36 624.66 145.616 624.612 144.8H627.996C628.06 145.312 628.308 145.736 628.74 146.072C629.188 146.408 629.74 146.576 630.396 146.576C631.036 146.576 631.532 146.448 631.884 146.192C632.252 145.936 632.436 145.608 632.436 145.208C632.436 144.776 632.212 144.456 631.764 144.248C631.332 144.024 630.636 143.784 629.676 143.528C628.684 143.288 627.868 143.04 627.228 142.784C626.604 142.528 626.06 142.136 625.596 141.608C625.148 141.08 624.924 140.368 624.924 139.472C624.924 138.736 625.132 138.064 625.548 137.456C625.98 136.848 626.588 136.368 627.372 136.016C628.172 135.664 629.108 135.488 630.18 135.488C631.764 135.488 633.028 135.888 633.972 136.688C634.916 137.472 635.436 138.536 635.532 139.88H632.316C632.268 139.352 632.044 138.936 631.644 138.632C631.26 138.312 630.74 138.152 630.084 138.152C629.476 138.152 629.004 138.264 628.668 138.488C628.348 138.712 628.188 139.024 628.188 139.424C628.188 139.872 628.412 140.216 628.86 140.456C629.308 140.68 630.004 140.912 630.948 141.152C631.908 141.392 632.7 141.64 633.324 141.896C633.948 142.152 634.484 142.552 634.932 143.096C635.396 143.624 635.636 144.328 635.652 145.208C635.652 145.976 635.436 146.664 635.004 147.272C634.588 147.88 633.98 148.36 633.18 148.712C632.396 149.048 631.476 149.216 630.42 149.216ZM657.497 149H654.137L646.529 137.504V149H643.169V132.224H646.529L654.137 143.744V132.224H657.497V149ZM670.681 132.248V134.96H663.697V139.256H669.049V141.92H663.697V149H660.337V132.248H670.681ZM683.984 132.248V134.96H679.52V149H676.16V134.96H671.696V132.248H683.984ZM691.043 149.216C689.955 149.216 688.979 149.024 688.115 148.64C687.251 148.24 686.563 147.704 686.051 147.032C685.555 146.36 685.283 145.616 685.235 144.8H688.619C688.683 145.312 688.931 145.736 689.363 146.072C689.811 146.408 690.363 146.576 691.019 146.576C691.659 146.576 692.155 146.448 692.507 146.192C692.875 145.936 693.059 145.608 693.059 145.208C693.059 144.776 692.835 144.456 692.387 144.248C691.955 144.024 691.259 143.784 690.299 143.528C689.307 143.288 688.491 143.04 687.851 142.784C687.227 142.528 686.683 142.136 686.219 141.608C685.771 141.08 685.547 140.368 685.547 139.472C685.547 138.736 685.755 138.064 686.171 137.456C686.603 136.848 687.211 136.368 687.995 136.016C688.795 135.664 689.731 135.488 690.803 135.488C692.387 135.488 693.651 135.888 694.595 136.688C695.539 137.472 696.059 138.536 696.155 139.88H692.939C692.891 139.352 692.667 138.936 692.267 138.632C691.883 138.312 691.363 138.152 690.707 138.152C690.099 138.152 689.627 138.264 689.291 138.488C688.971 138.712 688.811 139.024 688.811 139.424C688.811 139.872 689.035 140.216 689.483 140.456C689.931 140.68 690.627 140.912 691.571 141.152C692.531 141.392 693.323 141.64 693.947 141.896C694.571 142.152 695.107 142.552 695.555 143.096C696.019 143.624 696.259 144.328 696.275 145.208C696.275 145.976 696.059 146.664 695.627 147.272C695.211 147.88 694.603 148.36 693.803 148.712C693.019 149.048 692.099 149.216 691.043 149.216Z" fill="white"/>
<path d="M772 104.5H819C839.987 104.5 857 87.4868 857 66.5V51C857 30.0132 874.013 13 895 13H968" stroke="#7579FF" stroke-width="3" stroke-linecap="round"/>
<circle cx="772.5" cy="104.5" r="3" fill="#7579FF" stroke="white"/>
<circle cx="966.5" cy="12.5" r="3" fill="#7579FF" stroke="white"/>
<path d="M772 142H853" stroke="white" stroke-width="3" stroke-linecap="round" stroke-dasharray="6 6"/>
<circle cx="772.5" cy="142.5" r="3" fill="#7579FF" stroke="white"/>
<path d="M772 178H819C839.987 178 857 195.013 857 216V231.5C857 252.487 874.013 269.5 895 269.5H968" stroke="#7579FF" stroke-width="3" stroke-linecap="round"/>
<circle cx="966.5" cy="269.5" r="3" fill="#7579FF" stroke="white"/>
<circle cx="772.5" cy="178.5" r="3" fill="#7579FF" stroke="white"/>
<path d="M481 104.5H434C413.013 104.5 396 87.4868 396 66.5V51C396 30.0132 378.987 13 358 13H285" stroke="#7579FF" stroke-width="3" stroke-linecap="round"/>
<circle r="3" transform="matrix(-1 0 0 1 480.5 104.5)" fill="#7579FF" stroke="white"/>
<circle r="3" transform="matrix(-1 0 0 1 281.5 13.5)" fill="#7579FF" stroke="white"/>
<path d="M481 142H400" stroke="white" stroke-width="3" stroke-linecap="round" stroke-dasharray="6 6"/>
<circle r="3" transform="matrix(-1 0 0 1 480.5 142.5)" fill="#7579FF" stroke="white"/>
<path d="M481 178H434C413.013 178 396 195.013 396 216V231.5C396 252.487 378.987 269.5 358 269.5H285" stroke="#7579FF" stroke-width="3" stroke-linecap="round"/>
<circle r="3" transform="matrix(-1 0 0 1 281.5 269.5)" fill="#7579FF" stroke="white"/>
<circle r="3" transform="matrix(-1 0 0 1 480.5 178.5)" fill="#7579FF" stroke="white"/>
</svg>
